<?xml version="1.0" encoding="UTF-8"?>
<svg version="1.1" xmlns="http://www.w3.org/2000/svg" width="860" height="852">
<path d="M0 0 C1.65662391 1.55105474 3.3017383 3.11445923 4.9375 4.6875 C5.66936523 5.37271729 5.66936523 5.37271729 6.41601562 6.07177734 C49.07434056 46.08719858 69.88129634 100.1463295 71.82421875 157.71875 C71.86160156 159.0284375 71.89898438 160.338125 71.9375 161.6875 C73.81461672 159.10568497 75.68914164 156.52204071 77.5625 153.9375 C78.06523438 153.2465625 78.56796875 152.555625 79.0859375 151.84375 C90.14817506 136.56732671 100.80130022 121.03566474 111.13189697 105.25662231 C112.99296322 102.41532405 114.85883854 99.57723746 116.72607422 96.73999023 C121.56675624 89.3843422 126.40502172 82.02712301 131.23144531 74.66210938 C133.71181418 70.87799716 136.20026018 67.09932265 138.69482422 63.32455444 C139.58727778 61.97083925 140.47674436 60.61514874 141.36279297 59.25723267 C163.19334135 25.80988029 163.19334135 25.80988029 180.9375 21.6875 C188.15454277 20.77339929 194.35708683 20.72716593 200.3515625 25.19140625 C205.14212666 29.71058378 207.01714789 34.45677156 207.3125 40.875 C207.03389931 56.8481064 198.40890548 72.49058061 191.9375 86.6875 C191.26944758 88.17834792 190.60147161 89.66923012 189.93359375 91.16015625 C186.02658857 99.7685876 181.63219876 108.06685609 177.06298828 116.34008789 C172.65289466 124.33160104 168.37055098 132.38601427 164.112854 140.45932007 C154.18221181 159.2853568 144.15835185 178.01328333 133.3671875 196.36425781 C126.91570423 207.36368231 120.75485041 218.52085292 114.59619141 229.68603516 C113.15821945 232.28809981 111.71317641 234.88591151 110.26171875 237.48046875 C95.8819179 263.18533908 82.0580618 289.0468205 70.22851562 316.03344727 C66.8607075 323.69587632 63.301376 331.21307765 59.4609375 338.6484375 C58.13529535 341.29292364 56.98335658 343.92271082 55.9375 346.6875 C55.2775 346.6875 54.6175 346.6875 53.9375 346.6875 C54.02451172 347.86892578 54.02451172 347.86892578 54.11328125 349.07421875 C54.81511079 366.01838904 46.56350479 376.69869877 36.9375 389.6875 C26.27183798 404.43393706 19.31404388 421.28979285 12.375 438 C11.56904713 439.92151257 10.76240841 441.84273762 9.95507812 443.76367188 C6.05712413 453.05936304 2.22053832 462.3803503 -1.5546875 471.7265625 C-1.88678726 472.54212112 -2.21888702 473.35767975 -2.56105042 474.19795227 C-4.57962397 479.23027061 -6.05883395 484.18946838 -7.23046875 489.48828125 C-8.3781541 493.90121225 -9.88506152 498.15257251 -11.4375 502.4375 C-11.71795166 503.230354 -11.99840332 504.02320801 -12.28735352 504.84008789 C-16.36702885 515.88771453 -23.41783203 525.17111994 -31.8125 533.375 C-37.76487378 535.77884326 -44.90387972 535.80130688 -50.96484375 533.6640625 C-51.65707031 533.34179688 -52.34929688 533.01953125 -53.0625 532.6875 C-53.11857422 534.43160156 -53.11857422 534.43160156 -53.17578125 536.2109375 C-53.50110608 544.6533834 -54.06015202 552.9701638 -55.4375 561.3125 C-55.6082605 562.37476807 -55.6082605 562.37476807 -55.7824707 563.45849609 C-56.70939789 568.72819156 -58.28032511 573.65040315 -60.0625 578.6875 C-64.70206413 591.63696693 -64.70206413 591.63696693 -66.5625 605.1875 C-66.81863575 612.30972637 -69.1794815 616.82058122 -73.0625 622.6875 C-73.65289063 623.64140625 -74.24328125 624.5953125 -74.8515625 625.578125 C-97.13046036 660.60091917 -134.19401871 686.44800233 -174.74902344 695.47265625 C-206.14139534 701.95665008 -246.37881308 701.7207648 -275.0625 685.6875 C-284.18235102 678.98172719 -284.18235102 678.98172719 -285.88671875 674.5390625 C-286.0625 672.6875 -286.0625 672.6875 -285.0625 670.6875 C-281.60483461 669.53494487 -278.7054414 669.50563827 -275.0625 669.375 C-265.81494523 668.84000828 -258.23062493 667.43526418 -251.625 660.5625 C-241.87158163 648.3557678 -241.79599564 633.24203162 -241.59918213 618.33349609 C-241.53611574 613.78432117 -241.4365415 609.23597787 -241.3359375 604.6875 C-241.31570526 603.76590088 -241.29547302 602.84430176 -241.27462769 601.89477539 C-241.0803456 593.5499058 -240.7565626 585.21574288 -240.30541992 576.88085938 C-240.22849754 575.45007122 -240.15524483 574.01907966 -240.08618164 572.58789062 C-239.07053962 551.82806839 -234.79677026 532.5898633 -225.61328125 513.89453125 C-224.05472312 510.8402762 -224.05472312 510.8402762 -223.1875 508.1015625 C-221.63901631 504.77877459 -219.39405555 502.77240752 -216.75 500.25 C-212.40671445 496.10200969 -212.40671445 496.10200969 -208.5625 491.5 C-204.64901386 487.09732809 -199.93232864 483.96122023 -195.0625 480.6875 C-194.37542969 480.21054687 -193.68835938 479.73359375 -192.98046875 479.2421875 C-187.38485539 475.73251285 -181.35815508 474.28071963 -175.02954102 472.64306641 C-167.68138188 470.70221638 -160.94163067 467.90587143 -154.0625 464.6875 C-154.7225 463.78 -155.3825 462.8725 -156.0625 461.9375 C-158.99456145 456.75647386 -158.92041253 451.46874839 -158.0625 445.6875 C-154.95078193 436.74326516 -145.70198986 430.17337107 -137.9375 425.4375 C-122.80877563 416.19335725 -109.40411911 403.30961045 -97.0625 390.6875 C-97.96226562 390.92984375 -98.86203125 391.1721875 -99.7890625 391.421875 C-107.94960061 393.56728241 -116.13649737 395.35802249 -124.4375 396.875 C-125.79029053 397.12491699 -125.79029053 397.12491699 -127.17041016 397.37988281 C-137.66759506 399.25280058 -147.97096243 399.84112201 -158.62684059 399.91729546 C-160.88921524 399.93401639 -163.1514437 399.95726572 -165.41374207 399.98219299 C-171.84012229 400.05207645 -178.26656512 400.11239009 -184.69311523 400.16430664 C-230.98225942 400.54832063 -273.27965624 404.32720084 -308.5859375 437.38671875 C-310.63945716 439.29448386 -312.72290011 441.14056726 -314.83984375 442.9765625 C-319.07856303 446.67136221 -323.17102523 450.5055681 -327.25 454.375 C-328.74841412 455.78806142 -330.24711469 457.20081914 -331.74609375 458.61328125 C-333.79946671 460.55004179 -335.85197236 462.48760789 -337.89892578 464.43115234 C-358.02037141 483.52310177 -379.95845819 498.61601432 -407.0625 505.6875 C-408.27164063 506.00847656 -409.48078125 506.32945312 -410.7265625 506.66015625 C-430.17189 510.91753447 -453.82195254 510.83073593 -473.0625 505.6875 C-473.82852539 505.49414062 -474.59455078 505.30078125 -475.38378906 505.1015625 C-492.96156468 500.59408383 -509.4466948 493.53995416 -524.0625 482.6875 C-525.26132812 481.82125 -525.26132812 481.82125 -526.484375 480.9375 C-566.1174885 450.88886493 -583.94914834 401.40204061 -590.63110352 353.71533203 C-592.26551921 341.21814709 -592.42003648 328.77624473 -592.375 316.1875 C-592.37317719 315.12924011 -592.37135437 314.07098022 -592.36947632 312.98065186 C-592.32321754 297.01730413 -591.78298119 281.45036611 -589.0625 265.6875 C-588.89089355 264.64158691 -588.71928711 263.59567383 -588.54248047 262.51806641 C-580.98321803 217.14222566 -564.39295489 174.80393821 -538.875 136.5625 C-538.50335724 136.00513153 -538.13171448 135.44776306 -537.74880981 134.87350464 C-529.79566801 122.99358562 -521.24364796 111.64611821 -512.0625 100.6875 C-511.37583252 99.86330566 -511.37583252 99.86330566 -510.67529297 99.02246094 C-504.47460636 91.59656343 -498.10067161 84.52412948 -491.14453125 77.796875 C-489.0216128 75.86408576 -489.0216128 75.86408576 -488.0625 73.6875 C-487.4025 73.6875 -486.7425 73.6875 -486.0625 73.6875 C-486.0625 73.0275 -486.0625 72.3675 -486.0625 71.6875 C-484.59375 70.2421875 -484.59375 70.2421875 -482.5625 68.5625 C-479.64625911 66.09059004 -476.90579692 63.56177217 -474.25 60.8125 C-470.41046529 56.92067591 -466.28684662 53.50641133 -462.0234375 50.08984375 C-459.49523323 48.03859622 -457.02749876 45.93442795 -454.5715332 43.79785156 C-437.28207199 28.83173724 -417.83695458 16.117623 -398.0625 4.6875 C-397.39444336 4.30126465 -396.72638672 3.9150293 -396.03808594 3.51708984 C-341.22344619 -27.96202743 -281.10873269 -48.20596921 -218.0625 -54.3125 C-216.64432983 -54.45606934 -216.64432983 -54.45606934 -215.19750977 -54.60253906 C-143.60465254 -61.04953565 -55.8165004 -48.81728844 0 0 Z M-214.0625 203.6875 C-214.68898438 204.25082031 -215.31546875 204.81414062 -215.9609375 205.39453125 C-226.5933342 215.28121687 -234.26289155 229.4536567 -235.30078125 244.03515625 C-235.57404366 257.71265891 -232.20714358 269.67284447 -222.9453125 280.0625 C-210.5893631 292.05384762 -197.50397242 295.19556286 -180.8203125 294.95703125 C-163.46607887 294.3789365 -147.07070509 287.06639455 -134.0625 275.6875 C-133.41410156 275.18089844 -132.76570313 274.67429687 -132.09765625 274.15234375 C-116.9838359 261.97150239 -107.25874897 243.39567254 -104.75390625 224.33984375 C-104.17274567 214.63622309 -107.87717544 204.95408643 -114.15234375 197.6796875 C-125.67471646 185.66248896 -139.41672767 180.26357482 -156.0234375 179.5625 C-179.18019532 179.1224666 -197.48924719 187.82615667 -214.0625 203.6875 Z M-113.0625 489.6875 C-112.7325 490.3475 -112.4025 491.0075 -112.0625 491.6875 C-111.4025 491.3575 -110.7425 491.0275 -110.0625 490.6875 C-111.0525 490.3575 -112.0425 490.0275 -113.0625 489.6875 Z M-110.0625 491.6875 C-105.84982388 496.12015134 -101.04395605 499.18838742 -95.9375 502.5 C-94.55884766 503.41555664 -94.55884766 503.41555664 -93.15234375 504.34960938 C-92.27449219 504.92130859 -91.39664062 505.49300781 -90.4921875 506.08203125 C-89.69022949 506.60643799 -88.88827148 507.13084473 -88.06201172 507.67114258 C-87.40217285 508.00654053 -86.74233398 508.34193848 -86.0625 508.6875 C-85.4025 508.3575 -84.7425 508.0275 -84.0625 507.6875 C-86.74620015 505.76546984 -89.43513289 503.85088769 -92.125 501.9375 C-92.87716797 501.39867187 -93.62933594 500.85984375 -94.40429688 500.3046875 C-101.66909723 494.48372392 -101.66909723 494.48372392 -110.0625 491.6875 Z " fill="#F69329" transform="translate(623.0625,96.3125)"/>
<path d="M0 0 C4.50533537 3.35523921 7.30782889 7.36137589 8.4375 12.875 C10.78039498 29.84425363 0.21689629 48.00241275 -6.5625 62.875 C-7.23055242 64.36584792 -7.89852839 65.85673012 -8.56640625 67.34765625 C-12.47341143 75.9560876 -16.86780124 84.25435609 -21.43701172 92.52758789 C-25.84710534 100.51910104 -30.12944902 108.57351427 -34.387146 116.64682007 C-44.31778819 135.4728568 -54.34164815 154.20078333 -65.1328125 172.55175781 C-71.58429577 183.55118231 -77.74514959 194.70835292 -83.90380859 205.87353516 C-85.34178055 208.47559981 -86.78682359 211.07341151 -88.23828125 213.66796875 C-102.6180821 239.37283908 -116.4419382 265.2343205 -128.27148438 292.22094727 C-131.6392925 299.88337632 -135.198624 307.40057765 -139.0390625 314.8359375 C-140.36470465 317.48042364 -141.51664342 320.11021082 -142.5625 322.875 C-143.2225 322.875 -143.8825 322.875 -144.5625 322.875 C-144.50449219 323.66261719 -144.44648437 324.45023437 -144.38671875 325.26171875 C-143.68488921 342.20588904 -151.93649521 352.88619877 -161.5625 365.875 C-172.22816202 380.62143706 -179.18595612 397.47729285 -186.125 414.1875 C-186.93095287 416.10901257 -187.73759159 418.03023762 -188.54492188 419.95117188 C-192.44287587 429.24686304 -196.27946168 438.5678503 -200.0546875 447.9140625 C-200.38678726 448.72962112 -200.71888702 449.54517975 -201.06105042 450.38545227 C-203.07962397 455.41777061 -204.55883395 460.37696838 -205.73046875 465.67578125 C-206.8781541 470.08871225 -208.38506152 474.34007251 -209.9375 478.625 C-210.21795166 479.417854 -210.49840332 480.21070801 -210.78735352 481.02758789 C-214.86702885 492.07521453 -221.91783203 501.35861994 -230.3125 509.5625 C-236.26487378 511.96634326 -243.40387972 511.98880688 -249.46484375 509.8515625 C-250.50318359 509.36816406 -250.50318359 509.36816406 -251.5625 508.875 C-251.59988281 510.03773438 -251.63726563 511.20046875 -251.67578125 512.3984375 C-252.00110608 520.8408834 -252.56015202 529.1576638 -253.9375 537.5 C-254.05134033 538.20817871 -254.16518066 538.91635742 -254.2824707 539.64599609 C-255.20939789 544.91569156 -256.78032511 549.83790315 -258.5625 554.875 C-263.20206413 567.82446693 -263.20206413 567.82446693 -265.0625 581.375 C-265.31863575 588.49722637 -267.6794815 593.00808122 -271.5625 598.875 C-272.15289063 599.82890625 -272.74328125 600.7828125 -273.3515625 601.765625 C-295.63046036 636.78841917 -332.69401871 662.63550233 -373.24902344 671.66015625 C-404.64139534 678.14415008 -444.87881308 677.9082648 -473.5625 661.875 C-482.68235102 655.16922719 -482.68235102 655.16922719 -484.38671875 650.7265625 C-484.5625 648.875 -484.5625 648.875 -483.5625 646.875 C-480.10483461 645.72244487 -477.2054414 645.69313827 -473.5625 645.5625 C-464.31494523 645.02750828 -456.73062493 643.62276418 -450.125 636.75 C-440.37158163 624.5432678 -440.29599564 609.42953162 -440.09918213 594.52099609 C-440.03611574 589.97182117 -439.9365415 585.42347787 -439.8359375 580.875 C-439.81570526 579.95340088 -439.79547302 579.03180176 -439.77462769 578.08227539 C-439.5803456 569.7374058 -439.2565626 561.40324288 -438.80541992 553.06835938 C-438.72849754 551.63757122 -438.65524483 550.20657966 -438.58618164 548.77539062 C-437.57053962 528.01556839 -433.29677026 508.7773633 -424.11328125 490.08203125 C-422.55472312 487.0277762 -422.55472312 487.0277762 -421.6875 484.2890625 C-420.13901631 480.96627459 -417.89405555 478.95990752 -415.25 476.4375 C-410.90671445 472.28950969 -410.90671445 472.28950969 -407.0625 467.6875 C-403.14901386 463.28482809 -398.43232864 460.14872023 -393.5625 456.875 C-392.87542969 456.39804687 -392.18835938 455.92109375 -391.48046875 455.4296875 C-385.88485539 451.92001285 -379.85815508 450.46821963 -373.52954102 448.83056641 C-366.18138188 446.88971638 -359.44163067 444.09337143 -352.5625 440.875 C-353.2225 439.9675 -353.8825 439.06 -354.5625 438.125 C-357.49456145 432.94397386 -357.42041253 427.65624839 -356.5625 421.875 C-353.45078193 412.93076516 -344.20198986 406.36087107 -336.4375 401.625 C-324.02042277 394.03776186 -313.07432896 383.87327396 -302.5625 373.875 C-301.85222656 373.20597656 -301.14195312 372.53695313 -300.41015625 371.84765625 C-297.67019567 369.20037933 -295.30624535 366.65272 -293.25 363.4375 C-292.693125 362.591875 -292.13625 361.74625 -291.5625 360.875 C-290.9025 360.875 -290.2425 360.875 -289.5625 360.875 C-289.459375 360.235625 -289.35625 359.59625 -289.25 358.9375 C-289.023125 358.256875 -288.79625 357.57625 -288.5625 356.875 C-287.5725 356.545 -286.5825 356.215 -285.5625 355.875 C-284.96188767 353.97321215 -284.96188767 353.97321215 -284.5625 351.875 C-283.9025 350.885 -283.2425 349.895 -282.5625 348.875 C-281.9025 348.875 -281.2425 348.875 -280.5625 348.875 C-280.43866943 348.2862207 -280.31483887 347.69744141 -280.18725586 347.09082031 C-279.19272669 343.56352578 -277.10286785 340.67073077 -275.125 337.625 C-274.71701172 336.9753125 -274.30902344 336.325625 -273.88867188 335.65625 C-272.83759398 334.02390716 -271.70578965 332.44413882 -270.5625 330.875 C-269.9025 330.875 -269.2425 330.875 -268.5625 330.875 C-268.48515625 330.19953125 -268.4078125 329.5240625 -268.328125 328.828125 C-267.33367775 324.99239991 -265.39943639 321.94438245 -263.3125 318.625 C-262.49497624 317.29625983 -261.67856579 315.96683403 -260.86328125 314.63671875 C-260.46834473 313.99524902 -260.0734082 313.3537793 -259.66650391 312.69287109 C-257.51604081 309.15188299 -255.5286035 305.5206894 -253.5625 301.875 C-252.9025 301.875 -252.2425 301.875 -251.5625 301.875 C-251.5625 300.885 -251.5625 299.895 -251.5625 298.875 C-250.9025 298.875 -250.2425 298.875 -249.5625 298.875 C-249.43875 298.276875 -249.315 297.67875 -249.1875 297.0625 C-248.5625 294.875 -248.5625 294.875 -246.5625 291.875 C-245.9025 291.875 -245.2425 291.875 -244.5625 291.875 C-244.41941406 290.9778125 -244.41941406 290.9778125 -244.2734375 290.0625 C-243.40773884 287.39881181 -242.37903476 286.57644471 -240.1875 284.875 C-238.01891032 283.13127687 -236.47711791 281.75912431 -234.8125 279.5 C-234.4 278.96375 -233.9875 278.4275 -233.5625 277.875 C-232.5725 277.875 -231.5825 277.875 -230.5625 277.875 C-230.2325 276.885 -229.9025 275.895 -229.5625 274.875 C-227.48828125 274.0234375 -227.48828125 274.0234375 -224.875 273.25 C-219.72369487 271.30734679 -217.93715089 269.19264512 -215.22265625 264.52734375 C-213.27831161 261.42096726 -210.97314076 258.74359983 -208.5625 256 C-201.36749425 247.68668336 -194.98697752 238.78793658 -188.5625 229.875 C-187.82676758 228.86324707 -187.82676758 228.86324707 -187.07617188 227.83105469 C-179.60350401 217.54704238 -172.6326749 206.94508132 -165.69018555 196.30004883 C-158.84873732 185.81380273 -151.95133363 175.36544311 -145.01733398 164.94015503 C-143.81854738 163.13679691 -142.62106961 161.33256791 -141.42504883 159.52737427 C-132.91363908 146.68373874 -124.08596388 134.12143184 -114.96743774 121.70263672 C-105.85993785 109.28971013 -97.29768945 96.57334427 -88.875 83.6875 C-87.00346245 80.83273155 -85.13075594 77.97873226 -83.25801086 75.12475586 C-82.04539949 73.27646697 -80.83330466 71.42783908 -79.62174988 69.57885742 C-75.75911371 63.6863626 -71.86903062 57.81319647 -67.95159912 51.95701599 C-65.43476002 48.19235849 -62.9456703 44.41087507 -60.47265625 40.6171875 C-24.64299416 -14.18004692 -24.64299416 -14.18004692 0 0 Z M-311.5625 465.875 C-311.2325 466.535 -310.9025 467.195 -310.5625 467.875 C-309.9025 467.545 -309.2425 467.215 -308.5625 466.875 C-309.5525 466.545 -310.5425 466.215 -311.5625 465.875 Z M-308.5625 467.875 C-304.34982388 472.30765134 -299.54395605 475.37588742 -294.4375 478.6875 C-293.05884766 479.60305664 -293.05884766 479.60305664 -291.65234375 480.53710938 C-290.77449219 481.10880859 -289.89664063 481.68050781 -288.9921875 482.26953125 C-288.19022949 482.79393799 -287.38827148 483.31834473 -286.56201172 483.85864258 C-285.90217285 484.19404053 -285.24233398 484.52943848 -284.5625 484.875 C-283.9025 484.545 -283.2425 484.215 -282.5625 483.875 C-285.24620015 481.95296984 -287.93513289 480.03838769 -290.625 478.125 C-291.37716797 477.58617187 -292.12933594 477.04734375 -292.90429688 476.4921875 C-300.16909723 470.67122392 -300.16909723 470.67122392 -308.5625 467.875 Z " fill="#78A2AC" transform="translate(821.5625,120.125)"/>
<path d="M0 0 C4.50533537 3.35523921 7.30782889 7.36137589 8.4375 12.875 C10.78039498 29.84425363 0.21689629 48.00241275 -6.5625 62.875 C-7.23055242 64.36584792 -7.89852839 65.85673012 -8.56640625 67.34765625 C-12.47341143 75.9560876 -16.86780124 84.25435609 -21.43701172 92.52758789 C-25.84710534 100.51910104 -30.12944902 108.57351427 -34.387146 116.64682007 C-44.31778819 135.4728568 -54.34164815 154.20078333 -65.1328125 172.55175781 C-71.58429577 183.55118231 -77.74514959 194.70835292 -83.90380859 205.87353516 C-85.34178055 208.47559981 -86.78682359 211.07341151 -88.23828125 213.66796875 C-102.6180821 239.37283908 -116.4419382 265.2343205 -128.27148438 292.22094727 C-131.6392925 299.88337632 -135.198624 307.40057765 -139.0390625 314.8359375 C-140.36470465 317.48042364 -141.51664342 320.11021082 -142.5625 322.875 C-143.2225 322.875 -143.8825 322.875 -144.5625 322.875 C-144.69785156 322.26914062 -144.83320312 321.66328125 -144.97265625 321.0390625 C-149.25881969 304.35639041 -162.46528751 294.69424465 -176.5625 286.125 C-177.57828125 285.49207031 -178.5940625 284.85914063 -179.640625 284.20703125 C-192.67266299 276.17060782 -203.16211908 271.75502177 -218.5625 270.875 C-217.18626354 266.87464427 -215.36113671 264.14862608 -212.625 260.9375 C-211.81675781 259.97070312 -211.00851562 259.00390625 -210.17578125 258.0078125 C-209.7473291 257.49637695 -209.31887695 256.98494141 -208.87744141 256.45800781 C-195.90031966 240.83534584 -184.2633834 224.17632057 -173.06942749 207.24813843 C-171.43889962 204.78260984 -169.80358824 202.32030919 -168.16723633 199.85864258 C-164.62843208 194.53333985 -161.09522094 189.2043395 -157.5625 183.875 C-153.22782508 177.33648841 -148.89014814 170.79999581 -144.54666138 164.26733398 C-142.80869071 161.65085757 -141.07501082 159.0315767 -139.34155273 156.41210938 C-131.51420288 144.61611957 -123.3430671 133.11020236 -114.96551514 121.69989014 C-105.8586394 109.28789439 -97.29707688 96.5724071 -88.875 83.6875 C-87.00346245 80.83273155 -85.13075594 77.97873226 -83.25801086 75.12475586 C-82.04539949 73.27646697 -80.83330466 71.42783908 -79.62174988 69.57885742 C-75.75911371 63.6863626 -71.86903062 57.81319647 -67.95159912 51.95701599 C-65.43476002 48.19235849 -62.9456703 44.41087507 -60.47265625 40.6171875 C-24.64299416 -14.18004692 -24.64299416 -14.18004692 0 0 Z " fill="#855C52" transform="translate(821.5625,120.125)"/>
<path d="M0 0 C0.33 0 0.66 0 1 0 C1.27789823 4.26110627 0.98009213 7.30304855 -0.5 11.3125 C-2.11844595 16.31426867 -2.33710095 21.03835394 -2.375 26.25 C-2.39530273 27.40302612 -2.39530273 27.40302612 -2.41601562 28.5793457 C-2.37816908 33.42107577 -1.81242937 36.89409046 1 41 C6.3119242 46.11581785 12.1157246 45.52506353 19.0625 45.5 C30.09647541 45.46033322 30.09647541 45.46033322 34.171875 47.89453125 C36.68827278 50.79269023 37.71331055 53.289527 38.34765625 57.07421875 C39.37106025 62.92649986 41.11084219 67.35672797 46 71 C53.30535559 74.67858331 60.44108494 74.44318992 68.5 74.5 C84.24638469 74.6110017 84.24638469 74.6110017 91 78 C94.61338513 81.79868693 96.13684501 84.28495873 96.0625 89.46484375 C96.05476562 90.34720703 96.04703125 91.22957031 96.0390625 92.13867188 C96.01307534 94.0006518 95.9870339 95.86263097 95.9609375 97.72460938 C95.95320312 98.60826172 95.94546875 99.49191406 95.9375 100.40234375 C95.92009766 101.61651978 95.92009766 101.61651978 95.90234375 102.85522461 C95.91081601 105.18703068 95.91081601 105.18703068 97 108 C99.06919326 109.13346586 99.06919326 109.13346586 102 110 C102.65742188 110.26039063 103.31484375 110.52078125 103.9921875 110.7890625 C116.34826325 115.24057801 130.94241662 114.10225729 142.8203125 108.72265625 C144.50981196 107.87298087 146.18671552 106.99730647 147.84375 106.0859375 C149.90401116 105.0483422 151.74824432 104.46058639 154 104 C149.24955601 117.30635118 139.49960122 128.79908594 130 139 C129.26112549 139.79664063 129.26112549 139.79664063 128.50732422 140.609375 C100.37922839 170.60277841 59.87800289 188.69892766 18.8828125 190.22265625 C-7.23016711 190.82894346 -41.11670905 188.8294875 -61.20703125 170.1484375 C-63.00965349 167.98843263 -63.73630971 166.77753768 -64 164 C-63 162 -63 162 -60 161 C-57.66788619 160.87139078 -55.33415696 160.7712044 -53 160.6875 C-43.75244523 160.15250828 -36.16812493 158.74776418 -29.5625 151.875 C-19.80908163 139.6682678 -19.73349564 124.55453162 -19.53668213 109.64599609 C-19.47361574 105.09682117 -19.3740415 100.54847787 -19.2734375 96 C-19.25320526 95.07840088 -19.23297302 94.15680176 -19.21212769 93.20727539 C-19.0178456 84.8624058 -18.6940626 76.52824288 -18.24291992 68.19335938 C-18.16599754 66.76257122 -18.09274483 65.33157966 -18.02368164 63.90039062 C-17.08615306 44.73721476 -14.46666725 14.46666725 0 0 Z " fill="#ED6C30" transform="translate(401,605)"/>
<path d="M0 0 C2.0859375 1.56640625 2.0859375 1.56640625 4.375 3.5625 C11.98811324 9.80658849 20.49107864 14.36828093 29.36547852 18.54272461 C41.32230357 24.21985427 52.1778922 31.71269611 63.13867188 39.078125 C65.47541166 40.64764851 67.82020161 42.20303609 70.171875 43.75 C76.44952495 47.95512437 82.04375044 52.50806494 87.4765625 57.765625 C89.82705299 59.84686426 91.92183161 61.02070146 94.6875 62.4375 C96.85656113 64.01540308 97.82661393 65.16948965 98.37890625 67.81494141 C99.8568118 82.55033148 96.88867345 98.14505164 92 112 C90.93798892 115.05595747 89.89482076 118.11719534 88.875 121.1875 C88.46338623 122.41871582 88.46338623 122.41871582 88.04345703 123.67480469 C86.38264206 128.92604612 85.7809462 133.25373106 85.875 138.75 C85.74824822 142.9279336 85.64922598 144.37509356 82.6015625 147.30859375 C79.46746624 149.20720874 76.40837951 150.66069759 73 152 C72.14664063 152.34417969 71.29328125 152.68835938 70.4140625 153.04296875 C58.54949614 157.35551591 43.73121399 158.0474182 32 153 C28.41822834 151.20911417 27.24175708 150.36263561 25 147 C24.83642578 144.91870117 24.83642578 144.91870117 24.9453125 142.54296875 C24.98205078 141.24456055 24.98205078 141.24456055 25.01953125 139.91992188 C25.08940444 138.10968869 25.16742685 136.29975027 25.25390625 134.49023438 C25.36060742 130.25670835 25.21078902 127.48219353 23.4921875 123.55078125 C17.47790681 117.39509898 10.57027537 117.69026041 2.42773438 117.57617188 C-0.14517147 117.56707115 -2.71809402 117.56185094 -5.29101562 117.56054688 C-14.40690088 117.42350143 -21.61948169 116.48868391 -28.375 110 C-31.49010112 106.05705009 -32.24916047 101.74532125 -33.06640625 96.8671875 C-34.36467387 92.88003924 -35.51289378 91.39522766 -39 89 C-42.97984731 88.34877296 -46.9123835 88.39167782 -50.9375 88.4375 C-63.98744704 88.53951402 -63.98744704 88.53951402 -69 84 C-74.25304109 76.39214738 -73.64988047 67.96193186 -73 59 C-72.41214071 56.19741501 -71.65094099 53.66366374 -70.671875 50.98046875 C-69.3384591 47.0499928 -69.71545695 43.85362916 -71 40 C-70.19175781 39.20335937 -69.38351562 38.40671875 -68.55078125 37.5859375 C-67.47121829 36.51576205 -66.39179887 35.44544179 -65.3125 34.375 C-64.51682617 33.59189453 -64.51682617 33.59189453 -63.70507812 32.79296875 C-61.13736671 30.24101017 -58.69686104 27.68299414 -56.43359375 24.85546875 C-52.58708804 20.34215307 -47.89451063 17.29031258 -43 14 C-42.31292969 13.52304687 -41.62585938 13.04609375 -40.91796875 12.5546875 C-35.2872111 9.02296968 -29.18933554 7.53436751 -22.81762695 5.88745117 C-17.06490376 4.38114208 -11.76352543 2.3803668 -6.3828125 -0.1796875 C-3.6323324 -1.12657409 -2.64371681 -1.15794796 0 0 Z " fill="#FEFEFE" transform="translate(471,563)"/>
<path d="M0 0 C5.99782807 0.40983845 10.96181177 2.36143032 16.4375 4.75 C17.33911865 5.14050537 18.2407373 5.53101074 19.16967773 5.93334961 C34.74589763 12.84264041 50.2112889 20.9396564 64 31 C64.99773437 31.71542969 65.99546875 32.43085937 67.0234375 33.16796875 C72.87761725 37.45169474 78.3791225 41.97320377 83.70703125 46.89453125 C85.74089454 48.76208204 87.82147023 50.5398422 89.9375 52.3125 C94.87982056 56.62196244 99.43540519 61.45141852 103.67211914 66.45581055 C104.9939884 68.03843483 104.9939884 68.03843483 106.56030273 69.52270508 C108.2136893 71.33605277 109.18827555 72.67555363 110 75 C109.58445541 79.14923795 108.18109502 82.81364753 106.6875 86.6875 C106.29667236 87.76169189 105.90584473 88.83588379 105.50317383 89.94262695 C104.37769309 92.98029415 103.20306208 95.99234479 102 99 C101.731875 99.68449219 101.46375 100.36898437 101.1875 101.07421875 C97.41637191 110.43775839 89.49691876 122.71622166 80 127 C70.02177116 128.30317457 62.42974353 126.75125148 54.5 120.75 C52.98950256 119.51270558 51.4895797 118.26239943 50 117 C49.22527344 116.35933594 48.45054687 115.71867188 47.65234375 115.05859375 C43.50882992 111.55816496 43.50882992 111.55816496 42 110 C42 109.34 42 108.68 42 108 C41.01 108 40.02 108 39 108 C39 107.34 39 106.68 39 106 C38.42217773 105.7306665 37.84435547 105.46133301 37.24902344 105.18383789 C34.96585671 103.9820277 33.05781962 102.63227627 31.015625 101.05859375 C23.30622843 95.19981059 15.65322737 89.48055193 7.1875 84.75 C6.5490918 84.39220459 5.91068359 84.03440918 5.25292969 83.66577148 C1.58481738 81.67895866 -2.04628576 80.29236396 -6 79 C-33.78306961 66.52902042 -33.78306961 66.52902042 -41 54 C-41.36867188 53.38253906 -41.73734375 52.76507812 -42.1171875 52.12890625 C-44.18486071 47.14270315 -43.96576583 40.81885965 -42.23046875 35.75390625 C-37.26693828 27.03703472 -28.5325092 21.18027138 -20.15625 16.1015625 C-13.15221632 11.43798562 -5.96293718 5.96293718 0 0 Z " fill="#77A2AC" transform="translate(508,504)"/>
<path d="M0 0 C10.29519595 7.33880522 16.65814381 18.3593762 19.3125 30.6484375 C19.67235605 34.16311927 19.69017582 37.61851503 19.625 41.1484375 C19.62822266 42.02113281 19.63144531 42.89382813 19.63476562 43.79296875 C19.52627973 57.1071473 15.91880037 69.04213713 6.3125 78.6484375 C-1.9420821 85.09336122 -9.57814359 88.22112412 -20.0625 88.0859375 C-20.90031006 88.07691406 -21.73812012 88.06789063 -22.60131836 88.05859375 C-33.9816243 87.74004694 -41.45863499 83.43519711 -49.6875 75.6484375 C-61.30219008 62.99172927 -65.25576637 46.72140487 -64.96484375 29.984375 C-64.48190575 18.98492144 -59.48861381 8.86229359 -51.4375 1.3984375 C-36.16479213 -10.81292581 -16.06383117 -10.29089185 0 0 Z " fill="#016CA1" transform="translate(193.6875,427.3515625)"/>
<path d="M0 0 C7.52961202 6.83770172 12.3411666 14.67139841 13.40625 24.90234375 C14.0543518 41.03330747 9.15918163 55.07535549 -1.3125 67.4375 C-9.43684071 75.9198625 -19.52614827 80.90796826 -31.3125 81.4375 C-42.77144477 81.03344694 -52.62682457 76.781966 -61 69 C-69.97603165 58.31687031 -71.8326741 46.66842387 -71 33 C-69.17028442 19.73875863 -62.38218862 8.38932269 -52 0 C-35.40450803 -11.4285578 -16.25938691 -13.169237 0 0 Z " fill="#BDCE45" transform="translate(199,312)"/>
<path d="M0 0 C6.38114942 4.55540681 11.5482253 9.92386186 15 17 C15.54720703 18.11375 15.54720703 18.11375 16.10546875 19.25 C18.55479262 26.77979915 18.08245987 37.57480728 15.09765625 44.86328125 C7.09101243 60.44916798 -4.68167682 71.68342313 -21.4375 77.5 C-30.83764906 80.0430355 -40.71090056 80.60535763 -49.6875 76.3828125 C-59.00425997 70.81164184 -63.74667797 63.8075715 -67.109375 53.6484375 C-70.06574574 41.53769069 -68.1553199 30.0400561 -61.9375 19.4375 C-48.79234834 -0.01951989 -22.0306646 -11.65594028 0 0 Z " fill="#FBC11B" transform="translate(255,201)"/>
<path d="M0 0 C0.68449219 0.40089844 1.36898437 0.80179687 2.07421875 1.21484375 C9.71731186 6.23744779 14.63442344 14.05648273 16.625 22.91162109 C18.58750015 33.84080489 17.63671676 43.30941137 12.11328125 52.97265625 C3.69868337 65.02683991 -9.63512304 71.14934121 -23.79394531 73.69091797 C-35.55728976 75.33903595 -47.213213 75.22267914 -57.1875 68.25 C-64.60305741 62.24973784 -70.1771837 55.42873292 -71.41796875 45.734375 C-71.91237049 33.60148903 -68.00351031 24.36796475 -60.140625 15.23828125 C-46.11725025 0.57515401 -19.11088703 -12.02440427 0 0 Z " fill="#ED6C2F" transform="translate(354,127)"/>
<path d="M0 0 C5.99782807 0.40983845 10.96181177 2.36143032 16.4375 4.75 C17.33911865 5.14050537 18.2407373 5.53101074 19.16967773 5.93334961 C34.74589763 12.84264041 50.2112889 20.9396564 64 31 C64.99773437 31.71542969 65.99546875 32.43085937 67.0234375 33.16796875 C72.87761725 37.45169474 78.3791225 41.97320377 83.70703125 46.89453125 C85.74089454 48.76208204 87.82147023 50.5398422 89.9375 52.3125 C94.87966743 56.62182891 99.43613119 61.45105345 103.671875 66.45605469 C104.99370481 68.0387493 104.99370481 68.0387493 106.5625 69.52050781 C108.22119737 71.33566542 109.19249542 72.6686076 110 75 C109.55938407 79.16976903 108.13114475 82.85630102 106.625 86.75 C106.26277344 87.7709375 105.90054688 88.791875 105.52734375 89.84375 C103.0380984 96.72629503 100.11922148 103.38208174 97 110 C96.34 110 95.68 110 95 110 C94.29037109 108.35064453 94.29037109 108.35064453 93.56640625 106.66796875 C89.42243567 97.30157623 84.9813554 89.60710079 78 82 C77.31808594 81.20078125 76.63617187 80.4015625 75.93359375 79.578125 C71.64217082 74.5728646 67.11377852 70.15548953 62 66 C61.08863281 65.25105469 60.17726563 64.50210938 59.23828125 63.73046875 C33.80797329 43.46918198 3.37502684 27.45003522 -29 23 C-26.22915892 19.93228309 -22.87279976 17.7189484 -19.5 15.375 C-9.30166306 8.23437572 -9.30166306 8.23437572 0 0 Z " fill="#303030" transform="translate(508,504)"/>
</svg>
