<?xml version="1.0" encoding="UTF-8"?>
<svg version="1.1" xmlns="http://www.w3.org/2000/svg" width="300" height="302">
<path d="M0 0 C0.72654785 -0.01580109 1.4530957 -0.03160217 2.20166016 -0.04788208 C18.13668848 -0.3197509 29.95147398 5.54772112 43.5625 13.375 C44.63387207 13.98327637 45.70524414 14.59155273 46.80908203 15.21826172 C55.71818341 20.31733167 64.41293157 25.71144795 73.02978516 31.28662109 C75.36424114 32.78316967 77.71563903 34.24883417 80.07421875 35.70703125 C90.45480907 42.13793354 100.46470242 48.94003395 110.26269531 56.22900391 C112.20474885 57.67004649 114.1594616 59.09208427 116.1171875 60.51171875 C123.25976101 65.75737002 131.15141145 71.6734281 133.3125 80.75 C134.99159657 96.65562384 127.92041537 113.75260795 123.5625 128.8125 C123.23702179 129.941185 122.91154358 131.06987 122.57620239 132.23275757 C117.79005175 148.78484368 112.70963262 165.22020088 107.25 181.5625 C106.94316284 182.48386749 106.63632568 183.40523499 106.32019043 184.35452271 C102.66076897 195.3036092 98.76749848 206.09739875 94.3125 216.75 C93.82777222 217.91752808 93.82777222 217.91752808 93.33325195 219.10864258 C92.59374933 220.83927649 91.80005934 222.54651448 91 224.25 C90.50886719 225.3328125 90.01773438 226.415625 89.51171875 227.53125 C70.11305827 255.92289518 10.38989675 267.68361164 -20.30859375 278.01953125 C-21.04028275 278.26778152 -21.77197174 278.5160318 -22.52583313 278.77180481 C-32.03694836 281.94726952 -42.65212455 285.44145165 -52.46484375 281.6875 C-57.50868156 278.82751184 -61.59014228 275.2243214 -65.5078125 270.97265625 C-68.06797184 268.36202781 -70.79805485 266.00626414 -73.56005859 263.61254883 C-76.921682 260.66948881 -80.18179748 257.62176907 -83.4375 254.5625 C-84.12706787 253.91466553 -84.81663574 253.26683105 -85.52709961 252.59936523 C-93.53471023 245.04583738 -101.52007247 237.45800298 -108.65625 229.0625 C-110.94793893 226.45350029 -113.32091191 223.93273263 -115.70410156 221.4074707 C-121.99865167 214.73501605 -127.97831483 207.93502896 -133.6875 200.75 C-134.72226876 199.49339846 -135.75885052 198.23828848 -136.796875 196.984375 C-137.88564274 195.65643533 -138.97418584 194.32831143 -140.0625 193 C-140.57506348 192.38576172 -141.08762695 191.77152344 -141.61572266 191.13867188 C-142.10089355 190.54119141 -142.58606445 189.94371094 -143.0859375 189.328125 C-143.51567871 188.80637695 -143.94541992 188.28462891 -144.38818359 187.74707031 C-149.4128057 180.02414494 -148.92635894 173.41305612 -148.46484375 164.4140625 C-148.40323798 162.98829683 -148.34285514 161.56247786 -148.28361511 160.13661194 C-148.12047279 156.33368393 -147.93493809 152.53218128 -147.742836 148.73061752 C-147.62483755 146.3717526 -147.51234674 144.01268633 -147.40155029 141.6534729 C-144.20117825 73.78493813 -144.20117825 73.78493813 -136.6875 44.75 C-136.3328064 43.33170898 -136.3328064 43.33170898 -135.97094727 41.88476562 C-134.02841167 34.37438456 -131.96644623 27.77379271 -125.6875 22.75 C-122.7774966 21.25174668 -119.7671008 20.22286654 -116.66015625 19.20703125 C-115.7798172 18.91047134 -114.89947815 18.61391144 -113.99246216 18.30836487 C-104.49871921 15.20750652 -94.85425407 13.09748207 -85.0625 11.1875 C-84.12639893 11.00156281 -83.19029785 10.81562561 -82.22583008 10.62405396 C-55.03997214 5.24054318 -27.78154849 0.30297929 0 0 Z " fill="#ECECEC" transform="translate(157.6875,9.25)"/>
<path d="M0 0 C3.10879785 1.71801987 5.38626778 3.77253556 7 7 C8.26286692 16.05655989 5.37453475 23.81829055 0.4609375 31.36328125 C-4.37829416 37.45245663 -10.61117212 41.15599464 -18.25 42.625 C-22.20422669 41.72631211 -24.19109655 39.87274216 -27 37 C-29.62024334 32.71232908 -29.8470796 27.8707077 -29 23 C-24.21042647 10.7617066 -15.13400985 -3.51416839 0 0 Z " fill="#030303" transform="translate(180,215)"/>
<path d="M0 0 C2.89683868 2.2015974 4.39297231 3.78594462 6 7 C7.02564654 15.59189151 5.19749767 23.46385362 0.19921875 30.5546875 C-4.3152308 35.90189959 -8.56793701 40.27731152 -15.70703125 41.44140625 C-20.47081175 41.74113541 -23.16166887 41.55888742 -27.1875 38.875 C-30.56399962 33.65564894 -29.79221438 26.88316582 -29 21 C-26.73021498 13.39934376 -21.91957233 8.08961167 -16 3 C-15.236875 2.34 -14.47375 1.68 -13.6875 1 C-9.18530974 -0.67523358 -4.72425432 -0.78028224 0 0 Z " fill="#030303" transform="translate(253,124)"/>
<path d="M0 0 C5.16414635 1.22539066 8.26144255 2.84253494 11.359375 7.2578125 C16.11026423 15.01759824 17.36227758 20.76550273 16.6875 29.875 C15.487361 33.29539615 14.33175254 35.1617204 11.9375 37.8125 C8.37475648 39.49490666 6.44561505 39.00243451 2.6875 37.875 C-4.24255132 33.6589992 -8.11492782 27.59182028 -10.3125 19.875 C-11.06813806 14.45847939 -11.50786844 9.04160438 -8.5 4.25 C-5.6232242 1.12664341 -4.33314549 -0.16351492 0 0 Z " fill="#030303" transform="translate(83.3125,211.125)"/>
<path d="M0 0 C4.73930875 0.1378708 7.30740068 2.20315027 10.609375 5.453125 C15.76165175 11.60849988 17.04344594 17.74006786 16.76953125 25.68359375 C16.2041081 29.80950326 14.91653529 33.24745397 12.375 36.5625 C8.57093784 39.09854144 6.88991096 39.16448813 2.375 38.5625 C-2.93849345 35.44539841 -6.03777327 31.03547961 -8.625 25.5625 C-10.08359831 19.68894977 -11.1116918 12.24752281 -8.80078125 6.51953125 C-6.29122216 2.74119879 -4.51279036 0.70026057 0 0 Z " fill="#040404" transform="translate(62.625,146.4375)"/>
<path d="M0 0 C4.99511311 0.84662934 7.47205855 2.78079648 10.6875 6.625 C15.03709998 13.11102114 15.71050897 19.98788357 14.6875 27.625 C13.24384059 32.48414631 11.9627218 35.77485214 7.6875 38.625 C4.44108438 39.16606927 2.76524018 39.4438483 -0.3125 38.625 C-5.94537669 34.41986235 -9.09409335 28.45246787 -10.3125 21.625 C-11.08822687 13.78032548 -10.29981684 8.67921571 -5.5625 2.25 C-3.3125 0.625 -3.3125 0.625 0 0 Z " fill="#030303" transform="translate(43.3125,82.375)"/>
<path d="M0 0 C2.41602445 1.5534651 3.69776013 2.97836297 5.19921875 5.4140625 C5.60820894 8.20882883 5.65195851 9.69500524 4.13671875 12.1015625 C-1.44570542 15.88320468 -8.28523657 16.1544653 -14.80078125 15.4140625 C-22.04798154 13.78713999 -29.11322493 11.48384697 -33.80078125 5.4140625 C-34.98828125 2.2890625 -34.98828125 2.2890625 -34.80078125 -0.5859375 C-26.78068259 -11.18392501 -9.75877466 -4.7491682 0 0 Z " fill="#070707" transform="translate(166.80078125,86.5859375)"/>
<path d="M0 0 C3.4375 2 3.4375 2 6 4 C6.928125 4.7115625 6.928125 4.7115625 7.875 5.4375 C9.5249109 7.72904292 9.41257872 9.24947518 9 12 C7.35490179 14.61280305 5.78346979 15.08228148 2.875 16.1875 C-7.92511386 18.45204 -17.15237827 16.1976598 -26.40625 10.28125 C-28 9 -28 9 -30 6 C-30 2.4472967 -29.23634955 1.24291482 -26.75 -1.3125 C-19.08556665 -5.84483318 -7.7223713 -3.30159353 0 0 Z " fill="#060606" transform="translate(101,39)"/>
<path d="M0 0 C3.0336707 1.51921657 5.54022142 2.89714786 7.6875 5.5625 C8.08581203 8.74899624 8.29298083 10.6845528 6.4375 13.375 C1.17951761 16.94291662 -6.28386772 16.04615299 -12.3125 15.5625 C-19.11959331 14.03722301 -26.00273619 11.30412613 -30.3125 5.5625 C-31 2.375 -31 2.375 -30.3125 -0.4375 C-22.35180799 -8.39819201 -8.83459098 -4.24469494 0 0 Z " fill="#060606" transform="translate(236.3125,67.4375)"/>
<path d="M0 0 C4.00712098 1.95168838 7.83200836 3.83200836 11 7 C11.375 9.9375 11.375 9.9375 11 13 C7.47205987 16.52794013 3.77815534 17.16642034 -1.0625 17.25 C-9.99688249 17.14391894 -17.94455487 14.58172291 -25 9 C-26.43060128 6.13879744 -26.38692581 4.15989415 -26 1 C-18.94145971 -4.54322063 -8.00776718 -2.80271851 0 0 Z " fill="#0C0C0C" transform="translate(171,22)"/>
<path d="M0 0 C0.33 0 0.66 0 1 0 C1.01458252 0.75095947 1.02916504 1.50191895 1.04418945 2.27563477 C1.11903598 5.70508662 1.21557654 9.13360395 1.3125 12.5625 C1.33505859 13.74392578 1.35761719 14.92535156 1.38085938 16.14257812 C1.88709094 32.57209345 11.2039079 42.2976666 22 54 C23.1089583 55.26665421 24.21337605 56.53730279 25.3125 57.8125 C31.70961983 65.149057 38.26714822 72.40334726 45.25 79.1875 C48 82 48 82 48 84 C48.66 84 49.32 84 50 84 C51.41015625 85.43359375 51.41015625 85.43359375 53.0625 87.4375 C58.86256571 94.24836555 65.19267968 100.39158283 71.98828125 106.19921875 C74.16319535 108.14608361 76.16459639 110.20853286 78.1875 112.3125 C81.82993288 115.99927554 85.66158479 119.26685694 89.75 122.4375 C90.29293701 122.86264893 90.83587402 123.28779785 91.39526367 123.72583008 C97.04034701 128.01623218 101.89901712 129.93180318 109 129 C112.29489831 128.17885225 115.55777583 127.31603558 118.80810547 126.33544922 C123.69632136 124.89877379 123.69632136 124.89877379 127 126 C105.22556043 133.82649946 105.22556043 133.82649946 95.25390625 129.92578125 C90.1776917 127.10566205 86.10120721 123.47849906 82.1796875 119.22265625 C79.61952816 116.61202781 76.88944515 114.25626414 74.12744141 111.86254883 C70.765818 108.91948881 67.50570252 105.87176907 64.25 102.8125 C63.56043213 102.16466553 62.87086426 101.51683105 62.16040039 100.84936523 C54.15278977 93.29583738 46.16742753 85.70800298 39.03125 77.3125 C36.73956107 74.70350029 34.36658809 72.18273263 31.98339844 69.6574707 C25.68884833 62.98501605 19.70918517 56.18502896 14 49 C12.96523124 47.74339846 11.92864948 46.48828848 10.890625 45.234375 C9.80185726 43.90643533 8.71331416 42.57831143 7.625 41.25 C7.11243652 40.63576172 6.59987305 40.02152344 6.07177734 39.38867188 C-1.08411017 30.57630692 -1.35054929 24.25219029 -0.6875 13.0625 C-0.62626953 11.80630859 -0.56503906 10.55011719 -0.50195312 9.25585938 C-0.34939553 6.16950183 -0.18164357 3.08475958 0 0 Z " fill="#A7A7A7" transform="translate(10,161)"/>
<path d="M0 0 C20.64366057 -0.90316015 44.04339781 18.79376067 60.68505859 29.52050781 C63.03400952 31.02173567 65.39847183 32.49491054 67.76953125 33.9609375 C78.14681055 40.39155562 88.15456024 47.19178799 97.95019531 54.47900391 C99.89224885 55.92004649 101.8469616 57.34208427 103.8046875 58.76171875 C110.94726101 64.00737002 118.83891145 69.9234281 121 79 C121.14458409 82.3409253 121.11678414 85.6586759 121 89 C120.01 89.495 120.01 89.495 119 90 C118.97421875 89.29875 118.9484375 88.5975 118.921875 87.875 C118.38069898 78.82260118 116.94955205 73.43075962 110.08911133 67.23901367 C94.41061944 53.78138052 76.47470224 42.9171702 59 32 C57.82006005 31.25560835 56.6403351 30.51087565 55.4609375 29.765625 C28.9596775 12.80299827 28.9596775 12.80299827 0 1 C0 0.67 0 0.34 0 0 Z " fill="#9F9F9F" transform="translate(170,11)"/>
<path d="M0 0 C0 0.33 0 0.66 0 1 C-1.08901611 1.1451001 -2.17803223 1.2902002 -3.30004883 1.43969727 C-50.78934634 7.71768287 -50.78934634 7.71768287 -97 20 C-98.73830078 20.57814453 -98.73830078 20.57814453 -100.51171875 21.16796875 C-101.74341797 21.57982422 -101.74341797 21.57982422 -103 22 C-103 22.66 -103 23.32 -103 24 C-103.7425 24.639375 -104.485 25.27875 -105.25 25.9375 C-113.21194347 33.80973143 -113.74740945 48.17263349 -115.58276367 58.67919922 C-116.02274889 61.12653653 -116.50525205 63.56319781 -117 66 C-117.33 66 -117.66 66 -118 66 C-118.55147539 52.17969252 -116.03780316 35.22241478 -107.84375 23.8203125 C-97.09879032 13.21194129 -76.71862326 11.138922 -62.5625 8.375 C-60.6098159 7.98599622 -58.65717959 7.59675247 -56.70458984 7.20727539 C-15.24144611 -0.99762193 -15.24144611 -0.99762193 0 0 Z " fill="#818181" transform="translate(136,12)"/>
<path d="M0 0 C1 3 1 3 0.171875 5.015625 C-3.6839861 11.0748353 -7.82592494 14.52650538 -14.09912109 17.95556641 C-15.44930096 18.69741966 -16.78991438 19.45680264 -18.12353516 20.22802734 C-31.36508161 27.86706136 -45.13466071 33.65633941 -59.375 39.125 C-60.22960815 39.45459717 -61.08421631 39.78419434 -61.96472168 40.1237793 C-64.43919928 41.07364599 -66.91763498 42.01210287 -69.3984375 42.9453125 C-70.13212555 43.22500885 -70.8658136 43.5047052 -71.62173462 43.7928772 C-76.67039596 45.66374039 -81.72027434 46.95407226 -87 48 C-84.66688598 45.66688598 -82.95219831 45.1256654 -79.84765625 44.0390625 C-78.77451172 43.65621094 -77.70136719 43.27335937 -76.59570312 42.87890625 C-75.42974609 42.46511719 -74.26378906 42.05132812 -73.0625 41.625 C-55.00673748 35.06806 -37.40474219 27.47272121 -20.3125 18.6875 C-19.57708984 18.31560547 -18.84167969 17.94371094 -18.08398438 17.56054688 C-10.1116123 13.33288638 -3.99300124 8.15237753 0 0 Z " fill="#B4B4B4" transform="translate(248,230)"/>
<path d="M0 0 C-4.625 4.875 -4.625 4.875 -8 6 C-8.55373345 16.81318384 -7.85729438 24.42838202 -1 33 C-1 33.66 -1 34.32 -1 35 C0.32 35.66 1.64 36.32 3 37 C2.01 37.495 2.01 37.495 1 38 C-5.69405293 33.13310792 -9.71368632 28.02843791 -12 20 C-12.75563806 14.58347939 -13.19536844 9.16660438 -10.1875 4.375 C-6.8289521 0.72857657 -4.86715937 -0.2630897 0 0 Z " fill="#3D3D3D" transform="translate(85,211)"/>
<path d="M0 0 C0.66 0.33 1.32 0.66 2 1 C1.525625 1.598125 1.05125 2.19625 0.5625 2.8125 C-3.23523398 8.12932757 -2.5360152 14.74890387 -2 21 C-0.5603042 25.95340881 1.78652423 29.98315528 5 34 C5 34.66 5 35.32 5 36 C5.99 36.33 6.98 36.66 8 37 C7.01 37.495 7.01 37.495 6 38 C-0.47160156 33.03722689 -4.69052718 28.32188332 -6 20 C-6.93541826 8.60629887 -6.93541826 8.60629887 -4.125 4.375 C-2.78851934 2.88128632 -1.41727928 1.41727928 0 0 Z " fill="#373737" transform="translate(59,147)"/>
<path d="M0 0 C0.33 0 0.66 0 1 0 C1.01458252 0.75095947 1.02916504 1.50191895 1.04418945 2.27563477 C1.11903598 5.70508662 1.21557654 9.13360395 1.3125 12.5625 C1.33505859 13.74392578 1.35761719 14.92535156 1.38085938 16.14257812 C1.85436586 31.51001599 9.68091816 40.76847621 20.01953125 51.7109375 C22.01264926 54.01462024 23.51411435 56.34696758 25 59 C16.93170702 55.49666226 11.80245006 46.56987644 6.625 39.75 C6.10099609 39.06470215 5.57699219 38.3794043 5.03710938 37.67333984 C4.54275391 37.01285645 4.04839844 36.35237305 3.5390625 35.671875 C3.09771973 35.0850293 2.65637695 34.49818359 2.20166016 33.89355469 C-0.64999059 29.3999742 -1.22738255 25.89777178 -0.9765625 20.60546875 C-0.925 19.40341797 -0.8734375 18.20136719 -0.8203125 16.96289062 C-0.75585938 15.71701172 -0.69140625 14.47113281 -0.625 13.1875 C-0.56828125 11.92228516 -0.5115625 10.65707031 -0.453125 9.35351562 C-0.31191298 6.23508354 -0.16052192 3.11748795 0 0 Z " fill="#959595" transform="translate(10,161)"/>
<path d="M0 0 C0.66 0.33 1.32 0.66 2 1 C1.360625 1.7425 0.72125 2.485 0.0625 3.25 C-4.42507513 9.2334335 -3.45211923 16.8154144 -3 24 C-1.80000648 29.3857977 1.73157804 33.6715493 5 38 C0.15966424 36.20728305 -2.77504478 32.49851976 -4.984375 27.9921875 C-7.63779768 21.00817874 -8.32470002 13.64292504 -5.75 6.5625 C-4.03468567 4.05078973 -2.2619678 2.02797113 0 0 Z " fill="#494949" transform="translate(40,83)"/>
<path d="M0 0 C0.86778 2.94377675 1.03384943 5.38229603 0.875 8.4375 C0.82199167 12.46613271 1.44703632 14.75969994 4 18 C5.88846183 20.32866229 5.88846183 20.32866229 9.0390625 20.1953125 C10.81410156 20.16050781 10.81410156 20.16050781 12.625 20.125 C13.81351563 20.10695312 15.00203125 20.08890625 16.2265625 20.0703125 C17.59941406 20.03550781 17.59941406 20.03550781 19 20 C14.91671942 23.39965442 11.30288532 24.45952213 6 24 C2.61835408 22.38424529 0.57568196 19.94202502 -1.375 16.75 C-2.68866304 10.96988264 -2.76648799 5.36007049 0 0 Z " fill="#414141" transform="translate(153,233)"/>
<path d="M0 0 C0.33 0 0.66 0 1 0 C1.35366508 10.06471861 0.25011965 19.79099316 -1 29.75 C-1.19336455 31.33325333 -1.38607731 32.9165864 -1.578125 34.5 C-2.0445894 38.33429228 -2.519808 42.16740374 -3 46 C-3.33 46 -3.66 46 -4 46 C-4.2219936 36.58993776 -4.00338507 27.31388559 -3.125 17.9375 C-3.04652832 17.07036377 -2.96805664 16.20322754 -2.88720703 15.30981445 C-2.35783295 10.0399514 -1.40524594 5.10730142 0 0 Z " fill="#A4A4A4" transform="translate(17,80)"/>
<path d="M0 0 C0.88751953 0.30744141 0.88751953 0.30744141 1.79296875 0.62109375 C2.58316406 0.89050781 3.37335938 1.15992188 4.1875 1.4375 C5.35345703 1.83775391 5.35345703 1.83775391 6.54296875 2.24609375 C11.73155565 3.83814029 16.59173545 4.15493504 22 4.125 C22.69867188 4.12886719 23.39734375 4.13273437 24.1171875 4.13671875 C27.87074298 4.12963657 31.35151145 3.89787023 35 3 C32.82764558 6.25853163 31.74444746 6.74696322 28.046875 7.6484375 C17.74193702 9.4183696 8.69750766 6.48321135 0 1 C0 0.67 0 0.34 0 0 Z " fill="#484848" transform="translate(74,48)"/>
<path d="M0 0 C0.66 0.33 1.32 0.66 2 1 C1 4 1 4 -1.3125 6 C-9.23171585 13.82819038 -9.75795422 28.23299749 -11.58276367 38.67919922 C-12.02274889 41.12653653 -12.50525205 43.56319781 -13 46 C-13.33 46 -13.66 46 -14 46 C-14.57912026 31.48689526 -12.00227737 13.11084211 -2 2 C-1.34 1.34 -0.68 0.68 0 0 Z " fill="#9A9A9A" transform="translate(32,32)"/>
<path d="M0 0 C1.125 3.75 1.125 3.75 0 6 C-0.58816159 10.82099665 -0.44590263 14.16764843 1.875 18.5 C3.75224663 21.03939918 3.75224663 21.03939918 6 22 C10.53113746 22.14856188 14.57882704 22.10529324 19 21 C15.64407226 24.50846991 13.55153814 25.22029667 8.6875 25.4375 C4.63184153 25.3576642 3.27994085 25.18662723 -0.1875 22.875 C-3.53691548 17.81447008 -2.63982471 10.75842243 -2 5 C-0.97265625 2.06640625 -0.97265625 2.06640625 0 0 Z " fill="#4D4D4D" transform="translate(226,140)"/>
<path d="M0 0 C1.88525391 0.24556641 1.88525391 0.24556641 3.80859375 0.49609375 C9.23638634 1.09918182 14.60720338 1.11185202 20.0625 1.0625 C21.50399414 1.05573242 21.50399414 1.05573242 22.97460938 1.04882812 C25.31647422 1.03717706 27.65820181 1.02082025 30 1 C29 3 29 3 26.0625 4.125 C16.64061966 6.49962025 8.90566594 4.42761026 0 1 C0 0.67 0 0.34 0 0 Z " fill="#444444" transform="translate(140,97)"/>
<path d="M0 0 C5.0578162 1.97378193 7.69626295 4.66888312 11.05859375 8.73828125 C13.89473383 12.04235591 17.03681123 15.00982771 20.1796875 18.01953125 C22 20 22 20 23 23 C19.46183947 21.48968674 17.16633853 19.42406644 14.453125 16.71875 C13.60878906 15.87699219 12.76445313 15.03523438 11.89453125 14.16796875 C11.02183594 13.28753906 10.14914063 12.40710938 9.25 11.5 C8.36183594 10.61957031 7.47367188 9.73914063 6.55859375 8.83203125 C5.29982422 7.56939453 5.29982422 7.56939453 4.015625 6.28125 C3.24508789 5.50845703 2.47455078 4.73566406 1.68066406 3.93945312 C0 2 0 2 0 0 Z " fill="#BCBCBC" transform="translate(54,242)"/>
<path d="M0 0 C0.99 0.4021875 0.99 0.4021875 2 0.8125 C4.34969008 1.74258566 6.70134426 2.66217146 9.0625 3.5625 C9.71347656 3.81128906 10.36445313 4.06007813 11.03515625 4.31640625 C15.72739372 5.94889444 20.31227293 6.29642107 25.25 6.5625 C25.99507812 6.60568359 26.74015625 6.64886719 27.5078125 6.69335938 C29.338349 6.79896725 31.16915176 6.89994201 33 7 C27.05199416 10.58313605 19.4212645 9.79215761 12.87890625 8.27734375 C7.41435909 6.44594192 3.62868136 4.50456996 0 0 Z " fill="#454545" transform="translate(208,74)"/>
<path d="M0 0 C5.42720409 -0.30458798 9.05940579 0.52232136 14 2.75 C14.6086792 3.02368408 15.2173584 3.29736816 15.84448242 3.5793457 C20.05928903 5.49968134 24.15874691 7.40938745 28 10 C28.33 10.99 28.66 11.98 29 13 C23.28936312 11.28948162 18.26177483 8.68030419 13.00976562 5.921875 C8.72838551 3.72166432 4.67299933 2.16977297 0 1 C0 0.67 0 0.34 0 0 Z " fill="#9A9A9A" transform="translate(170,11)"/>
<path d="M0 0 C-4.625 4.875 -4.625 4.875 -8 6 C-9.97575215 8.98378896 -10.3468067 11.72621821 -10.625 15.25 C-10.73714844 16.58804688 -10.73714844 16.58804688 -10.8515625 17.953125 C-10.90054688 18.62859375 -10.94953125 19.3040625 -11 20 C-11.33 20 -11.66 20 -12 20 C-12.68860423 8.1789608 -12.68860423 8.1789608 -10.1875 4.375 C-6.8289521 0.72857657 -4.86715937 -0.2630897 0 0 Z " fill="#4A4A4A" transform="translate(85,211)"/>
<path d="M0 0 C0.66 0.33 1.32 0.66 2 1 C1.3503125 1.8353125 1.3503125 1.8353125 0.6875 2.6875 C0.130625 3.450625 -0.42625 4.21375 -1 5 C-1.53625 5.70125 -2.0725 6.4025 -2.625 7.125 C-4.45351332 10.94825512 -4.10101469 14.21760678 -3.6875 18.3125 C-3.5956543 19.42334961 -3.5956543 19.42334961 -3.50195312 20.55664062 C-3.34966223 22.37241672 -3.17687934 24.18645401 -3 26 C-3.66 25.67 -4.32 25.34 -5 25 C-6.58963101 19.24656133 -7.4448255 11.58124994 -5.17578125 5.95703125 C-3.69157168 3.72244064 -1.8926448 1.8926448 0 0 Z " fill="#595959" transform="translate(59,147)"/>
<path d="M0 0 C4.43170173 1.51896368 8.03024076 3.92639809 11.8125 6.625 C12.40998047 7.04523437 13.00746094 7.46546875 13.62304688 7.8984375 C15.08520565 8.92779728 16.54304899 9.9632823 18 11 C16.41796875 11.765625 16.41796875 11.765625 14 12 C11.59282404 10.67149752 9.51672093 9.35617649 7.3125 7.75 C6.71888672 7.34136719 6.12527344 6.93273438 5.51367188 6.51171875 C1.13552685 3.40658054 1.13552685 3.40658054 0 0 Z " fill="#A7A7A7" transform="translate(241,48)"/>
<path d="M0 0 C4.50343911 0.5112012 6.87525426 2.17521358 10.3125 5.0625 C11.19550781 5.79597656 12.07851563 6.52945313 12.98828125 7.28515625 C13.65214844 7.85105469 14.31601562 8.41695312 15 9 C14.67 9.66 14.34 10.32 14 11 C11.6638026 9.35810616 9.33099647 7.7117475 7 6.0625 C6.33226562 5.59392578 5.66453125 5.12535156 4.9765625 4.64257812 C3.29970233 3.45337627 1.64761213 2.22940446 0 1 C0 0.67 0 0.34 0 0 Z " fill="#989898" transform="translate(257,60)"/>
<path d="M0 0 C1.26582219 3.86723631 1.1118765 7.73151262 1.0625 11.75 C1.05798828 12.44738281 1.05347656 13.14476562 1.04882812 13.86328125 C1.0371002 15.57555803 1.01916653 17.28779033 1 19 C-1.9020017 16.0979983 -2.15390251 13.56262564 -2.1875 9.625 C-2.15792434 5.99902436 -1.68823667 3.27095855 0 0 Z " fill="#585858" transform="translate(153,233)"/>
<path d="M0 0 C5.09210286 3.56320845 9.22660027 7.04741286 13 12 C10 12 10 12 8.02734375 10.28515625 C7.33769531 9.55167969 6.64804688 8.81820313 5.9375 8.0625 C3.26299207 5.13565586 3.26299207 5.13565586 0 3 C0 2.01 0 1.02 0 0 Z " fill="#B5B5B5" transform="translate(88,274)"/>
<path d="M0 0 C4.99005032 0.46781722 9.15195521 2.88919744 13 6 C13.33 6.99 13.66 7.98 14 9 C10.40241608 7.67726488 7.36262865 6.0805802 4.1875 3.9375 C3.39730469 3.41027344 2.60710937 2.88304687 1.79296875 2.33984375 C1.20128906 1.89769531 0.60960937 1.45554688 0 1 C0 0.67 0 0.34 0 0 Z " fill="#909090" transform="translate(228,41)"/>
<path d="M0 0 C4.97209562 1.76429199 9.43438061 4.3939166 14 7 C12 8 12 8 10.1953125 7.58203125 C5.96562389 6.00986397 2.90070641 4.62588301 0 1 C0 0.67 0 0.34 0 0 Z " fill="#AFAFAF" transform="translate(198,22)"/>
<path d="M0 0 C0.66 0.33 1.32 0.66 2 1 C-2.56327794 4.53286034 -6.49633208 4.32374517 -12 4 C-12.33 3.01 -12.66 2.02 -13 1 C-12.31292969 1.01160156 -11.62585938 1.02320313 -10.91796875 1.03515625 C-9.56638672 1.04869141 -9.56638672 1.04869141 -8.1875 1.0625 C-6.84751953 1.07990234 -6.84751953 1.07990234 -5.48046875 1.09765625 C-2.86586209 1.11009967 -2.86586209 1.11009967 0 0 Z " fill="#383838" transform="translate(243,161)"/>
<path d="M0 0 C1.46300982 0.93018526 2.92025579 1.86944027 4.375 2.8125 C5.18710937 3.33457031 5.99921875 3.85664062 6.8359375 4.39453125 C9 6 9 6 11 9 C5.95030484 8.55443866 3.52381313 6.44186399 0 3 C0 2.01 0 1.02 0 0 Z " fill="#A9A9A9" transform="translate(272,69)"/>
<path d="M0 0 C0.66 0.33 1.32 0.66 2 1 C1.484375 1.391875 0.96875 1.78375 0.4375 2.1875 C-1.24264173 3.93296982 -1.24264173 3.93296982 -1.0625 6.4375 C0.41825089 10.00872273 2.71722884 11.11415274 6 13 C5.01 13.495 5.01 13.495 4 14 C-1.875 10.25 -1.875 10.25 -3 8 C-3.25 5 -3.25 5 -3 2 C-2.01 1.34 -1.02 0.68 0 0 Z " fill="#393939" transform="translate(148,21)"/>
<path d="M0 0 C3.78205128 4.53846154 3.78205128 4.53846154 5.0625 7.25 C5.93497944 9.35994637 5.93497944 9.35994637 9 10 C8.01 10.495 8.01 10.495 7 11 C0.13785558 5.9059081 0.13785558 5.9059081 -0.4375 2.125 C-0.2209375 1.073125 -0.2209375 1.073125 0 0 Z " fill="#454545" transform="translate(58,174)"/>
<path d="M0 0 C4.29238623 1.65091778 6.8793915 4.73754566 10 8 C9.67 8.66 9.34 9.32 9 10 C7.49410612 8.71520959 5.99542625 7.42195918 4.5 6.125 C3.6646875 5.40570313 2.829375 4.68640625 1.96875 3.9453125 C1.3190625 3.30335938 0.669375 2.66140625 0 2 C0 1.34 0 0.68 0 0 Z " fill="#A5A5A5" transform="translate(48,235)"/>
<path d="M0 0 C1.70884005 1.62339805 3.37446717 3.29319053 5 5 C5 5.66 5 6.32 5 7 C6.32 7.66 7.64 8.32 9 9 C8.01 9.495 8.01 9.495 7 10 C1.21538462 5.69230769 1.21538462 5.69230769 0.125 2.1875 C0.08375 1.465625 0.0425 0.74375 0 0 Z " fill="#363636" transform="translate(79,239)"/>
<path d="M0 0 C0.66 0.33 1.32 0.66 2 1 C-0.97 3.97 -3.94 6.94 -7 10 C-7 7 -7 7 -4.625 4.4375 C-3.75875 3.633125 -2.8925 2.82875 -2 2 C-1.34 1.34 -0.68 0.68 0 0 Z " fill="#202020" transform="translate(165,218)"/>
<path d="M0 0 C0.66 0.33 1.32 0.66 2 1 C1.3503125 1.8353125 1.3503125 1.8353125 0.6875 2.6875 C-1.03504767 5.04802829 -2.52833152 7.47713975 -4 10 C-4.8125 8.375 -4.8125 8.375 -5 6 C-3.53181864 3.75390165 -1.84147142 1.97621323 0 0 Z " fill="#484848" transform="translate(59,147)"/>
<path d="M0 0 C2.4294516 3.6441774 2.16179575 5.71241272 2 10 C1.01 10.33 0.02 10.66 -1 11 C-1.125 3.375 -1.125 3.375 0 0 Z " fill="#D7D7D7" transform="translate(17,75)"/>
<path d="M0 0 C7.57142857 1.85714286 7.57142857 1.85714286 10 5 C9.01 5.495 9.01 5.495 8 6 C6.0546875 5.0390625 6.0546875 5.0390625 3.875 3.625 C3.15054688 3.16351563 2.42609375 2.70203125 1.6796875 2.2265625 C1.12539062 1.82179688 0.57109375 1.41703125 0 1 C0 0.67 0 0.34 0 0 Z " fill="#8B8B8B" transform="translate(208,29)"/>
<path d="M0 0 C2.79872437 2.52788007 4.45773019 4.20411134 5 8 C1.125 6.125 1.125 6.125 0 5 C-0.04063832 3.33382885 -0.042721 1.66611905 0 0 Z " fill="#454545" transform="translate(226,157)"/>
<path d="M0 0 C0.66 0.33 1.32 0.66 2 1 C0.77065985 4.68802044 -0.93859378 5.72356973 -4 8 C-4 4.09161134 -2.49432124 2.88405893 0 0 Z " fill="#C1C1C1" transform="translate(32,32)"/>
</svg>
