<?xml version="1.0" encoding="UTF-8"?>
<svg version="1.1" xmlns="http://www.w3.org/2000/svg" width="512" height="512">
<path d="M0 0 C1.17620022 -0.00644889 2.35240043 -0.01289778 3.56424308 -0.0195421 C5.48883365 -0.01489629 5.48883365 -0.01489629 7.45230484 -0.01015663 C8.83629169 -0.01389476 10.22027642 -0.01849693 11.60425782 -0.02388728 C15.40234867 -0.03611274 19.2003514 -0.03585735 22.99845743 -0.03349853 C27.09675483 -0.03309024 31.19502402 -0.04413065 35.29330826 -0.05361366 C43.32101266 -0.0702224 51.34868769 -0.07572316 59.37640783 -0.07683842 C65.90269019 -0.077789 72.42896286 -0.08189981 78.95524216 -0.08823967 C97.4625511 -0.10585213 115.96983685 -0.11507859 134.47715423 -0.11357872 C135.97357052 -0.11345885 135.97357052 -0.11345885 137.50021744 -0.11333656 C138.49904789 -0.1132548 139.49787834 -0.11317304 140.52697638 -0.1130888 C156.71206152 -0.11227601 172.89705358 -0.13141183 189.08211181 -0.1596133 C205.70483909 -0.18834857 222.327521 -0.20215322 238.95027375 -0.20042574 C248.281046 -0.19976204 257.61172068 -0.20524569 266.94247055 -0.22678185 C274.88746531 -0.24500214 282.83231827 -0.24933405 290.77732489 -0.235763 C294.82923788 -0.22923747 298.88087891 -0.22910093 302.93276596 -0.2464695 C306.64639808 -0.26222406 310.35954313 -0.25931272 314.07316354 -0.24190123 C316.04385782 -0.23739123 318.01456734 -0.25247002 319.98520255 -0.26838052 C328.97769514 -0.19867961 335.79877744 1.40111263 343.29220963 6.44476891 C351.45438631 14.79244961 354.31024602 22.75056938 354.45627213 34.24945641 C354.48532135 35.66836678 354.48532135 35.66836678 354.51495743 37.115942 C354.57448011 40.12129412 354.62102908 43.12668511 354.66720963 46.13226891 C354.70541455 48.17655595 354.74446773 50.22082732 354.78439713 52.26508141 C354.88015916 57.26234921 354.96429076 62.25969233 355.04220963 67.25726891 C355.45470963 66.82382164 355.86720963 66.39037437 356.29220963 65.94379234 C358.19789526 63.95409489 360.11977047 61.98077855 362.04220963 60.00726891 C362.69060806 59.32535484 363.3390065 58.64344078 364.00705338 57.94086266 C369.19794362 52.64718251 374.14697127 48.83813778 381.60470963 47.72601891 C383.30627213 47.74148766 383.30627213 47.74148766 385.04220963 47.75726891 C386.17658463 47.74695641 387.31095963 47.73664391 388.47970963 47.72601891 C398.35392373 49.19848943 404.26477875 55.88598644 410.99924088 62.68305016 C412.03378979 63.71489917 413.06893141 64.74615424 414.10463333 65.77684593 C416.26347806 67.92982171 418.41499447 70.08979241 420.56149673 72.25507164 C423.30274105 75.01913249 426.06159615 77.76480351 428.82619572 80.50548077 C430.96367441 82.62845543 433.09147349 84.76092716 435.21653175 86.89632797 C436.2298198 87.91226909 437.24604545 88.92528962 438.26533318 89.93521118 C445.20824008 96.82824417 450.10340935 102.05579091 451.04220963 112.14789391 C451.04220963 118.58403617 449.35919023 124.38267804 445.04220963 129.25726891 C442.28972606 131.25324875 439.32702369 132.81866793 436.34225845 134.43915367 C423.40726591 141.86370741 411.43722993 150.44821305 399.85470963 159.81976891 C399.32252162 160.24828699 398.79033361 160.67680507 398.2420187 161.11830854 C371.43983513 182.85255438 354.93836426 208.17712289 351.12320101 242.91624248 C347.89021639 276.09601965 348.28726224 309.53348847 349.16720963 342.81976891 C349.19402505 343.84611623 349.19402505 343.84611623 349.2213822 344.89319783 C349.89285895 370.41112055 350.80122599 395.92331178 352.35039139 421.40424156 C352.45278054 423.13990841 352.45278054 423.13990841 352.55723816 424.91063923 C352.87602035 430.30886306 353.21509519 435.7036645 353.60290623 441.09738064 C353.72130997 442.99258859 353.8389136 444.88784677 353.95557022 446.78316307 C354.02473563 447.61770185 354.09390105 448.45224063 354.16516238 449.31206846 C354.61687114 457.39412131 351.41151293 464.22432008 346.58908463 470.62445641 C341.45520648 476.04355 334.62865441 479.85565665 327.15293282 480.51026857 C326.13940155 480.51167742 325.12587028 480.51308627 324.08162594 480.51453781 C322.90480902 480.5209867 321.72799211 480.5274356 320.51551408 480.53407991 C319.23177157 480.53098271 317.94802907 480.5278855 316.62538528 480.52469444 C315.24068575 480.52843256 313.85598832 480.53303473 312.47129422 480.53842509 C308.67127278 480.55065052 304.8713394 480.55039517 301.07130277 480.54803634 C296.9709795 480.54762806 292.87068442 480.55866838 288.7703743 480.56815147 C280.73899489 480.58475984 272.70764485 480.59026094 264.67624971 480.59137623 C258.14757508 480.59232676 251.61891013 480.59643732 245.09023857 480.60277748 C226.57786397 480.62038929 208.06551255 480.62961642 189.55312952 480.62811653 C188.55525593 480.62803662 187.55738235 480.62795671 186.52927017 480.62787437 C185.53017741 480.62779261 184.53108465 480.62771085 183.50171635 480.62762661 C167.30948914 480.62681369 151.11735495 480.6459532 134.92515465 480.67415111 C118.29678213 480.70287997 101.66845497 480.71669141 85.040057 480.71496356 C75.70540426 480.71429966 66.37084903 480.7197916 57.03621864 480.74131966 C49.08863346 480.75953145 41.14119 480.76387879 33.19359299 480.75030081 C29.13977867 480.74377119 25.08623626 480.74365358 21.03244781 480.76100731 C17.31825108 480.77674357 13.60454171 480.77386917 9.89035682 480.75643905 C7.91693511 480.75192138 5.94349825 480.76702215 3.97013539 480.78291833 C-3.24535726 480.72689697 -8.68410145 479.90229337 -14.95779037 476.25726891 C-15.61136404 475.87900251 -16.26493771 475.50073611 -16.93831664 475.11100709 C-23.83392188 470.90475168 -27.80677014 463.87100614 -29.95779037 456.25726891 C-30.13692133 453.77656315 -30.2123734 451.28737435 -30.21505928 448.80021095 C-30.21856535 448.06690642 -30.22207143 447.33360189 -30.22568375 446.578076 C-30.23499169 444.11952236 -30.23007602 441.6612059 -30.22521591 439.20264244 C-30.22895248 437.42267532 -30.23355403 435.64270983 -30.23894656 433.86274695 C-30.25119121 428.97011051 -30.25091436 424.07754236 -30.24855781 419.18489408 C-30.24815001 413.90867462 -30.25918526 408.63247716 -30.26867294 403.35626793 C-30.28529207 393.01847162 -30.29078291 382.68069812 -30.2918977 372.34288958 C-30.29284776 363.94017765 -30.29695597 355.53747326 -30.30329895 347.13476372 C-30.32091403 323.31505315 -30.33013743 299.49536061 -30.328638 275.67564347 C-30.32855809 274.39128104 -30.32847818 273.1069186 -30.32839584 271.78363609 C-30.32831408 270.49770663 -30.32823232 269.21177716 -30.32814808 267.88688013 C-30.32733516 247.04590488 -30.34647377 226.2050019 -30.37467258 205.36404756 C-30.40339396 183.96814937 -30.41721327 162.57228643 -30.41548502 141.17636847 C-30.41482085 129.16282014 -30.42032497 117.14934756 -30.44184113 105.13581657 C-30.4600431 94.90712864 -30.46440832 84.6785508 -30.45082228 74.44985369 C-30.44428765 69.2314094 -30.44419344 64.01317638 -30.46152878 58.79475212 C-30.47724247 54.0153132 -30.47441314 49.23625338 -30.45696051 44.4568238 C-30.45388688 42.73005165 -30.4575367 41.00325133 -30.46868066 39.27651241 C-30.53811855 27.75170291 -29.91876691 17.63025894 -21.66091537 8.78851891 C-15.41006072 3.16848445 -8.47204298 0.01178279 0 0 Z " fill="#EAEAE9" transform="translate(45.95779037475586,15.742731094360352)"/>
<path d="M0 0 C0 0.66 0 1.32 0 2 C1.98 2.495 1.98 2.495 4 3 C4 3.66 4 4.32 4 5 C4.99 5.33 5.98 5.66 7 6 C8.33203125 7.35546875 8.33203125 7.35546875 9.8125 9.1875 C13.86074221 13.97806381 18.28239065 18.34041254 22.76098633 22.72338867 C25.76944842 25.68877016 28.65152129 28.70198075 31.41015625 31.90234375 C35.22641232 36.32111055 39.29925956 40.4466083 43.4375 44.5625 C44.14970703 45.27857422 44.86191406 45.99464844 45.59570312 46.73242188 C49.62767409 50.75706864 53.76403457 54.5822849 58.07836914 58.30102539 C61.1851455 61.04782462 64.09089496 63.98431761 67 66.9375 C67.58394531 67.52595703 68.16789062 68.11441406 68.76953125 68.72070312 C70.18204805 70.14479793 71.5913781 71.5720525 73 73 C71.7082122 75.84015307 70.35216917 77.89698388 68.14599609 80.09692383 C67.57134613 80.67465042 66.99669617 81.25237701 66.40463257 81.84761047 C65.7838382 82.46121933 65.16304382 83.07482819 64.5234375 83.70703125 C63.87935944 84.35065109 63.23528137 84.99427094 62.57168579 85.65739441 C61.20721862 87.01884298 59.84032432 88.37786275 58.47119141 89.73461914 C56.39826306 91.78944015 54.33330021 93.85199987 52.26953125 95.91601562 C50.93796785 97.24265725 49.60595051 98.56884344 48.2734375 99.89453125 C47.66478851 100.50206741 47.05613953 101.10960358 46.42904663 101.73554993 C42.67698696 105.44728095 38.79991475 108.96122639 34.80908203 112.41429138 C32.60665106 114.34478083 30.51975987 116.36670734 28.45703125 118.4453125 C27.69326172 119.21230469 26.92949219 119.97929687 26.14257812 120.76953125 C25.37365234 121.54683594 24.60472656 122.32414062 23.8125 123.125 C23.03197266 123.91003906 22.25144531 124.69507813 21.44726562 125.50390625 C19.94707715 127.0130017 18.4478424 128.52304603 16.94970703 130.03417969 C14.63997714 132.36299826 12.3212684 134.68268606 10 137 C9.1028125 137.8971875 8.205625 138.794375 7.28125 139.71875 C-22.29024251 169.29024251 -51.86173503 198.86173503 -81.43322754 228.43322754 C-82.3555291 229.35608803 -82.3555291 229.35608803 -83.29646301 230.29759216 C-84.37590355 231.37631722 -85.45670181 232.45368679 -86.53935242 233.52919006 C-88.66731732 235.64475594 -90.67596586 237.7407268 -92.5 240.125 C-94.88081726 242.86293985 -96.76196122 244.42473789 -100 246 C-100.66 246 -101.32 246 -102 246 C-102 246.66 -102 247.32 -102 248 C-110.14530675 252.25871368 -118.08933378 256.30081865 -126.8984375 259.01953125 C-130.5207761 260.16462821 -134.07222057 261.47077947 -137.625 262.8125 C-138.30908936 263.07039307 -138.99317871 263.32828613 -139.69799805 263.59399414 C-143.73018929 265.12157339 -147.74901011 266.68098394 -151.76196289 268.25830078 C-155.83486039 269.8556486 -159.91668678 271.42949492 -164 273 C-164.64755249 273.24955444 -165.29510498 273.49910889 -165.96228027 273.75622559 C-170.56958307 275.53020388 -175.18254738 277.28849137 -179.80111694 279.03292847 C-181.38276928 279.63246242 -182.96289679 280.23603576 -184.54141235 280.84378052 C-186.78790376 281.70771528 -189.03959732 282.55654392 -191.29296875 283.40234375 C-192.30150406 283.79557327 -192.30150406 283.79557327 -193.33041382 284.19674683 C-197.69858414 285.81373847 -201.35639987 286.39121391 -206 286 C-209.05357079 284.38679279 -211.23833566 282.96939098 -213.375 280.25 C-215.43948751 272.81784498 -213.17529349 266.71793948 -210.45703125 259.83203125 C-210.09155685 258.87536057 -209.72608246 257.91868988 -209.34953308 256.93302917 C-208.18292209 253.88791081 -206.99810526 250.85026644 -205.8125 247.8125 C-205.03458807 245.79148449 -204.25788406 243.77000361 -203.48242188 241.74804688 C-201.33565327 236.15987775 -199.16977016 230.57926942 -197 225 C-193.6492232 216.36869716 -190.3929701 207.70930772 -187.25 199 C-186.85167969 197.90816406 -186.45335937 196.81632813 -186.04296875 195.69140625 C-185.66269531 194.63824219 -185.28242188 193.58507812 -184.890625 192.5 C-184.55063477 191.5615625 -184.21064453 190.623125 -183.86035156 189.65625 C-183.03694882 187.11407582 -182.46553501 184.62890359 -182 182 C-181.34 182 -180.68 182 -180 182 C-179.90332031 181.2575 -179.80664062 180.515 -179.70703125 179.75 C-178.90614264 176.63494152 -177.87298423 175.32119953 -175.6875 173 C-173.56909043 170.7079503 -171.59732856 168.47761543 -169.6875 166 C-168.8521875 165.01 -168.8521875 165.01 -168 164 C-167.34 164 -166.68 164 -166 164 C-166 163.34 -166 162.68 -166 162 C-164.64453125 160.66796875 -164.64453125 160.66796875 -162.8125 159.1875 C-158.85695407 155.90184491 -155.22125286 152.52656608 -152 148.5 C-149.82796073 145.78495091 -147.4719282 143.44806131 -145 141 C-143.83627391 139.82647766 -142.67358053 138.65193065 -141.51171875 137.4765625 C-140.2370262 136.19266164 -138.96228566 134.90880841 -137.6875 133.625 C-137.06166016 132.99078125 -136.43582031 132.3565625 -135.79101562 131.703125 C-132.70873301 128.60503581 -129.59536187 125.61020412 -126.2734375 122.76953125 C-121.11465563 118.31635784 -116.33330087 113.48297696 -111.52709961 108.6574707 C-109.94040054 107.06541034 -108.34842258 105.4787701 -106.75585938 103.89257812 C-101.80129366 98.94105514 -96.92764544 93.95839941 -92.38623047 88.61889648 C-90.36847456 86.26247883 -88.29060811 84.09427027 -86 82 C-85.34 82 -84.68 82 -84 82 C-84 81.34 -84 80.68 -84 80 C-82.53125 78.5546875 -82.53125 78.5546875 -80.5 76.875 C-76.0953249 73.13297514 -72.04757591 69.12028686 -68 65 C-65.33691855 62.32364738 -62.65943784 59.66387944 -59.95703125 57.02734375 C-58.90880866 55.99744215 -57.86063203 54.96749377 -56.8125 53.9375 C-56.01295898 53.1630957 -56.01295898 53.1630957 -55.19726562 52.37304688 C-52.52228119 49.73171004 -50.5561538 47.41156795 -49 44 C-47.5506694 42.74391348 -46.09676661 41.49106687 -44.58984375 40.3046875 C-42.73285361 38.8291978 -42.73285361 38.8291978 -40.25 36.1875 C-38 34 -38 34 -36 34 C-35.73985107 33.40195557 -35.47970215 32.80391113 -35.21166992 32.18774414 C-33.90750959 29.83300292 -32.69478485 28.67963466 -30.61328125 26.99609375 C-26.98858182 23.92979617 -23.61358497 20.67419391 -20.29296875 17.28515625 C-19.79652863 16.78067963 -19.3000885 16.276203 -18.78860474 15.75643921 C-16.72487957 13.65685629 -14.66481287 11.55387979 -12.61352539 9.44213867 C-11.09664997 7.8831344 -9.57064113 6.33357163 -8.04296875 4.78515625 C-6.69755005 3.40662476 -6.69755005 3.40662476 -5.32495117 2.00024414 C-3 0 -3 0 0 0 Z " fill="#FEB006" transform="translate(358,130)"/>
<path d="M0 0 C1.17620022 -0.00644889 2.35240043 -0.01289778 3.56424308 -0.0195421 C5.48883365 -0.01489629 5.48883365 -0.01489629 7.45230484 -0.01015663 C8.83629169 -0.01389476 10.22027642 -0.01849693 11.60425782 -0.02388728 C15.40234867 -0.03611274 19.2003514 -0.03585735 22.99845743 -0.03349853 C27.09675483 -0.03309024 31.19502402 -0.04413065 35.29330826 -0.05361366 C43.32101266 -0.0702224 51.34868769 -0.07572316 59.37640783 -0.07683842 C65.90269019 -0.077789 72.42896286 -0.08189981 78.95524216 -0.08823967 C97.4625511 -0.10585213 115.96983685 -0.11507859 134.47715423 -0.11357872 C135.97357052 -0.11345885 135.97357052 -0.11345885 137.50021744 -0.11333656 C138.49904789 -0.1132548 139.49787834 -0.11317304 140.52697638 -0.1130888 C156.71206152 -0.11227601 172.89705358 -0.13141183 189.08211181 -0.1596133 C205.70483909 -0.18834857 222.327521 -0.20215322 238.95027375 -0.20042574 C248.281046 -0.19976204 257.61172068 -0.20524569 266.94247055 -0.22678185 C274.88746531 -0.24500214 282.83231827 -0.24933405 290.77732489 -0.235763 C294.82923788 -0.22923747 298.88087891 -0.22910093 302.93276596 -0.2464695 C306.64639808 -0.26222406 310.35954313 -0.25931272 314.07316354 -0.24190123 C316.04385782 -0.23739123 318.01456734 -0.25247002 319.98520255 -0.26838052 C328.97769514 -0.19867961 335.79877744 1.40111263 343.29220963 6.44476891 C351.45438631 14.79244961 354.31024602 22.75056938 354.45627213 34.24945641 C354.48532135 35.66836678 354.48532135 35.66836678 354.51495743 37.115942 C354.57448011 40.12129412 354.62102908 43.12668511 354.66720963 46.13226891 C354.70541455 48.17655595 354.74446773 50.22082732 354.78439713 52.26508141 C354.88015916 57.26234921 354.96429076 62.25969233 355.04220963 67.25726891 C355.45470963 66.82382164 355.86720963 66.39037437 356.29220963 65.94379234 C358.19789526 63.95409489 360.11977047 61.98077855 362.04220963 60.00726891 C362.69060806 59.32535484 363.3390065 58.64344078 364.00705338 57.94086266 C369.19794362 52.64718251 374.14697127 48.83813778 381.60470963 47.72601891 C383.30627213 47.74148766 383.30627213 47.74148766 385.04220963 47.75726891 C386.17658463 47.74695641 387.31095963 47.73664391 388.47970963 47.72601891 C398.35392373 49.19848943 404.26477875 55.88598644 410.99924088 62.68305016 C412.03378979 63.71489917 413.06893141 64.74615424 414.10463333 65.77684593 C416.26347806 67.92982171 418.41499447 70.08979241 420.56149673 72.25507164 C423.30274105 75.01913249 426.06159615 77.76480351 428.82619572 80.50548077 C430.96367441 82.62845543 433.09147349 84.76092716 435.21653175 86.89632797 C436.2298198 87.91226909 437.24604545 88.92528962 438.26533318 89.93521118 C445.20824008 96.82824417 450.10340935 102.05579091 451.04220963 112.14789391 C451.04220963 120.89634519 447.41994096 126.93817285 441.46701431 133.059515 C440.0544941 134.47172161 438.63656533 135.87853327 437.21408463 137.28070641 C436.46507889 138.02688225 435.71607315 138.77305809 434.94437027 139.54184532 C432.56499361 141.91008019 430.1787372 144.27124254 427.79220963 146.63226891 C426.17195785 148.24248315 424.55216111 149.85315539 422.93283463 151.46430016 C418.97454608 155.40060797 415.01059468 159.33114149 411.04220963 163.25726891 C406.84781828 160.55965493 404.11050598 158.16237336 401.04220963 154.25726891 C399.91465583 153.25710701 398.76709012 152.27923384 397.60470963 151.31976891 C394.2865356 148.56051971 391.75357638 145.61080146 389.04220963 142.25726891 C388.11408463 141.34976891 387.18595963 140.44226891 386.22970963 139.50726891 C384.04220963 137.25726891 384.04220963 137.25726891 384.04220963 135.25726891 C383.23783463 134.91695641 383.23783463 134.91695641 382.41720963 134.56976891 C378.0470625 132.1546876 374.76601538 129.12954764 371.60470963 125.31976891 C369.61860696 122.94613402 367.88883693 121.19843145 365.54220963 119.25726891 C362.24349551 116.52262062 359.73470665 113.58746259 357.04220963 110.25726891 C355.3882542 108.57600046 353.72038398 106.91405683 352.04220963 105.25726891 C350.71201495 103.92860986 349.38265513 102.5991147 348.05392838 101.26898766 C347.34816666 100.56322594 346.64240494 99.85746422 345.9152565 99.13031578 C342.62424088 95.83930016 339.33322525 92.54828453 336.04220963 89.25726891 C337.01874282 87.0788487 337.74526039 85.5070478 339.59018326 83.95519066 C341.61325403 81.58952021 341.43517988 79.98912691 341.4621315 76.90302086 C341.4859993 75.26034988 341.4859993 75.26034988 341.51034927 73.58449364 C341.51055069 72.40014229 341.51075211 71.21579094 341.51095963 69.99555016 C341.52237991 68.16590973 341.52237991 68.16590973 341.53403091 66.29930687 C341.54484788 63.71443288 341.54767858 61.12951514 341.54318619 58.54462242 C341.54221764 54.60238384 341.5837474 50.66211507 341.62814713 46.72015953 C341.6333569 44.20779379 341.63604227 41.6954213 341.63595963 39.18305016 C341.66055252 37.42170486 341.66055252 37.42170486 341.68564224 35.62477684 C341.62612911 28.52013956 340.73941871 23.72036153 336.04220963 18.25726891 C335.59567032 17.73381386 335.14913101 17.21035881 334.68906021 16.67104149 C330.97092802 13.47913483 327.02195513 13.00668767 322.26155663 13 C320.5183681 12.99032666 320.5183681 12.99032666 318.73996365 12.9804579 C317.46750786 12.98355511 316.19505207 12.98665231 314.88403702 12.98984337 C313.51527432 12.98610635 312.14651375 12.98150462 310.77775657 12.97611272 C307.01722062 12.96387376 303.25677358 12.96414423 299.49622226 12.96650147 C295.44022801 12.96690941 291.38426235 12.95587275 287.3282814 12.94638634 C279.38232659 12.92977078 271.43640146 12.92427655 263.49043073 12.92316158 C257.03227179 12.92221143 250.57412264 12.9181028 244.1159668 12.91176033 C225.80890278 12.8941469 207.50186222 12.88492169 189.19478966 12.88642128 C188.20777321 12.88650119 187.22075676 12.8865811 186.20383072 12.88666344 C184.72150008 12.88678608 184.72150008 12.88678608 183.20922337 12.8869112 C167.19017726 12.88772427 151.17122513 12.86858151 135.1522062 12.8403867 C118.70693693 12.81166985 102.26171352 12.79784573 85.81641853 12.79957426 C76.58241868 12.80023854 67.34851738 12.79472931 58.1145401 12.77321815 C50.25324383 12.75502219 42.39209079 12.750646 34.5307826 12.764237 C30.51975258 12.77077452 26.50899747 12.77085579 22.49799347 12.7535305 C18.82518541 12.73782914 15.15287091 12.74063286 11.48007511 12.75809877 C9.52401621 12.76263116 7.56794219 12.74748833 5.61194241 12.73161948 C-1.13197096 12.78475541 -5.51676438 13.13647927 -10.95779037 17.25726891 C-15.83761394 22.53275385 -17.20721039 26.20320117 -17.21505928 33.3801136 C-17.21856535 34.1015794 -17.22207143 34.82304519 -17.22568375 35.56637359 C-17.2350267 37.99667884 -17.23006702 40.42674598 -17.22521591 42.85706139 C-17.22895072 44.61197902 -17.23355157 46.36689498 -17.23894656 48.12180829 C-17.25121303 52.95441541 -17.2509118 57.78695349 -17.24855781 62.61957264 C-17.24815056 67.82762221 -17.25918005 73.03564938 -17.26867294 78.24368858 C-17.28530423 88.45141257 -17.29078346 98.65911347 -17.2918977 108.86684987 C-17.29284723 117.16283813 -17.29695276 125.45881876 -17.30329895 133.75480461 C-17.32091768 157.26443769 -17.33013691 180.77405248 -17.328638 204.28369221 C-17.32855809 205.55178893 -17.32847818 206.81988564 -17.32839584 208.12640953 C-17.32831408 209.39605093 -17.32823232 210.66569234 -17.32814808 211.97380772 C-17.32733515 232.55113406 -17.34647303 253.12838721 -17.37467258 273.70569238 C-17.40338498 294.82353461 -17.41721376 315.94134113 -17.41548502 337.05920339 C-17.41482052 348.9195758 -17.42033907 360.7798715 -17.44184113 372.64022636 C-17.46003136 382.73873222 -17.46441805 392.83712661 -17.45082228 402.93564174 C-17.44428156 408.08901676 -17.44421525 413.24217779 -17.46152878 418.39553261 C-17.47721585 423.11326778 -17.47444055 427.8306185 -17.45696051 432.54834405 C-17.45388097 434.25495211 -17.45755884 435.96158855 -17.46868066 437.66816315 C-17.67389888 449.5572287 -17.67389888 449.5572287 -12.95779037 460.25726891 C-11.03427253 462.33512928 -11.03427253 462.33512928 -8.89529037 463.69476891 C-7.88788803 464.40439781 -7.88788803 464.40439781 -6.86013412 465.12836266 C-3.34971779 467.21154606 -0.47381928 467.38368186 3.5170908 467.38869667 C4.6619175 467.39253782 5.8067442 467.39637896 6.98626262 467.4003365 C8.24966242 467.39947002 9.51306222 467.39860354 10.81474686 467.3977108 C12.16599525 467.4002939 13.51724288 467.40330691 14.86848944 467.4067142 C18.58984776 467.41479385 22.31118679 467.41657431 26.03255284 467.41731167 C30.04288256 467.41916054 34.05320223 467.42670702 38.06352615 467.43344688 C46.83619748 467.44703739 55.60886425 467.45305599 64.38154435 467.45745754 C69.85733338 467.46021865 75.33312063 467.46445575 80.80890846 467.46896172 C95.96440425 467.48115512 111.11989862 467.49145442 126.27539921 467.49483681 C127.24566096 467.49505637 128.21592272 467.49527594 129.21558635 467.49550216 C130.18819223 467.49572044 131.16079811 467.49593871 132.1628769 467.49616361 C134.13380357 467.49660708 136.10473023 467.49705364 138.07565689 467.49750328 C139.05330817 467.49772471 140.03095945 467.49794614 141.03823652 467.49817428 C156.88346999 467.50212319 172.72865749 467.51957973 188.5738732 467.5428628 C204.83487743 467.56656434 221.09585858 467.57903811 237.35688037 467.58020473 C246.48969982 467.58112214 255.62245939 467.58689115 264.75526237 467.60502434 C272.5313411 467.62040915 280.30734143 467.62555537 288.08343247 467.61728624 C292.05175288 467.61337402 296.01991533 467.61433705 299.9882164 467.62834358 C303.62088342 467.64104835 307.25327323 467.63991537 310.88593968 467.62775287 C312.82294626 467.62485982 314.75995748 467.63675756 316.69692641 467.64917493 C322.60541129 467.61539538 326.9172884 467.5442758 332.04220963 464.25726891 C332.70220963 464.25726891 333.36220963 464.25726891 334.04220963 464.25726891 C334.04220963 463.59726891 334.04220963 462.93726891 334.04220963 462.25726891 C334.70220963 462.25726891 335.36220963 462.25726891 336.04220963 462.25726891 C336.04220963 461.59726891 336.04220963 460.93726891 336.04220963 460.25726891 C336.70220963 460.25726891 337.36220963 460.25726891 338.04220963 460.25726891 C338.50627213 458.55570641 338.50627213 458.55570641 338.97970963 456.81976891 C340.04220963 453.25726891 340.04220963 453.25726891 341.04220963 452.25726891 C341.11791609 449.43439264 341.12748862 446.63672921 341.09517288 443.814291 C341.08897165 442.91802716 341.08277042 442.02176332 341.07638127 441.09833997 C341.05447219 438.07061562 341.02560902 435.04299386 340.99704361 432.01532555 C340.98040389 429.85409526 340.96433954 427.69286048 340.94881058 425.53162193 C340.92378342 422.07129597 340.89825857 418.61097863 340.87090766 415.15067017 C340.80302224 406.56014797 340.75228192 397.96965247 340.71214676 389.37895775 C340.70630567 388.13408956 340.70046459 386.88922137 340.6944465 385.60662991 C340.67063388 380.46732611 340.64735642 375.32801998 340.62419975 370.18871319 C340.55755246 355.58480404 340.47441023 340.98159087 340.34274673 326.37811852 C340.23838442 314.79001676 340.16946303 303.20231439 340.14199501 291.61376661 C340.12610876 285.4793747 340.09227256 279.34625983 340.01547432 273.21230316 C339.94354739 267.43603656 339.91867924 261.66145743 339.92942619 255.88477135 C339.92508867 253.76834879 339.90366991 251.65187935 339.86361313 249.53583145 C339.5609933 232.76291669 339.5609933 232.76291669 343.23833275 227.75323868 C346.59164209 224.29377884 349.44907186 221.78831483 354.04220963 220.25726891 C354.13351033 250.16904329 354.20427428 280.08081297 354.24647094 309.99269673 C354.25147362 313.5261188 354.25665092 317.0595406 354.26193619 320.59296227 C354.26298543 321.29638656 354.26403467 321.99981085 354.26511571 322.72455103 C354.28250881 334.10606705 354.31404042 345.48750204 354.35082081 356.86897003 C354.38826079 368.55220664 354.41045193 380.23540089 354.4185636 391.91869503 C354.42377752 398.47903105 354.43602896 405.03918344 354.46512985 411.5994606 C354.49230573 417.77589509 354.50065006 423.95207052 354.49464035 430.12855911 C354.4957396 432.3936612 354.50368027 434.65877207 354.51903152 436.9238224 C354.5389929 440.02136646 354.53412584 443.11793808 354.52322769 446.2155056 C354.53487906 447.10755382 354.54653042 447.99960205 354.55853486 448.91868204 C354.47600426 457.62336378 351.07385782 465.89052914 345.04220963 472.25726891 C338.61825859 477.42022214 332.45260366 480.50290181 324.08162594 480.51453781 C322.90480902 480.5209867 321.72799211 480.5274356 320.51551408 480.53407991 C319.23177157 480.53098271 317.94802907 480.5278855 316.62538528 480.52469444 C315.24068575 480.52843256 313.85598832 480.53303473 312.47129422 480.53842509 C308.67127278 480.55065052 304.8713394 480.55039517 301.07130277 480.54803634 C296.9709795 480.54762806 292.87068442 480.55866838 288.7703743 480.56815147 C280.73899489 480.58475984 272.70764485 480.59026094 264.67624971 480.59137623 C258.14757508 480.59232676 251.61891013 480.59643732 245.09023857 480.60277748 C226.57786397 480.62038929 208.06551255 480.62961642 189.55312952 480.62811653 C188.55525593 480.62803662 187.55738235 480.62795671 186.52927017 480.62787437 C185.53017741 480.62779261 184.53108465 480.62771085 183.50171635 480.62762661 C167.30948914 480.62681369 151.11735495 480.6459532 134.92515465 480.67415111 C118.29678213 480.70287997 101.66845497 480.71669141 85.040057 480.71496356 C75.70540426 480.71429966 66.37084903 480.7197916 57.03621864 480.74131966 C49.08863346 480.75953145 41.14119 480.76387879 33.19359299 480.75030081 C29.13977867 480.74377119 25.08623626 480.74365358 21.03244781 480.76100731 C17.31825108 480.77674357 13.60454171 480.77386917 9.89035682 480.75643905 C7.91693511 480.75192138 5.94349825 480.76702215 3.97013539 480.78291833 C-3.24535726 480.72689697 -8.68410145 479.90229337 -14.95779037 476.25726891 C-15.61136404 475.87900251 -16.26493771 475.50073611 -16.93831664 475.11100709 C-23.83392188 470.90475168 -27.80677014 463.87100614 -29.95779037 456.25726891 C-30.13692133 453.77656315 -30.2123734 451.28737435 -30.21505928 448.80021095 C-30.21856535 448.06690642 -30.22207143 447.33360189 -30.22568375 446.578076 C-30.23499169 444.11952236 -30.23007602 441.6612059 -30.22521591 439.20264244 C-30.22895248 437.42267532 -30.23355403 435.64270983 -30.23894656 433.86274695 C-30.25119121 428.97011051 -30.25091436 424.07754236 -30.24855781 419.18489408 C-30.24815001 413.90867462 -30.25918526 408.63247716 -30.26867294 403.35626793 C-30.28529207 393.01847162 -30.29078291 382.68069812 -30.2918977 372.34288958 C-30.29284776 363.94017765 -30.29695597 355.53747326 -30.30329895 347.13476372 C-30.32091403 323.31505315 -30.33013743 299.49536061 -30.328638 275.67564347 C-30.32855809 274.39128104 -30.32847818 273.1069186 -30.32839584 271.78363609 C-30.32831408 270.49770663 -30.32823232 269.21177716 -30.32814808 267.88688013 C-30.32733516 247.04590488 -30.34647377 226.2050019 -30.37467258 205.36404756 C-30.40339396 183.96814937 -30.41721327 162.57228643 -30.41548502 141.17636847 C-30.41482085 129.16282014 -30.42032497 117.14934756 -30.44184113 105.13581657 C-30.4600431 94.90712864 -30.46440832 84.6785508 -30.45082228 74.44985369 C-30.44428765 69.2314094 -30.44419344 64.01317638 -30.46152878 58.79475212 C-30.47724247 54.0153132 -30.47441314 49.23625338 -30.45696051 44.4568238 C-30.45388688 42.73005165 -30.4575367 41.00325133 -30.46868066 39.27651241 C-30.53811855 27.75170291 -29.91876691 17.63025894 -21.66091537 8.78851891 C-15.41006072 3.16848445 -8.47204298 0.01178279 0 0 Z " fill="#C8C8C7" transform="translate(45.95779037475586,15.742731094360352)"/>
<path d="M0 0 C0.556875 0.721875 1.11375 1.44375 1.6875 2.1875 C6.85368865 8.47070241 12.46905026 14.40025846 20.91796875 15.31640625 C21.99691406 15.39761719 23.07585937 15.47882813 24.1875 15.5625 C25.27417969 15.64628906 26.36085938 15.73007812 27.48046875 15.81640625 C28.31191406 15.87699219 29.14335937 15.93757813 30 16 C30.02578125 16.7734375 30.0515625 17.546875 30.078125 18.34375 C30.44815791 25.13889971 31.27164097 30.26714687 35 36 C35.5775 36.9075 36.155 37.815 36.75 38.75 C43.3880297 45.3880297 50.94517385 45.72393823 60 46 C60.02578125 46.68964844 60.0515625 47.37929688 60.078125 48.08984375 C60.66737874 57.85270681 62.99297784 64.91922824 70.25 71.69140625 C72.4381426 73.32762895 74.27107344 73.91730526 77 74 C76.2575 74.721875 75.515 75.44375 74.75 76.1875 C72.0127891 78.87178923 72.0127891 78.87178923 70 81.625 C67.86463534 84.16074553 65.95210519 85.52394741 63 87 C62.34 87 61.68 87 61 87 C61 87.66 61 88.32 61 89 C52.85469325 93.25871368 44.91066622 97.30081865 36.1015625 100.01953125 C32.4792239 101.16462821 28.92777943 102.47077947 25.375 103.8125 C24.69091064 104.07039307 24.00682129 104.32828613 23.30200195 104.59399414 C19.26981071 106.12157339 15.25098989 107.68098394 11.23803711 109.25830078 C7.16513961 110.8556486 3.08331322 112.42949492 -1 114 C-1.97132874 114.37433167 -1.97132874 114.37433167 -2.96228027 114.75622559 C-7.56958307 116.53020388 -12.18254738 118.28849137 -16.80111694 120.03292847 C-18.38276928 120.63246242 -19.96289679 121.23603576 -21.54141235 121.84378052 C-23.78790376 122.70771528 -26.03959732 123.55654392 -28.29296875 124.40234375 C-28.96532562 124.66449677 -29.6376825 124.92664978 -30.33041382 125.19674683 C-34.69858414 126.81373847 -38.35639987 127.39121391 -43 127 C-46.05357079 125.38679279 -48.23833566 123.96939098 -50.375 121.25 C-52.43948751 113.81784498 -50.17529349 107.71793948 -47.45703125 100.83203125 C-47.09155685 99.87536057 -46.72608246 98.91868988 -46.34953308 97.93302917 C-45.18292209 94.88791081 -43.99810526 91.85026644 -42.8125 88.8125 C-42.03458807 86.79148449 -41.25788406 84.77000361 -40.48242188 82.74804688 C-38.33565327 77.15987775 -36.16977016 71.57926942 -34 66 C-30.6492232 57.36869716 -27.3929701 48.70930772 -24.25 40 C-23.85167969 38.90816406 -23.45335937 37.81632812 -23.04296875 36.69140625 C-22.66269531 35.63824219 -22.28242188 34.58507812 -21.890625 33.5 C-21.55063477 32.5615625 -21.21064453 31.623125 -20.86035156 30.65625 C-20.03694882 28.11407582 -19.46553501 25.62890359 -19 23 C-18.34 23 -17.68 23 -17 23 C-16.90332031 22.2575 -16.80664062 21.515 -16.70703125 20.75 C-15.90614264 17.63494152 -14.87298423 16.32119953 -12.6875 14 C-10.56909043 11.7079503 -8.59732856 9.47761543 -6.6875 7 C-6.130625 6.34 -5.57375 5.68 -5 5 C-4.34 5 -3.68 5 -3 5 C-3 4.34 -3 3.68 -3 3 C-1.5 1.375 -1.5 1.375 0 0 Z " fill="#FEE28C" transform="translate(195,289)"/>
<path d="M0 0 C5.02689861 3.26152435 9.09136813 7.70162682 13.29043579 11.93972778 C14.32498471 12.9715768 15.36012632 14.00283186 16.39582825 15.03352356 C18.55467297 17.18649934 20.70618939 19.34647004 22.85269165 21.51174927 C25.59393596 24.27581012 28.35279107 27.02148114 31.11739063 29.76215839 C33.25486933 31.88513306 35.38266841 34.01760479 37.50772667 36.1530056 C38.52101472 37.16894672 39.53724036 38.18196725 40.55652809 39.19188881 C47.499435 46.0849218 52.39460426 51.31246853 53.33340454 61.40457153 C53.33340454 70.15302281 49.71113588 76.19485047 43.75820923 82.31619263 C42.34568901 83.72839924 40.92776025 85.13521089 39.50527954 86.53738403 C38.7562738 87.28355988 38.00726807 88.02973572 37.23556519 88.79852295 C34.85618853 91.16675782 32.46993211 93.52792016 30.08340454 95.88894653 C28.46315277 97.49916077 26.84335603 99.10983302 25.22402954 100.72097778 C21.265741 104.6572856 17.3017896 108.58781912 13.33340454 112.51394653 C9.13901319 109.81633256 6.4017009 107.41905099 3.33340454 103.51394653 C2.20585075 102.51378463 1.05828504 101.53591147 -0.10409546 100.57644653 C-3.42226949 97.81719734 -5.95522871 94.86747909 -8.66659546 91.51394653 C-9.59472046 90.60644653 -10.52284546 89.69894653 -11.47909546 88.76394653 C-13.66659546 86.51394653 -13.66659546 86.51394653 -13.66659546 84.51394653 C-14.20284546 84.28707153 -14.73909546 84.06019653 -15.29159546 83.82644653 C-19.66174258 81.41136523 -22.9427897 78.38622527 -26.10409546 74.57644653 C-28.09019812 72.20281164 -29.81996816 70.45510907 -32.16659546 68.51394653 C-35.46530957 65.77929825 -37.97409843 62.84414022 -40.66659546 59.51394653 C-42.32055088 57.83267808 -43.98842111 56.17073446 -45.66659546 54.51394653 C-46.99679013 53.18528749 -48.32614996 51.85579233 -49.65487671 50.52566528 C-50.36063843 49.81990356 -51.06640015 49.11414185 -51.79354858 48.38699341 C-55.08456421 45.09597778 -58.37557983 41.80496216 -61.66659546 38.51394653 C-60.31428359 35.48417224 -58.81179003 33.4292204 -56.43612671 31.12332153 C-55.80150513 30.50030151 -55.16688354 29.87728149 -54.51303101 29.23538208 C-53.84183228 28.58480835 -53.17063354 27.93423462 -52.47909546 27.26394653 C-46.48504309 21.40487264 -46.48504309 21.40487264 -40.85409546 15.20144653 C-29.91476108 2.38279061 -17.73842334 -9.20322957 0 0 Z " fill="#ED564E" transform="translate(443.6665954589844,66.48605346679688)"/>
<path d="M0 0 C0 0.66 0 1.32 0 2 C1.98 2.495 1.98 2.495 4 3 C4 3.66 4 4.32 4 5 C4.99 5.33 5.98 5.66 7 6 C6.25 7.9375 6.25 7.9375 5 10 C3.67405895 10.36162029 2.34061543 10.69728039 1 11 C0.67 11.99 0.34 12.98 0 14 C-1.453125 15.4296875 -1.453125 15.4296875 -3.25 16.875 C-7.46245198 20.36531736 -11.23872011 24.00910264 -14.625 28.3125 C-15.40875 29.199375 -16.1925 30.08625 -17 31 C-17.99 31 -18.98 31 -20 31 C-20.1546875 31.9590625 -20.1546875 31.9590625 -20.3125 32.9375 C-20.6528125 33.9584375 -20.6528125 33.9584375 -21 35 C-21.99 35.33 -22.98 35.66 -24 36 C-24 36.66 -24 37.32 -24 38 C-25.66217644 39.3908007 -27.32622232 40.77943288 -29 42.15625 C-31.14973904 44.13804068 -32.81449429 46.22142092 -34.5625 48.5625 C-37.40251368 52.3491849 -40.15878928 55.23075507 -44 58 C-44.66 58 -45.32 58 -46 58 C-46.66 59.32 -47.32 60.64 -48 62 C-48.66 62 -49.32 62 -50 62 C-50 62.66 -50 63.32 -50 64 C-50.66 64 -51.32 64 -52 64 C-52.99 65.98 -52.99 65.98 -54 68 C-54.66 68 -55.32 68 -56 68 C-56.13341797 68.88365234 -56.13341797 68.88365234 -56.26953125 69.78515625 C-57.19110402 72.57944375 -58.43043633 73.57595986 -60.6875 75.4375 C-61.40808594 76.04078125 -62.12867188 76.6440625 -62.87109375 77.265625 C-63.57363281 77.83796875 -64.27617187 78.4103125 -65 79 C-71.72815206 84.20514763 -71.72815206 84.20514763 -76.375 91.125 C-78 94 -78 94 -81.0625 95 C-82.5165625 95.495 -82.5165625 95.495 -84 96 C-84.67939174 97.99571323 -85.34561559 99.99594773 -86 102 C-87.98320018 103.03291676 -89.98347806 104.0337499 -92 105 C-92.28875 105.763125 -92.5775 106.52625 -92.875 107.3125 C-94.40576022 110.96931608 -96.82455197 112.35529763 -100.02734375 114.5703125 C-102.79173579 116.57381248 -104.61798449 118.3135297 -106.2890625 121.31640625 C-108.51206301 124.80316732 -111.28699433 127.22158511 -114.375 129.9375 C-117.74317619 132.91733624 -120.95097398 135.83017007 -123.77734375 139.33984375 C-126.1236153 142.14794731 -126.65968244 142.30889982 -130 143 C-130.70394612 144.31403276 -131.36345658 145.6520257 -132 147 C-135.25147145 150.530169 -138.81545288 153.56895123 -142.546875 156.5703125 C-144.26825585 158.04731699 -144.26825585 158.04731699 -145 161 C-143.31699331 162.68300669 -141.17991273 162.22809077 -138.87109375 162.31640625 C-137.83662109 162.35830078 -136.80214844 162.40019531 -135.73632812 162.44335938 C-134.64771484 162.48267578 -133.55910156 162.52199219 -132.4375 162.5625 C-131.34501953 162.60568359 -130.25253906 162.64886719 -129.12695312 162.69335938 C-126.41810436 162.79982068 -123.70916008 162.90183516 -121 163 C-121.02356567 163.91495239 -121.02356567 163.91495239 -121.04760742 164.84838867 C-121.11019813 167.6279971 -121.14906622 170.40745692 -121.1875 173.1875 C-121.21263672 174.14720703 -121.23777344 175.10691406 -121.26367188 176.09570312 C-121.30430015 180.00956069 -121.24945274 183.26319945 -119.98828125 186.98828125 C-116.48654994 190.53129033 -112.53867505 191.87571124 -107.58642578 192.11816406 C-105.06439872 192.03800546 -102.57488408 191.85780779 -100.0625 191.625 C-97.04100943 191.38093046 -94.02705618 191.17263447 -91 191 C-90 192 -90 192 -89.88647461 194.40844727 C-89.89432983 195.97163696 -89.89432983 195.97163696 -89.90234375 197.56640625 C-89.90717773 199.2534668 -89.90717773 199.2534668 -89.91210938 200.97460938 C-89.92467773 202.75061523 -89.92467773 202.75061523 -89.9375 204.5625 C-89.94201172 205.75037109 -89.94652344 206.93824219 -89.95117188 208.16210938 C-89.96300325 211.10812226 -89.97948713 214.05403681 -90 217 C-88.68 217 -87.36 217 -86 217 C-85.86658203 216.11248047 -85.86658203 216.11248047 -85.73046875 215.20703125 C-84.8087729 212.42222828 -83.59074895 211.50575964 -81.3125 209.6875 C-77.84900364 206.81472564 -75.00537994 203.8168935 -72.2265625 200.28515625 C-71.82179688 199.86105469 -71.41703125 199.43695313 -71 199 C-70.34 199 -69.68 199 -69 199 C-68.773125 198.443125 -68.54625 197.88625 -68.3125 197.3125 C-66.63569499 194.35812928 -64.42675648 192.36897657 -62 190 C-61.319375 189.113125 -60.63875 188.22625 -59.9375 187.3125 C-57.96194053 184.95457419 -56.67545481 184.33772741 -54 183 C-53.0409375 181.7934375 -53.0409375 181.7934375 -52.0625 180.5625 C-50 178 -50 178 -47.5625 176.625 C-44.47347601 174.66610674 -43.05159231 172.47530646 -41.11328125 169.42578125 C-40.74589844 168.95527344 -40.37851562 168.48476563 -40 168 C-39.34 168 -38.68 168 -38 168 C-37.79246094 167.45730469 -37.58492188 166.91460937 -37.37109375 166.35546875 C-35.47562752 163.09915497 -32.83697494 160.80325931 -30.0625 158.3125 C-29.25522461 157.56516602 -29.25522461 157.56516602 -28.43164062 156.80273438 C-25.97316535 154.5685836 -24.18577982 153.06192661 -21 152 C-21 151.34 -21 150.68 -21 150 C-19.2820496 148.77761222 -17.5609268 147.55915941 -15.81640625 146.375 C-13.43932306 144.57557359 -11.81212714 142.3490537 -10 140 C-9.34 140 -8.68 140 -8 140 C-7.6596875 138.9171875 -7.6596875 138.9171875 -7.3125 137.8125 C-5.72668125 134.41431697 -3.73876676 132.54769001 -1 130 C-0.175 129.175 0.65 128.35 1.5 127.5 C3.17711568 125.82288432 4.86480856 124.15628433 6.5625 122.5 C9.05728624 120.03416242 9.05728624 120.03416242 11.1875 117.1875 C11.785625 116.465625 12.38375 115.74375 13 115 C13.66 115 14.32 115 15 115 C15.37125 114.13375 15.37125 114.13375 15.75 113.25 C17.18299988 110.67060021 18.78424676 108.93878408 21 107 C21.66 107 22.32 107 23 107 C23.3403125 105.88625 23.3403125 105.88625 23.6875 104.75 C25.2589561 101.4574253 26.99995716 100.02502891 30 98 C30.66 98 31.32 98 32 98 C32.20625 97.443125 32.4125 96.88625 32.625 96.3125 C34.94484813 92.41093723 38.44809484 89.86731682 42.35546875 87.68359375 C45.51941122 85.66932609 47.88255161 83.30861984 50.5 80.625 C51.4178125 79.68914062 52.335625 78.75328125 53.28125 77.7890625 C54.1784375 76.86867188 55.075625 75.94828125 56 75 C56.89074219 74.11699219 57.78148437 73.23398438 58.69921875 72.32421875 C60.99454959 70.00550593 63.00850603 67.58156626 65 65 C67.64 67.64 70.28 70.28 73 73 C71.39213462 76.21573076 70.54136326 77.70832432 68.14599609 80.09692383 C67.57134613 80.67465042 66.99669617 81.25237701 66.40463257 81.84761047 C65.7838382 82.46121933 65.16304382 83.07482819 64.5234375 83.70703125 C63.87935944 84.35065109 63.23528137 84.99427094 62.57168579 85.65739441 C61.20721862 87.01884298 59.84032432 88.37786275 58.47119141 89.73461914 C56.39826306 91.78944015 54.33330021 93.85199987 52.26953125 95.91601562 C50.93796785 97.24265725 49.60595051 98.56884344 48.2734375 99.89453125 C47.66478851 100.50206741 47.05613953 101.10960358 46.42904663 101.73554993 C42.67698696 105.44728095 38.79991475 108.96122639 34.80908203 112.41429138 C32.60665106 114.34478083 30.51975987 116.36670734 28.45703125 118.4453125 C27.69326172 119.21230469 26.92949219 119.97929687 26.14257812 120.76953125 C25.37365234 121.54683594 24.60472656 122.32414062 23.8125 123.125 C23.03197266 123.91003906 22.25144531 124.69507813 21.44726562 125.50390625 C19.94707715 127.0130017 18.4478424 128.52304603 16.94970703 130.03417969 C14.63997714 132.36299826 12.3212684 134.68268606 10 137 C9.1028125 137.8971875 8.205625 138.794375 7.28125 139.71875 C-1 148 -1 148 -3.18041992 150.17546082 C-6.7419548 153.74325975 -10.28670071 157.32748603 -13.83203125 160.91137695 C-21.6916881 168.85269723 -29.56405729 176.78129299 -37.44371033 184.70277119 C-42.20855616 189.49345787 -46.96855597 194.28878641 -51.71777344 199.0949707 C-56.31573098 203.74804987 -60.9266459 208.38803884 -65.54574585 213.02013206 C-67.30443395 214.78807047 -69.05870964 216.56040938 -70.8085022 218.33715248 C-73.2502136 220.81500452 -75.70696937 223.2769209 -78.16796875 225.7355957 C-78.89019623 226.47579956 -79.61242371 227.21600342 -80.35653687 227.9786377 C-81.36570663 228.97749748 -81.36570663 228.97749748 -82.39526367 229.99653625 C-82.97410812 230.57998967 -83.55295258 231.16344309 -84.14933777 231.76457691 C-86.58927929 233.39337769 -88.1213877 233.34850508 -91 233 C-96.15430716 229.30122809 -100.77978627 224.34940387 -102.6484375 218.1953125 C-103.35076305 213.80967964 -103.21952874 209.42309763 -103 205 C-104.25103516 205.08701172 -104.25103516 205.08701172 -105.52734375 205.17578125 C-113.27145171 205.48625522 -118.92799147 205.09265231 -125 200 C-130.45112808 194.17293205 -133.30268513 188.77217362 -133.125 180.6875 C-133.10695312 179.61886719 -133.08890625 178.55023438 -133.0703125 177.44921875 C-133.04710937 176.64097656 -133.02390625 175.83273437 -133 175 C-133.7734375 175.04640625 -134.546875 175.0928125 -135.34375 175.140625 C-144.00567868 175.44079085 -148.72539529 173.91450321 -155.75 169.125 C-158.34957271 166.669848 -160.13471719 164.03972014 -162 161 C-160.43306074 157.15387636 -157.94435097 154.87587769 -155 152 C-154.175 151.01 -153.35 150.02 -152.5 149 C-150.12325017 146.14790021 -147.63724769 143.6115005 -145 141 C-143.8362796 139.82647202 -142.67358783 138.65192344 -141.51171875 137.4765625 C-140.2370262 136.19266164 -138.96228566 134.90880841 -137.6875 133.625 C-137.06166016 132.99078125 -136.43582031 132.3565625 -135.79101562 131.703125 C-132.70873301 128.60503581 -129.59536187 125.61020412 -126.2734375 122.76953125 C-121.11465563 118.31635784 -116.33330087 113.48297696 -111.52709961 108.6574707 C-109.94040054 107.06541034 -108.34842258 105.4787701 -106.75585938 103.89257812 C-101.80129366 98.94105514 -96.92764544 93.95839941 -92.38623047 88.61889648 C-90.36847456 86.26247883 -88.29060811 84.09427027 -86 82 C-85.34 82 -84.68 82 -84 82 C-84 81.34 -84 80.68 -84 80 C-82.53125 78.5546875 -82.53125 78.5546875 -80.5 76.875 C-76.0953249 73.13297514 -72.04757591 69.12028686 -68 65 C-65.33691855 62.32364738 -62.65943784 59.66387944 -59.95703125 57.02734375 C-58.90880866 55.99744215 -57.86063203 54.96749377 -56.8125 53.9375 C-56.27947266 53.42123047 -55.74644531 52.90496094 -55.19726562 52.37304688 C-52.52228119 49.73171004 -50.5561538 47.41156795 -49 44 C-47.5506694 42.74391348 -46.09676661 41.49106687 -44.58984375 40.3046875 C-42.73285361 38.8291978 -42.73285361 38.8291978 -40.25 36.1875 C-38 34 -38 34 -36 34 C-35.60977661 33.10293335 -35.60977661 33.10293335 -35.21166992 32.18774414 C-33.90750959 29.83300292 -32.69478485 28.67963466 -30.61328125 26.99609375 C-26.98858182 23.92979617 -23.61358497 20.67419391 -20.29296875 17.28515625 C-19.79652863 16.78067963 -19.3000885 16.276203 -18.78860474 15.75643921 C-16.72487957 13.65685629 -14.66481287 11.55387979 -12.61352539 9.44213867 C-11.09664997 7.8831344 -9.57064113 6.33357163 -8.04296875 4.78515625 C-6.69755005 3.40662476 -6.69755005 3.40662476 -5.32495117 2.00024414 C-3 0 -3 0 0 0 Z " fill="#D9A016" transform="translate(358,130)"/>
<path d="M0 0 C100.32 0 200.64 0 304 0 C304 5.28 304 10.56 304 16 C203.68 16 103.36 16 0 16 C0 10.72 0 5.44 0 0 Z " fill="#BDBCBD" transform="translate(48,112)"/>
<path d="M0 0 C91.08 0 182.16 0 276 0 C274 4 274 4 271.75 5.3125 C268.57544579 7.2605219 266.72815489 9.49029183 264.4296875 12.37890625 C262.52869529 14.53440288 260.86237429 15.89498027 257.9602769 16.24839699 C257.17159778 16.24763755 256.38291865 16.24687811 255.57034016 16.24609566 C254.20285616 16.2520688 254.20285616 16.2520688 252.80774623 16.25816262 C251.30338418 16.24942409 251.30338418 16.24942409 249.76863098 16.24050903 C248.70434409 16.24221788 247.6400572 16.24392673 246.5435192 16.24568737 C242.95969081 16.24899454 239.37604761 16.23795829 235.79223633 16.22705078 C233.23025009 16.22648693 230.66826352 16.22680271 228.10627747 16.22793579 C222.58145076 16.22839195 217.05668422 16.22270107 211.53186989 16.21146011 C203.54389181 16.19521809 195.55593658 16.18999844 187.56794377 16.18748413 C174.60851533 16.18310499 161.64911205 16.16978994 148.68969727 16.15087891 C136.09952928 16.13252578 123.50936812 16.1183665 110.91918945 16.10986328 C110.14335877 16.10933783 109.36752809 16.10881239 108.56818739 16.10827102 C104.67614081 16.10566098 100.78409419 16.10313355 96.89204752 16.10064721 C64.5946799 16.07990788 32.29734386 16.0445279 0 16 C0 10.72 0 5.44 0 0 Z " fill="#BDBCBC" transform="translate(48,160)"/>
<path d="M0 0 C3.84082314 2.30449388 7.1530142 4.88390951 10.4375 7.9375 C11.13746094 8.58589844 11.83742188 9.23429688 12.55859375 9.90234375 C14 12 14 12 13.84375 14.609375 C12.79816067 17.5718781 11.41575223 19.02347545 9 21 C8.34 21 7.68 21 7 21 C6.68482422 21.80244141 6.68482422 21.80244141 6.36328125 22.62109375 C4.47103033 25.9230445 1.87638621 28.41263028 -0.8125 31.0625 C-1.59463867 31.85624023 -1.59463867 31.85624023 -2.39257812 32.66601562 C-5.39101513 35.64947917 -8.26445548 37.94898674 -12 40 C-14.77648174 42.08236131 -17.19682223 44.20150847 -19.625 46.6875 C-22 49 -22 49 -25 50 C-25.2475 50.721875 -25.495 51.44375 -25.75 52.1875 C-27.28449612 55.64011627 -29.23987307 57.05977308 -32.1328125 59.39453125 C-34.57155143 61.49143857 -36.53835204 63.85695806 -38.58984375 66.32421875 C-43.89848812 72.63282937 -43.89848812 72.63282937 -48 74 C-48.28875 74.5775 -48.5775 75.155 -48.875 75.75 C-50.37677977 78.75355954 -52.6332295 80.6332295 -55 83 C-55.495 83.825 -55.99 84.65 -56.5 85.5 C-59.56304421 90.60507369 -64.34232695 94.37736541 -69 98 C-69.66 98 -70.32 98 -71 98 C-71 98.66 -71 99.32 -71 100 C-72.46875 101.48046875 -72.46875 101.48046875 -74.5 103.1875 C-75.22316406 103.80367188 -75.94632812 104.41984375 -76.69140625 105.0546875 C-77.45324219 105.69664062 -78.21507812 106.33859375 -79 107 C-80.48279051 108.26660321 -81.96214757 109.53724058 -83.4375 110.8125 C-84.42556641 111.65748047 -84.42556641 111.65748047 -85.43359375 112.51953125 C-87.11019986 113.93469208 -87.11019986 113.93469208 -88 116 C-88.66 116 -89.32 116 -90 116 C-90.37125 116.8353125 -90.37125 116.8353125 -90.75 117.6875 C-92.89960564 121.66427044 -95.14306003 124.43478427 -98.9375 126.9375 C-101.77913519 128.85125431 -103.54090974 130.73388513 -105.640625 133.40625 C-108.08478878 136.27182133 -110.92953996 138.81896793 -114 141 C-114.66 141 -115.32 141 -116 141 C-116.268125 141.58265625 -116.53625 142.1653125 -116.8125 142.765625 C-118.01480991 145.02786601 -119.33825913 146.80576318 -121 148.75 C-121.515625 149.36359375 -122.03125 149.9771875 -122.5625 150.609375 C-124 152 -124 152 -126 152 C-126.33 152.99 -126.66 153.98 -127 155 C-128.97894062 156.87658163 -131.0731966 158.55960294 -133.1875 160.28125 C-135.25078906 161.96771124 -135.25078906 161.96771124 -136 165 C-137.32 165 -138.64 165 -140 165 C-143.00594784 158.98810432 -141.41102172 148.72483367 -139.95703125 142.28125 C-138.10795499 137.87365598 -134.5619436 135.05505163 -131 132 C-127.34087024 128.52231368 -127.34087024 128.52231368 -124.5625 124.375 C-123 122 -123 122 -120.1875 120.625 C-116.51450862 118.75249459 -114.77435451 116.64250867 -112.296875 113.42578125 C-111.65492188 112.72001953 -111.65492188 112.72001953 -111 112 C-110.34 112 -109.68 112 -109 112 C-109 111.34 -109 110.68 -109 110 C-108.21625 109.38125 -107.4325 108.7625 -106.625 108.125 C-104.13770844 106.11147826 -103.14461734 104.91357141 -102 102 C-101.34 102 -100.68 102 -100 102 C-100 100.68 -100 99.36 -100 98 C-98.68 98 -97.36 98 -96 98 C-95.896875 97.4225 -95.79375 96.845 -95.6875 96.25 C-94.87465516 93.58978053 -93.93155261 92.00309159 -92 90 C-90.68 90 -89.36 90 -88 90 C-88 89.01 -88 88.02 -88 87 C-86.36368108 85.95107762 -84.69514137 84.95093297 -83 84 C-82.67 83.34 -82.34 82.68 -82 82 C-81.34 82 -80.68 82 -80 82 C-80 81.34 -80 80.68 -80 80 C-78.86434039 78.82992646 -77.72043503 77.6670554 -76.54296875 76.5390625 C-74.84774658 74.84813203 -73.30547281 73.070157 -71.75 71.25 C-68.37544306 67.34494503 -64.7611588 63.73754451 -61.08203125 60.12109375 C-59.28699951 58.29238411 -57.65851753 56.43840693 -56.0625 54.4375 C-55.381875 53.633125 -54.70125 52.82875 -54 52 C-53.34 52 -52.68 52 -52 52 C-52 51.34 -52 50.68 -52 50 C-49.625 47.375 -49.625 47.375 -47 45 C-46.34 45 -45.68 45 -45 45 C-44.67 44.01 -44.34 43.02 -44 42 C-43.34 42 -42.68 42 -42 42 C-42 41.34 -42 40.68 -42 40 C-41.34 40 -40.68 40 -40 40 C-40 39.34 -40 38.68 -40 38 C-38.36395804 36.62926214 -36.69321939 35.29944744 -35 34 C-32.89302953 32.04910142 -31.62667009 30.44000514 -30 28 C-29.34 28 -28.68 28 -28 28 C-28 27.34 -28 26.68 -28 26 C-27.34 26 -26.68 26 -26 26 C-26 25.34 -26 24.68 -26 24 C-25.34 24 -24.68 24 -24 24 C-24 23.34 -24 22.68 -24 22 C-23.34 22 -22.68 22 -22 22 C-21.773125 21.443125 -21.54625 20.88625 -21.3125 20.3125 C-19.62449964 17.33840412 -17.53323483 15.27991135 -15 13 C-14.34 13 -13.68 13 -13 13 C-13 12.34 -13 11.68 -13 11 C-10.75 8.375 -10.75 8.375 -8 6 C-6.68 6 -5.36 6 -4 6 C-4 5.34 -4 4.68 -4 4 C-3.34 4 -2.68 4 -2 4 C-2 3.34 -2 2.68 -2 2 C-1.34 2 -0.68 2 0 2 C0 1.34 0 0.68 0 0 Z " fill="#FEBB10" transform="translate(408,182)"/>
<path d="M0 0 C6.26662254 5.12723662 11.90574389 10.80864475 17.58227539 16.56835938 C18.96313937 17.96277756 20.35835318 19.34293924 21.75390625 20.72265625 C24 23 24 23 25.8125 25.375 C28.32828189 28.39393827 31.14354144 30.77083161 34.12890625 33.3125 C36 35 36 35 37.9375 37.5 C39.98854782 39.98611857 41.9891601 41.58033808 44.5625 43.5 C48.01194341 46.09689805 49.87353724 48.23036147 52 52 C53.69038371 53.56232434 55.45649696 55.00413273 57.23828125 56.4609375 C59.80726718 58.70524007 61.82496004 61.37879799 64 64 C65.97956942 65.69088222 67.97945196 67.35830472 70 69 C71.71002375 70.62944672 73.35368715 72.30526619 75 74 C73.4152642 77.86328627 70.94043113 80.28876923 67.9921875 83.203125 C67.50670441 83.6857782 67.02122131 84.1684314 66.52102661 84.66571045 C64.97700134 86.19858562 63.42615176 87.72434004 61.875 89.25 C60.82375991 90.29120361 59.77297343 91.33286541 58.72265625 92.375 C56.15366996 94.92199464 53.57851839 97.46265177 51 100 C45.69063499 95.58066138 40.8035642 90.8836894 35.98242188 85.94335938 C33.1339654 83.05326895 30.23207994 80.29667715 27.15625 77.6484375 C22.5406946 73.65853277 18.23903502 69.38592579 13.9375 65.0625 C12.7918457 63.92264648 12.7918457 63.92264648 11.62304688 62.75976562 C7.42341346 58.5529472 3.40814229 54.2525722 -0.4699707 49.74829102 C-2.4031564 47.53933254 -4.45656599 45.4813807 -6.5625 43.4375 C-9.3241497 40.71826472 -11.94737125 37.96993404 -14.4375 35 C-16.65389933 32.01070034 -16.65389933 32.01070034 -19 31 C-19 30.34 -19 29.68 -19 29 C-20.32 28.67 -21.64 28.34 -23 28 C-23 27.34 -23 26.68 -23 26 C-23.66 25.67 -24.32 25.34 -25 25 C-16.66666667 16.66666667 -8.33333333 8.33333333 0 0 Z " fill="#ABABAA" transform="translate(381,104)"/>
<path d="M0 0 C75.57 0 151.14 0 229 0 C228.67 0.66 228.34 1.32 228 2 C227.34 2 226.68 2 226 2 C226 2.66 226 3.32 226 4 C225.34 4 224.68 4 224 4 C223.75378906 4.58394531 223.50757813 5.16789063 223.25390625 5.76953125 C221.80583817 8.34537822 220.19766892 9.79650568 217.9375 11.6875 C217.22464844 12.28949219 216.51179687 12.89148438 215.77734375 13.51171875 C214.89755859 14.24841797 214.89755859 14.24841797 214 15 C213.67 15.33 213.34 15.66 213 16 C210.25623107 16.09787219 207.53764022 16.12993342 204.79344177 16.12025452 C203.92279069 16.12110894 203.05213962 16.12196337 202.15510517 16.12284368 C199.21462978 16.12450116 196.27421044 16.11897276 193.33374023 16.11352539 C191.23509726 16.11324355 189.13645419 16.11340119 187.03781128 16.1139679 C181.3211021 16.114256 175.60441371 16.10835728 169.88770938 16.10139394 C163.92058844 16.09516244 157.95346708 16.09455676 151.98634338 16.09336853 C140.67805371 16.09025461 129.36977364 16.0820404 118.06148821 16.07201904 C105.19109449 16.06085979 92.32070031 16.05534793 79.45030296 16.05032361 C52.9668633 16.03985784 26.48343219 16.02225723 0 16 C0 10.72 0 5.44 0 0 Z " fill="#BDBCBC" transform="translate(48,208)"/>
<path d="M0 0 C59.4 0 118.8 0 180 0 C173.25266904 7.87188612 173.25266904 7.87188612 169.75 11.3125 C168.75226563 12.29669922 168.75226563 12.29669922 167.734375 13.30078125 C167.16203125 13.86152344 166.5896875 14.42226563 166 15 C165.34 15.66 164.68 16.32 164 17 C161.19265556 17.23047829 161.19265556 17.23047829 157.53341675 17.20254517 C156.52629959 17.19898311 156.52629959 17.19898311 155.49883664 17.1953491 C153.23847833 17.18489319 150.97850536 17.16001122 148.71826172 17.13525391 C147.10222906 17.12483275 145.48619048 17.1152966 143.87014771 17.10658264 C139.47361207 17.0803535 135.077262 17.04168865 130.68084097 17.00085878 C126.08977703 16.96031368 121.49864162 16.9311111 116.90750122 16.90072632 C108.20933278 16.84142638 99.5112776 16.77186559 90.81321633 16.69865549 C80.91256725 16.61582024 71.01184638 16.54436716 61.11110282 16.47388959 C40.74062867 16.32862813 20.37029314 16.16860589 0 16 C0 10.72 0 5.44 0 0 Z " fill="#BDBCBC" transform="translate(48,256)"/>
<path d="M0 0 C5.02689861 3.26152435 9.09136813 7.70162682 13.29043579 11.93972778 C14.32498471 12.9715768 15.36012632 14.00283186 16.39582825 15.03352356 C18.55467297 17.18649934 20.70618939 19.34647004 22.85269165 21.51174927 C25.59393596 24.27581012 28.35279107 27.02148114 31.11739063 29.76215839 C33.25486933 31.88513306 35.38266841 34.01760479 37.50772667 36.1530056 C38.52101472 37.16894672 39.53724036 38.18196725 40.55652809 39.19188881 C47.499435 46.0849218 52.39460426 51.31246853 53.33340454 61.40457153 C53.33340454 70.15302281 49.71113588 76.19485047 43.75820923 82.31619263 C42.34568901 83.72839924 40.92776025 85.13521089 39.50527954 86.53738403 C38.7562738 87.28355988 38.00726807 88.02973572 37.23556519 88.79852295 C34.85618853 91.16675782 32.46993211 93.52792016 30.08340454 95.88894653 C28.46315277 97.49916077 26.84335603 99.10983302 25.22402954 100.72097778 C21.265741 104.6572856 17.3017896 108.58781912 13.33340454 112.51394653 C9.1630903 109.86935701 6.56675013 107.9806377 4.33340454 103.51394653 C4.92814575 103.25710083 5.52288696 103.00025513 6.13565063 102.73562622 C8.5402418 101.39897057 9.76586898 100.08974501 11.49746704 97.96707153 C16.35326441 92.2272235 21.77986289 87.08641502 27.18887329 81.87332153 C27.96617798 81.11019653 28.74348267 80.34707153 29.54434204 79.56082153 C30.24865356 78.87858521 30.95296509 78.19634888 31.67861938 77.49343872 C33.39250524 75.44324892 33.93989084 74.12617663 34.33340454 71.51394653 C34.99340454 71.51394653 35.65340454 71.51394653 36.33340454 71.51394653 C36.33340454 70.85394653 36.33340454 70.19394653 36.33340454 69.51394653 C36.99340454 69.51394653 37.65340454 69.51394653 38.33340454 69.51394653 C39.54601079 64.23359751 40.14123792 59.8960721 37.20840454 55.13894653 C32.84231104 49.37529507 27.26151863 44.70901598 21.88272095 39.9211731 C19.08003978 37.3755295 16.4524357 34.66061045 13.82168579 31.93972778 C12.37153112 30.40975456 12.37153112 30.40975456 10.33340454 29.51394653 C10.33340454 28.85394653 10.33340454 28.19394653 10.33340454 27.51394653 C9.67340454 27.51394653 9.01340454 27.51394653 8.33340454 27.51394653 C6.71231079 25.83425903 6.71231079 25.83425903 4.89590454 23.63894653 C2.7493957 21.05200932 1.16563892 19.40210279 -1.66659546 17.51394653 C-1.66659546 16.85394653 -1.66659546 16.19394653 -1.66659546 15.51394653 C-2.32659546 15.51394653 -2.98659546 15.51394653 -3.66659546 15.51394653 C-4.20284546 14.87457153 -4.73909546 14.23519653 -5.29159546 13.57644653 C-9.43167976 9.98111017 -14.37772241 10.51394653 -19.66659546 10.51394653 C-19.99659546 11.50394653 -20.32659546 12.49394653 -20.66659546 13.51394653 C-21.87315796 13.97800903 -21.87315796 13.97800903 -23.10409546 14.45144653 C-26.26490581 15.76202643 -26.24915055 16.51229849 -27.66659546 19.51394653 C-29.52637675 21.66349545 -31.46185294 23.71660209 -33.66659546 25.51394653 C-34.32659546 25.51394653 -34.98659546 25.51394653 -35.66659546 25.51394653 C-35.89347046 26.09144653 -36.12034546 26.66894653 -36.35409546 27.26394653 C-37.66659546 29.51394653 -37.66659546 29.51394653 -40.22909546 31.51394653 C-42.80717922 33.20400738 -42.80717922 33.20400738 -43.06503296 35.40457153 C-43.89088678 38.30042258 -45.43046437 39.36666373 -47.72909546 41.26394653 C-48.8293103 42.18433716 -48.8293103 42.18433716 -49.95175171 43.12332153 C-50.80059937 43.81168091 -50.80059937 43.81168091 -51.66659546 44.51394653 C-50.67659546 45.50394653 -49.68659546 46.49394653 -48.66659546 47.51394653 C-48.99659546 48.50394653 -49.32659546 49.49394653 -49.66659546 50.51394653 C-53.62659546 46.55394653 -57.58659546 42.59394653 -61.66659546 38.51394653 C-59.97807726 35.13691014 -59.01233599 33.62387707 -56.43612671 31.12332153 C-55.80150513 30.50030151 -55.16688354 29.87728149 -54.51303101 29.23538208 C-53.84183228 28.58480835 -53.17063354 27.93423462 -52.47909546 27.26394653 C-46.48504309 21.40487264 -46.48504309 21.40487264 -40.85409546 15.20144653 C-29.91476108 2.38279061 -17.73842334 -9.20322957 0 0 Z " fill="#CB5550" transform="translate(443.6665954589844,66.48605346679688)"/>
<path d="M0 0 C11.45042056 2.06195769 19.90564562 11.208456 28 19 C28.65871094 19.58394531 29.31742188 20.16789062 29.99609375 20.76953125 C33.99941581 24.42152251 36.92383017 28.61421687 39.875 33.125 C40.46607544 34.02279175 40.46607544 34.02279175 41.0690918 34.9387207 C43.2005208 38.30993012 44.34225021 41.09424681 45 45 C40.41502485 46.76193714 35.82921147 48.52167014 31.24267578 50.27954102 C29.68906955 50.87531969 28.13567673 51.47165524 26.58251953 52.06860352 C22.10221112 53.79035099 17.61766526 55.50016161 13.12683105 57.1942749 C11.73728337 57.72068881 10.34926331 58.25115777 8.9630127 58.78619385 C7.08622014 59.51012963 5.20337764 60.21832171 3.3203125 60.92578125 C2.26344238 61.32837158 1.20657227 61.73096191 0.11767578 62.14575195 C-4.93765235 63.53091978 -8.64614546 63.71524391 -13.3125 61.25 C-17.15824916 58.03030303 -17.15824916 58.03030303 -18 55 C-18.59191078 47.84031211 -16.69853383 42.54403619 -14.0625 35.9375 C-13.66297119 34.90560547 -13.26344238 33.87371094 -12.85180664 32.81054688 C-11.58039702 29.53532021 -10.29053918 26.26772988 -9 23 C-8.13158203 20.77261476 -7.26438108 18.54475463 -6.3984375 16.31640625 C-4.27968474 10.87202673 -2.1457631 5.43378666 0 0 Z " fill="#4C4C4B" transform="translate(162,353)"/>
<path d="M0 0 C43.89 0 87.78 0 133 0 C132.01 2.64 131.02 5.28 130 8 C129.34 8 128.68 8 128 8 C127.67 10.64 127.34 13.28 127 16 C85.09 16 43.18 16 0 16 C0 10.72 0 5.44 0 0 Z " fill="#BDBCBC" transform="translate(48,304)"/>
<path d="M0 0 C36.96 0 73.92 0 112 0 C112 5.28 112 10.56 112 16 C75.04 16 38.08 16 0 16 C0 10.72 0 5.44 0 0 Z " fill="#BDBDBD" transform="translate(48,64)"/>
<path d="M0 0 C37.62 0 75.24 0 114 0 C112 9 112 9 109 17 C73.03 16.67 37.06 16.34 0 16 C0 10.72 0 5.44 0 0 Z " fill="#BCBCBC" transform="translate(48,352)"/>
<path d="M0 0 C26.4 0 52.8 0 80 0 C80 5.28 80 10.56 80 16 C53.6 16 27.2 16 0 16 C0 10.72 0 5.44 0 0 Z " fill="#BDBDBD" transform="translate(48,400)"/>
<path d="M0 0 C6.26662254 5.12723662 11.90574389 10.80864475 17.58227539 16.56835938 C18.96313937 17.96277756 20.35835318 19.34293924 21.75390625 20.72265625 C24 23 24 23 25.8125 25.375 C28.32828189 28.39393827 31.14354144 30.77083161 34.12890625 33.3125 C36 35 36 35 37.9375 37.5 C39.98854782 39.98611857 41.9891601 41.58033808 44.5625 43.5 C48.01194341 46.09689805 49.87353724 48.23036147 52 52 C53.09527857 53.01230292 54.2244226 53.98851949 55.375 54.9375 C58.75351028 57.7409447 61.51792711 60.35445545 64 64 C64.08446937 67.54771363 63.29692821 68.66708049 60.9375 71.3125 C60.298125 71.869375 59.65875 72.42625 59 73 C54.57238086 71.60846256 52.0443745 69.47928514 49 66 C49 65.34 49 64.68 49 64 C48.38125 63.7525 47.7625 63.505 47.125 63.25 C44.64931313 61.79371361 44.04874998 60.62187494 43 58 C42.34 58 41.68 58 41 58 C39.26982722 56.37737225 37.64106043 54.71103365 36 53 C34.50839957 51.50283608 33.01367636 50.00878057 31.5168457 48.5168457 C18.01123047 35.01123047 4.50561523 21.50561523 -9 8 C-8.43410156 7.50628906 -7.86820312 7.01257813 -7.28515625 6.50390625 C-6.55167969 5.86324219 -5.81820313 5.22257812 -5.0625 4.5625 C-4.33160156 3.92441406 -3.60070312 3.28632812 -2.84765625 2.62890625 C-1.87860647 1.77458541 -0.91348825 0.91348825 0 0 Z " fill="#C5BFBE" transform="translate(381,104)"/>
<path d="M0 0 C0.556875 0.70125 1.11375 1.4025 1.6875 2.125 C4.09124732 5.11344261 6.53810432 8.05940238 9 11 C8.01 11 7.02 11 6 11 C5.60941406 11.87398438 5.60941406 11.87398438 5.2109375 12.765625 C3.5450573 15.83944266 1.2526844 18.09189917 -1.1484375 20.609375 C-5.97751716 26.84438925 -8.35187846 34.38672374 -10.9375 41.75 C-13.45689193 48.82180215 -16.04475781 55.79580997 -19.08984375 62.66015625 C-20.22602146 65.38171463 -20.22602146 65.38171463 -21 70 C-24.96 68.02 -28.92 66.04 -33 64 C-32.43667969 62.45054687 -31.87335938 60.90109375 -31.29296875 59.3046875 C-30.74455322 57.79600098 -30.74455322 57.79600098 -30.18505859 56.25683594 C-29.40528971 54.11383698 -28.62439584 51.97124697 -27.84228516 49.82910156 C-26.66221976 46.59565321 -25.48708902 43.36044126 -24.3125 40.125 C-23.70825195 38.47371094 -23.70825195 38.47371094 -23.09179688 36.7890625 C-22.70701172 35.726875 -22.32222656 34.6646875 -21.92578125 33.5703125 C-21.57942627 32.61914551 -21.23307129 31.66797852 -20.8762207 30.68798828 C-20.04371072 28.13409169 -19.4662504 25.64278524 -19 23 C-18.34 23 -17.68 23 -17 23 C-16.90332031 22.2575 -16.80664062 21.515 -16.70703125 20.75 C-15.90614264 17.63494152 -14.87298423 16.32119953 -12.6875 14 C-10.56909043 11.7079503 -8.59732856 9.47761543 -6.6875 7 C-6.130625 6.34 -5.57375 5.68 -5 5 C-4.34 5 -3.68 5 -3 5 C-3 4.34 -3 3.68 -3 3 C-1.5 1.375 -1.5 1.375 0 0 Z " fill="#D9C381" transform="translate(195,289)"/>
<path d="M0 0 C0.44730469 0.42152344 0.89460938 0.84304688 1.35546875 1.27734375 C5.98399766 5.5377979 5.98399766 5.5377979 12 7 C11.2575 7.721875 10.515 8.44375 9.75 9.1875 C7.0127891 11.87178923 7.0127891 11.87178923 5 14.625 C2.86463534 17.16074553 0.95210519 18.52394741 -2 20 C-2.66 20 -3.32 20 -4 20 C-4 20.66 -4 21.32 -4 22 C-12.1265923 26.24892897 -20.05469248 30.29818397 -28.84765625 33 C-32.76419007 34.24241965 -36.59494054 35.67226124 -40.4375 37.125 C-41.11232422 37.37910645 -41.78714844 37.63321289 -42.48242188 37.89501953 C-46.00352698 39.22644841 -49.51041703 40.58803001 -53 42 C-55 38 -57 34 -59 30 C-56.25084619 28.97684208 -53.50080386 27.95620723 -50.75 26.9375 C-49.90115234 26.62240479 -49.05230469 26.30730957 -48.17773438 25.98266602 C-43.69366101 24.32745735 -39.20147979 22.71410738 -34.671875 21.1875 C-20.58753863 16.43642784 -9.34356039 12.11202272 0 0 Z " fill="#D9C17A" transform="translate(260,356)"/>
<path d="M0 0 C3.60062011 2.77762123 6.83047153 5.73991357 10 9 C8.4152642 12.86328627 5.94043113 15.28876923 2.9921875 18.203125 C2.50670441 18.6857782 2.02122131 19.1684314 1.52102661 19.66571045 C-0.02299866 21.19858562 -1.57384824 22.72434004 -3.125 24.25 C-4.17624009 25.29120361 -5.22702657 26.33286541 -6.27734375 27.375 C-8.84633004 29.92199464 -11.42148161 32.46265177 -14 35 C-15.13199353 34.0919838 -16.25532363 33.17316174 -17.375 32.25 C-18.00148438 31.73953125 -18.62796875 31.2290625 -19.2734375 30.703125 C-21.08312318 28.91800519 -22.00117455 27.32050356 -23 25 C-21.1875 22.5 -21.1875 22.5 -19 20 C-18.01 20 -17.02 20 -16 20 C-16 19.01 -16 18.02 -16 17 C-15.34 17 -14.68 17 -14 17 C-14 16.34 -14 15.68 -14 15 C-11.17184109 12.43492564 -8.71012723 10.36332091 -5.3125 8.625 C-1.98055453 6.28363291 -1.36084795 3.79604955 0 0 Z " fill="#949290" transform="translate(446,169)"/>
<path d="M0 0 C6.10892893 2.99212845 9.77581928 6.7197741 14 12 C14.804375 12.99 15.60875 13.98 16.4375 15 C17.2109375 15.99 17.2109375 15.99 18 17 C16.35 16.67 14.7 16.34 13 16 C12.9175 15.38125 12.835 14.7625 12.75 14.125 C12.18741541 11.81562433 12.18741541 11.81562433 9.9375 10.75 C8.9784375 10.37875 8.9784375 10.37875 8 10 C8 9.34 8 8.68 8 8 C7.34 8 6.68 8 6 8 C6 7.34 6 6.68 6 6 C5.34 6 4.68 6 4 6 C4 5.34 4 4.68 4 4 C-0.27990445 4.47554494 -2.12698311 6.98683595 -5 10 C-5.845625 10.639375 -6.69125 11.27875 -7.5625 11.9375 C-10.13217543 13.89377385 -10.13217543 13.89377385 -11.6875 16.75 C-13.90778002 19.87039354 -15.81235077 21.56370679 -18.8125 23.875 C-22.67074349 26.85407915 -25.77904172 29.8549234 -28.8828125 33.58984375 C-33.4472509 38.78589263 -38.48376104 43.55886653 -43.40283203 48.41674805 C-44.84019472 49.8415871 -46.26468154 51.27938714 -47.6875 52.71875 C-49.68635853 54.69059693 -51.7227809 56.51303051 -53.875 58.3125 C-57.34501987 61.31377422 -60.31824266 64.53234192 -63.28125 68.02734375 C-65.50044872 70.57437865 -67.89429366 72.90924235 -70.30859375 75.26953125 C-72.02276205 77.02328773 -73.57085136 78.85401816 -75.125 80.75 C-77.45280706 83.53460791 -79.71624508 85.35812254 -83 87 C-81.73471516 82.12760478 -80.16036206 79.77396221 -76.3125 76.5625 C-72.48315853 73.28733241 -68.8691351 69.94102491 -65.375 66.3125 C-64 65 -64 65 -62 64 C-61.67 63.01 -61.34 62.02 -61 61 C-59.0625 58.8125 -59.0625 58.8125 -57 57 C-56.34 57 -55.68 57 -55 57 C-55 56.34 -55 55.68 -55 55 C-53.390625 53.34375 -53.390625 53.34375 -51.25 51.5 C-50.55390625 50.8915625 -49.8578125 50.283125 -49.140625 49.65625 C-47 48 -47 48 -44.859375 47.03125 C-42.45867289 45.69976816 -42.17147355 44.46353996 -41 42 C-39.38149991 40.04248976 -37.70955013 38.1285173 -36 36.25 C-35.54882812 35.74339844 -35.09765625 35.23679688 -34.6328125 34.71484375 C-33.46639188 33.43454183 -32.23716029 32.21208271 -31 31 C-30.34 31 -29.68 31 -29 31 C-29 30.34 -29 29.68 -29 29 C-28.01 28.34 -27.02 27.68 -26 27 C-25.505 25.515 -25.505 25.515 -25 24 C-24.01 24 -23.02 24 -22 24 C-21.505 22.515 -21.505 22.515 -21 21 C-20.34 21 -19.68 21 -19 21 C-18.773125 20.443125 -18.54625 19.88625 -18.3125 19.3125 C-16.62449964 16.33840412 -14.53323483 14.27991135 -12 12 C-11.34 12 -10.68 12 -10 12 C-9.79375 11.443125 -9.5875 10.88625 -9.375 10.3125 C-7.42316968 7.02987629 -5.05769006 5.29326754 -2 3 C-1.34 3 -0.68 3 0 3 C0 2.01 0 1.02 0 0 Z M-86 87 C-85.01 87.33 -84.02 87.66 -83 88 C-85.31 90.31 -87.62 92.62 -90 95 C-90.33 94.01 -90.66 93.02 -91 92 C-89.35 90.35 -87.7 88.7 -86 87 Z M-94 95 C-93.01 95.33 -92.02 95.66 -91 96 C-93.31 98.31 -95.62 100.62 -98 103 C-98.33 101.68 -98.66 100.36 -99 99 C-96.6875 96.9375 -96.6875 96.9375 -94 95 Z M-101 103 C-100.34 103.33 -99.68 103.66 -99 104 C-102.96 107.465 -102.96 107.465 -107 111 C-107.66 110.67 -108.32 110.34 -109 110 C-106.36 107.69 -103.72 105.38 -101 103 Z " fill="#F0B415" transform="translate(363,137)"/>
<path d="M0 0 C0 0.66 0 1.32 0 2 C-1.35432691 3.35432691 -2.7302731 4.68731586 -4.125 6 C-6.22798038 7.7862684 -6.22798038 7.7862684 -6 10 C-6.556875 10.061875 -7.11375 10.12375 -7.6875 10.1875 C-10.97199875 11.34151307 -12.65442984 13.47400137 -15 16 C-15.5775 16.53625 -16.155 17.0725 -16.75 17.625 C-18.25659086 19.09616618 -18.25659086 19.09616618 -19 22 C-20.66590457 23.00126907 -22.33270407 24.00104952 -24 25 C-25.6582565 26.69883374 -27.25989586 28.45409602 -28.8125 30.25 C-32.35559142 34.24975653 -35.95328049 37.80341486 -40.0390625 41.23046875 C-43.68032927 44.51631307 -46.82197624 48.27258383 -50 52 C-51.32 51.67 -52.64 51.34 -54 51 C-53.54625 50.5875 -53.0925 50.175 -52.625 49.75 C-50.9265086 48.11563181 -50.9265086 48.11563181 -50.1875 46.125 C-48.76189179 43.57391162 -46.86520445 42.09604727 -44.58984375 40.3046875 C-42.73285361 38.8291978 -42.73285361 38.8291978 -40.25 36.1875 C-38 34 -38 34 -36 34 C-35.73985107 33.40195557 -35.47970215 32.80391113 -35.21166992 32.18774414 C-33.90750959 29.83300292 -32.69478485 28.67963466 -30.61328125 26.99609375 C-26.98858182 23.92979617 -23.61358497 20.67419391 -20.29296875 17.28515625 C-19.79652863 16.78067963 -19.3000885 16.276203 -18.78860474 15.75643921 C-16.72487957 13.65685629 -14.66481287 11.55387979 -12.61352539 9.44213867 C-11.09664997 7.8831344 -9.57064113 6.33357163 -8.04296875 4.78515625 C-7.14602295 3.86613525 -6.24907715 2.94711426 -5.32495117 2.00024414 C-3 0 -3 0 0 0 Z " fill="#D4AC3F" transform="translate(358,130)"/>
<path d="M0 0 C0.33 0.99 0.66 1.98 1 3 C1.66 3 2.32 3 3 3 C4.65625 4.609375 4.65625 4.609375 6.5 6.75 C7.1084375 7.44609375 7.716875 8.1421875 8.34375 8.859375 C10 11 10 11 11.03125 13.203125 C11.9273424 15.35632919 11.9273424 15.35632919 15 16 C15.33 16.66 15.66 17.32 16 18 C16.99 18.33 17.98 18.66 19 19 C20.6875 20.4375 20.6875 20.4375 22 22 C22 22.66 22 23.32 22 24 C22.99 24.33 23.98 24.66 25 25 C26.2418067 26.47056056 27.47998473 27.94491317 28.67578125 29.453125 C30.53091369 31.62018236 32.77144077 33.22858112 35 35 C38.74752179 39.29862794 41.48155304 43.90929312 44 49 C38.37116701 44.31429594 33.16421013 39.31520448 28 34.125 C27.23171875 33.36058594 26.4634375 32.59617188 25.671875 31.80859375 C21.45662197 27.58617193 17.42433935 23.27184467 13.53222656 18.75048828 C11.57885569 16.51886478 9.50228598 14.4404013 7.375 12.375 C4.01693044 9.06285276 0.93371414 5.69080166 -2 2 C-1.34 1.34 -0.68 0.68 0 0 Z " fill="#D6BA7B" transform="translate(367,135)"/>
<path d="M0 0 C3.57203608 1.78601804 5.43350965 3.06686817 8 6 C8 6.66 8 7.32 8 8 C8.66 8 9.32 8 10 8 C10 8.66 10 9.32 10 10 C8.03125 11.5078125 8.03125 11.5078125 5.5 13.125 C4.24703125 13.93324219 4.24703125 13.93324219 2.96875 14.7578125 C1.99421875 15.37269531 1.99421875 15.37269531 1 16 C0.01 15.34 -0.98 14.68 -2 14 C-2 13.34 -2 12.68 -2 12 C-3.32 11.67 -4.64 11.34 -6 11 C-6 10.34 -6 9.68 -6 9 C-6.66 8.67 -7.32 8.34 -8 8 C-5.36 5.36 -2.72 2.72 0 0 Z " fill="#B1B0AC" transform="translate(364,121)"/>
<path d="M0 0 C1.12894876 0.93274109 2.25300876 1.87140122 3.375 2.8125 C4.00148438 3.33457031 4.62796875 3.85664062 5.2734375 4.39453125 C7 6 7 6 9 9 C6.36 11.64 3.72 14.28 1 17 C-6.09821429 10.97321429 -6.09821429 10.97321429 -9 8 C-8.43410156 7.50628906 -7.86820312 7.01257813 -7.28515625 6.50390625 C-6.55167969 5.86324219 -5.81820313 5.22257812 -5.0625 4.5625 C-4.33160156 3.92441406 -3.60070312 3.28632812 -2.84765625 2.62890625 C-1.87860647 1.77458541 -0.91348825 0.91348825 0 0 Z " fill="#B9B3B4" transform="translate(381,104)"/>
<path d="M0 0 C3.21043882 1.38188453 5.04936365 2.92421903 7.25 5.625 C7.77078125 6.25664063 8.2915625 6.88828125 8.828125 7.5390625 C9.40820312 8.26222656 9.40820312 8.26222656 10 9 C8.71372289 10.17260611 7.42080217 11.3379283 6.125 12.5 C5.40570313 13.1496875 4.68640625 13.799375 3.9453125 14.46875 C2 16 2 16 0 16 C-1.7265625 14.25 -1.7265625 14.25 -3.625 12 C-4.25664062 11.2575 -4.88828125 10.515 -5.5390625 9.75 C-6.26222656 8.88375 -6.26222656 8.88375 -7 8 C-6.02133662 6.85373678 -5.04205413 5.70800212 -4.0625 4.5625 C-3.51722656 3.92441406 -2.97195313 3.28632812 -2.41015625 2.62890625 C-1.63204305 1.73008851 -0.84063472 0.84063472 0 0 Z " fill="#8C8C8C" transform="translate(372,113)"/>
<path d="M0 0 C6.10892893 2.99212845 9.77581928 6.7197741 14 12 C14.804375 12.99 15.60875 13.98 16.4375 15 C17.2109375 15.99 17.2109375 15.99 18 17 C16.35 16.67 14.7 16.34 13 16 C12.9175 15.38125 12.835 14.7625 12.75 14.125 C12.18741541 11.81562433 12.18741541 11.81562433 9.9375 10.75 C9.298125 10.5025 8.65875 10.255 8 10 C8 9.34 8 8.68 8 8 C7.34 8 6.68 8 6 8 C6 7.34 6 6.68 6 6 C5.34 6 4.68 6 4 6 C4 5.34 4 4.68 4 4 C-0.27990445 4.47554494 -2.12698311 6.98683595 -5 10 C-5.845625 10.639375 -6.69125 11.27875 -7.5625 11.9375 C-10.17439165 13.94821033 -10.17439165 13.94821033 -12 17.0625 C-14.08131845 20.11943648 -15.73275699 21.36637849 -19 23 C-18.58565093 18.16592748 -16.62206046 16.10462326 -13 13 C-12.01 12.67 -11.02 12.34 -10 12 C-9.731875 11.4225 -9.46375 10.845 -9.1875 10.25 C-7.4236086 6.90788997 -5.01958493 5.2646887 -2 3 C-1.34 3 -0.68 3 0 3 C0 2.01 0 1.02 0 0 Z M-21 23 C-19 24 -19 24 -19 24 Z " fill="#EEBB23" transform="translate(363,137)"/>
<path d="M0 0 C0.33 0.99 0.66 1.98 1 3 C0.38125 3.2475 -0.2375 3.495 -0.875 3.75 C-3.43705761 5.25709271 -3.70205785 6.38043062 -5 9 C-6.04318994 10.30398743 -7.1299596 11.57389676 -8.25 12.8125 C-8.86488281 13.49957031 -9.47976562 14.18664062 -10.11328125 14.89453125 C-10.73589844 15.58933594 -11.35851562 16.28414063 -12 17 C-13.14967801 18.33001966 -14.2958399 19.66309162 -15.4375 21 C-16.283125 21.99 -17.12875 22.98 -18 24 C-18.99 23.67 -19.98 23.34 -21 23 C-21 23.66 -21 24.32 -21 25 C-21.99 25 -22.98 25 -24 25 C-24 25.66 -24 26.32 -24 27 C-24.66 26.67 -25.32 26.34 -26 26 C-21.57232022 20.64017711 -16.77928 15.6696499 -11.875 10.75 C-11.2773584 10.14784668 -10.6797168 9.54569336 -10.06396484 8.92529297 C-6.85532812 5.7273428 -3.61051635 2.75216718 0 0 Z " fill="#D1A232" transform="translate(233,252)"/>
<path d="M0 0 C0 3.15084005 -0.45473667 4.33871316 -2 7 C-2.66 7.66 -3.32 8.32 -4 9 C-4.59296875 9.61875 -5.1859375 10.2375 -5.796875 10.875 C-11.93367839 16.79418625 -19.17385016 21.63310953 -27 25 C-27.84949219 25.38285156 -28.69898438 25.76570313 -29.57421875 26.16015625 C-37.08127835 29.39312352 -37.08127835 29.39312352 -41 28 C-40.14277344 27.68546875 -39.28554687 27.3709375 -38.40234375 27.046875 C-32.2675634 24.75065507 -26.61054175 22.36632505 -21 19 C-20.34 19 -19.68 19 -19 19 C-19 18.34 -19 17.68 -19 17 C-17.989375 16.505 -16.97875 16.01 -15.9375 15.5 C-11.90273633 13.23659599 -9.34005381 10.19530775 -6.48046875 6.609375 C-5.99191406 6.07828125 -5.50335938 5.5471875 -5 5 C-4.34 5 -3.68 5 -3 5 C-2.690625 4.360625 -2.38125 3.72125 -2.0625 3.0625 C-1 1 -1 1 0 0 Z " fill="#E8E0CE" transform="translate(275,359)"/>
<path d="M0 0 C-1.31423848 3.54844388 -3.40806602 5.17742054 -6.3203125 7.4765625 C-8.20577124 9.18662973 -9.56794032 11.00283317 -11.0625 13.0625 C-14.2406918 17.2953384 -17.81296378 20.85631767 -21.6875 24.4375 C-22.24638916 24.95771729 -22.80527832 25.47793457 -23.38110352 26.01391602 C-26.08801035 28.47440881 -28.58977135 30.61433532 -32 32 C-30.67281894 28.96179631 -29.35354473 27.2222523 -26.75 25.1875 C-23.48176717 22.51969407 -20.87286042 19.62537401 -18.26171875 16.3203125 C-17.84535156 15.88460938 -17.42898438 15.44890625 -17 15 C-16.34 15 -15.68 15 -15 15 C-14.773125 14.443125 -14.54625 13.88625 -14.3125 13.3125 C-12.63569499 10.35812928 -10.42675648 8.36897657 -8 6 C-7.278125 5.0925 -6.55625 4.185 -5.8125 3.25 C-3.86054227 0.82688005 -3.10885956 0 0 0 Z " fill="#E9A509" transform="translate(304,314)"/>
<path d="M0 0 C2.31 1.98 4.62 3.96 7 6 C6.52354792 10.28806873 5.34097516 12.26647487 2 15 C1.34 15 0.68 15 0 15 C-0.20367187 15.53109375 -0.40734375 16.0621875 -0.6171875 16.609375 C-2.59505609 20.02874104 -5.30326899 22.51337921 -8.125 25.25 C-8.68832031 25.80429688 -9.25164062 26.35859375 -9.83203125 26.9296875 C-11.21686028 28.29104485 -12.60783204 29.64614859 -14 31 C-14.66 30.67 -15.32 30.34 -16 30 C-15.67 29.34 -15.34 28.68 -15 28 C-14.34 28 -13.68 28 -13 28 C-13 26.68 -13 25.36 -13 24 C-12.443125 23.773125 -11.88625 23.54625 -11.3125 23.3125 C-8.77527615 22.00796402 -8.77527615 22.00796402 -6.375 19.375 C-5.59125 18.59125 -4.8075 17.8075 -4 17 C-3.34 17 -2.68 17 -2 17 C-1.566875 16.1028125 -1.566875 16.1028125 -1.125 15.1875 C0 13 0 13 2 10 C2.99 10 3.98 10 5 10 C4.81171228 7.55519921 4.81171228 7.55519921 4 5 C2.03241727 3.63979849 2.03241727 3.63979849 0 3 C0 2.01 0 1.02 0 0 Z " fill="#EBB926" transform="translate(415,188)"/>
<path d="M0 0 C0.66 0 1.32 0 2 0 C0.42820722 3.81523513 -1.97686181 6.19223577 -4.90234375 9.0625 C-5.38071182 9.5356665 -5.8590799 10.00883301 -6.35194397 10.49633789 C-7.87576561 12.00241414 -9.40611499 13.50161794 -10.9375 15 C-12.46444085 16.49922211 -13.98985772 17.99991648 -15.51234436 19.50366211 C-16.89549963 20.8690468 -18.2834423 22.22957673 -19.67163086 23.58984375 C-22.00675924 25.88229199 -22.00675924 25.88229199 -23.62719727 28.31640625 C-24.08022217 28.87199219 -24.53324707 29.42757812 -25 30 C-25.99 30 -26.98 30 -28 30 C-28 29.34 -28 28.68 -28 28 C-27.34 28 -26.68 28 -26 28 C-25.773125 27.443125 -25.54625 26.88625 -25.3125 26.3125 C-23.62449964 23.33840412 -21.53323483 21.27991135 -19 19 C-18.34 19 -17.68 19 -17 19 C-16.7525 18.4225 -16.505 17.845 -16.25 17.25 C-14.81700012 14.67060021 -13.21575324 12.93878408 -11 11 C-10.34 11 -9.68 11 -9 11 C-8.67 10.01 -8.34 9.02 -8 8 C-7.34 8 -6.68 8 -6 8 C-6 7.34 -6 6.68 -6 6 C-4.37550757 4.29220027 -2.70779973 2.62449243 -1 1 C-0.67 0.67 -0.34 0.34 0 0 Z " fill="#DE473C" transform="translate(476,140)"/>
<path d="M0 0 C0.66 0.33 1.32 0.66 2 1 C-3.19494365 7.13284616 -8.72631259 12.84863969 -14.4375 18.5 C-15.26443359 19.32242188 -16.09136719 20.14484375 -16.94335938 20.9921875 C-18.95994959 22.99712113 -20.97885236 24.99966253 -23 27 C-23.33 25.68 -23.66 24.36 -24 23 C-23.55269531 22.62488281 -23.10539062 22.24976562 -22.64453125 21.86328125 C-17.69909105 17.67705575 -13.12687192 13.38395141 -9 8.375 C-6.61059675 5.52870827 -4.28769627 3.78474941 -1 2 C-0.67 1.34 -0.34 0.68 0 0 Z M-26 27 C-25.34 27.33 -24.68 27.66 -24 28 C-25.98 28.99 -25.98 28.99 -28 30 C-27.34 29.01 -26.68 28.02 -26 27 Z " fill="#DE5E5C" transform="translate(424,77)"/>
<path d="M0 0 C0.66 0.33 1.32 0.66 2 1 C-1.3 3.97 -4.6 6.94 -8 10 C-8.66 9.67 -9.32 9.34 -10 9 C-8.89902432 7.87187697 -7.79408444 6.74762189 -6.6875 5.625 C-6.07261719 4.99851562 -5.45773437 4.37203125 -4.82421875 3.7265625 C-3 2 -3 2 0 0 Z M-11 10 C-10.67 10.99 -10.34 11.98 -10 13 C-10.99 13.33 -11.98 13.66 -13 14 C-13.33 14.825 -13.66 15.65 -14 16.5 C-14.33 17.325 -14.66 18.15 -15 19 C-15.99 19.33 -16.98 19.66 -18 20 C-18.33 20.99 -18.66 21.98 -19 23 C-21.0625 23.6875 -21.0625 23.6875 -23 24 C-19.34161026 18.88863277 -15.55388068 14.33702922 -11 10 Z " fill="#C26161" transform="translate(419,66)"/>
<path d="M0 0 C0 3.3 0 6.6 0 10 C-0.66 9.67 -1.32 9.34 -2 9 C-1.67 6.69 -1.34 4.38 -1 2 C-1.5053125 2.16113281 -2.010625 2.32226562 -2.53125 2.48828125 C-5.87728277 3.18184184 -9.08480559 3.17069294 -12.5 3.1875 C-13.8096875 3.20167969 -15.119375 3.21585937 -16.46875 3.23046875 C-19.67108832 3.02146658 -21.35158038 2.70931164 -24 1 C-20.07665798 -0.20561031 -16.07009051 -0.37430602 -12 -0.625 C-11.2884375 -0.6765625 -10.576875 -0.728125 -9.84375 -0.78125 C-6.22100848 -1.01105077 -3.56316247 -0.89079062 0 0 Z " fill="#E89707" transform="translate(268,322)"/>
<path d="M0 0 C0.66 0 1.32 0 2 0 C2 0.66 2 1.32 2 2 C1.34 2 0.68 2 0 2 C-0.185625 2.66 -0.37125 3.32 -0.5625 4 C-1.94691291 6.88920956 -3.19049498 8.3516179 -5.375 10.625 C-9.55333106 15.17842132 -11.26734296 20.14555633 -13 26 C-13.66 26 -14.32 26 -15 26 C-14.67 23.36 -14.34 20.72 -14 18 C-13.34 18 -12.68 18 -12 18 C-11.90332031 17.2575 -11.80664062 16.515 -11.70703125 15.75 C-10.90614264 12.63494152 -9.87298423 11.32119953 -7.6875 9 C-5.56909043 6.7079503 -3.59732856 4.47761543 -1.6875 2 C-1.130625 1.34 -0.57375 0.68 0 0 Z " fill="#CCBF9C" transform="translate(190,294)"/>
<path d="M0 0 C3.96 0 7.92 0 12 0 C12.22786458 2.70182292 12.45572917 5.40364583 12.68359375 8.10546875 C12.97666151 10.78649602 13.42703754 13.3662986 14 16 C13.34 16 12.68 16 12 16 C12 14.68 12 13.36 12 12 C11.34 12 10.68 12 10 12 C10 8.7 10 5.4 10 2 C7.03 2 4.06 2 1 2 C0.67 1.34 0.34 0.68 0 0 Z " fill="#FDDB73" transform="translate(243,335)"/>
<path d="M0 0 C0 3 0 3 -1.74414062 5.0847168 C-2.54013672 5.86500244 -3.33613281 6.64528809 -4.15625 7.44921875 C-5.01347656 8.29677734 -5.87070312 9.14433594 -6.75390625 10.01757812 C-7.66011719 10.89865234 -8.56632812 11.77972656 -9.5 12.6875 C-10.40621094 13.58017578 -11.31242187 14.47285156 -12.24609375 15.39257812 C-14.49085168 17.60189251 -16.74229998 19.80392533 -19 22 C-19 18.47967572 -18.29648649 17.5614657 -16 15 C-15.34 15 -14.68 15 -14 15 C-13.79632813 14.45859375 -13.59265625 13.9171875 -13.3828125 13.359375 C-11.44687192 10.05624474 -8.71300664 7.75877153 -5.875 5.25 C-5.31167969 4.74339844 -4.74835938 4.23679687 -4.16796875 3.71484375 C-2.78348469 2.47115468 -1.39238512 1.23483695 0 0 Z " fill="#E6A50D" transform="translate(334,283)"/>
<path d="M0 0 C0.66 0 1.32 0 2 0 C2 0.66 2 1.32 2 2 C2.99 2.33 3.98 2.66 5 3 C6.2418067 4.47056056 7.47998473 5.94491317 8.67578125 7.453125 C10.53091369 9.62018236 12.77144077 11.22858112 15 13 C16.37368345 14.63356951 17.71937515 16.2925002 19 18 C18.67 18.66 18.34 19.32 18 20 C14.99196428 17.04974274 11.9949821 14.08850331 9 11.125 C8.14148438 10.28324219 7.28296875 9.44148437 6.3984375 8.57421875 C5.58632813 7.76855469 4.77421875 6.96289062 3.9375 6.1328125 C2.80634766 5.01737061 2.80634766 5.01737061 1.65234375 3.87939453 C0 2 0 2 0 0 Z " fill="#BFB8A6" transform="translate(387,157)"/>
<path d="M0 0 C0.33 1.32 0.66 2.64 1 4 C-1.43619126 7.74798655 -4.44329128 10.33246846 -8 13 C-8.99 12.34 -9.98 11.68 -11 11 C-7.37 7.37 -3.74 3.74 0 0 Z " fill="#EBDCBB" transform="translate(287,347)"/>
<path d="M0 0 C0.8125 1.6875 0.8125 1.6875 1 4 C-1.125 6.5 -1.125 6.5 -4 9 C-4.86625 9.763125 -5.7325 10.52625 -6.625 11.3125 C-9 13 -9 13 -12 13 C-10.86528532 9.59585597 -9.82774013 8.75723352 -7.125 6.5 C-4.64584653 4.41421775 -2.2560424 2.32698713 0 0 Z " fill="#D4A72B" transform="translate(303,182)"/>
<path d="M0 0 C0.33 1.32 0.66 2.64 1 4 C-0.423125 4.86625 -0.423125 4.86625 -1.875 5.75 C-4.93410461 7.95255532 -5.50251187 8.79109686 -7 12 C-9.0625 13.125 -9.0625 13.125 -11 14 C-11.33 14.66 -11.66 15.32 -12 16 C-14.0625 16.625 -14.0625 16.625 -16 17 C-16 16.34 -16 15.68 -16 15 C-14.53125 13.5546875 -14.53125 13.5546875 -12.5 11.875 C-8.09475988 8.1384124 -4.03400765 4.13056634 0 0 Z " fill="#CFA636" transform="translate(290,195)"/>
<path d="M0 0 C6.90504034 3.34789835 11.37675374 10.08224479 16 16 C14.35 15.67 12.7 15.34 11 15 C10.9175 14.38125 10.835 13.7625 10.75 13.125 C10.18741541 10.81562433 10.18741541 10.81562433 7.9375 9.75 C7.298125 9.5025 6.65875 9.255 6 9 C6 8.34 6 7.68 6 7 C5.34 7 4.68 7 4 7 C4 6.34 4 5.68 4 5 C3.34 5 2.68 5 2 5 C2 4.34 2 3.68 2 3 C1.34 3 0.68 3 0 3 C0 2.01 0 1.02 0 0 Z " fill="#F0C549" transform="translate(365,138)"/>
<path d="M0 0 C0.99 0.33 1.98 0.66 3 1 C-1.29 5.29 -5.58 9.58 -10 14 C-10.66 13.67 -11.32 13.34 -12 13 C-11.67 12.34 -11.34 11.68 -11 11 C-10.34 11 -9.68 11 -9 11 C-9 9.68 -9 8.36 -9 7 C-8.1646875 6.6596875 -8.1646875 6.6596875 -7.3125 6.3125 C-4.36753316 4.64103234 -2.31843456 2.44723648 0 0 Z " fill="#E9B522" transform="translate(411,205)"/>
<path d="M0 0 C0 3 0 3 -2.1171875 5.48046875 C-3.02726562 6.37378906 -3.93734375 7.26710937 -4.875 8.1875 C-5.77992188 9.08855469 -6.68484375 9.98960937 -7.6171875 10.91796875 C-10 13 -10 13 -12 13 C-12 13.66 -12 14.32 -12 15 C-13.32 15.33 -14.64 15.66 -16 16 C-14.76210371 12.28631113 -13.14775123 11.22645819 -10 9 C-9.34 9 -8.68 9 -8 9 C-7.79375 8.443125 -7.5875 7.88625 -7.375 7.3125 C-5.44999226 4.07498698 -2.96149098 2.31768859 0 0 Z " fill="#E8B21D" transform="translate(398,219)"/>
<path d="M0 0 C0.99 0.33 1.98 0.66 3 1 C-0.3 4.3 -3.6 7.6 -7 11 C-7.99 10.67 -8.98 10.34 -10 10 C-10 9.01 -10 8.02 -10 7 C-8.68 7.33 -7.36 7.66 -6 8 C-6 6.35 -6 4.7 -6 3 C-4.68 3.33 -3.36 3.66 -2 4 C-1.34 2.68 -0.68 1.36 0 0 Z " fill="#D3A82E" transform="translate(390,241)"/>
<path d="M0 0 C0.66 0.66 1.32 1.32 2 2 C1.09674384 3.32176485 0.17682097 4.63215066 -0.75 5.9375 C-1.26046875 6.66839844 -1.7709375 7.39929688 -2.296875 8.15234375 C-4.19177915 10.20805399 -5.27425729 10.62669176 -8 11 C-8 8 -8 8 -6.25 5.95703125 C-5.5075 5.24933594 -4.765 4.54164062 -4 3.8125 C-2.88625 2.73935547 -2.88625 2.73935547 -1.75 1.64453125 C-1.1725 1.10183594 -0.595 0.55914062 0 0 Z " fill="#C15F5E" transform="translate(395,90)"/>
<path d="M0 0 C1.32 0.33 2.64 0.66 4 1 C0.33333333 4.66666667 -3.33333333 8.33333333 -7 12 C-7.33 10.68 -7.66 9.36 -8 8 C-2.25 3 -2.25 3 0 3 C0 2.01 0 1.02 0 0 Z " fill="#D1A733" transform="translate(361,269)"/>
<path d="M0 0 C0.66 0 1.32 0 2 0 C2 0.66 2 1.32 2 2 C1.34 2 0.68 2 0 2 C-0.226875 2.70125 -0.45375 3.4025 -0.6875 4.125 C-2.31656867 7.69343613 -4.40640731 10.06514511 -7 13 C-7.33 12.01 -7.66 11.02 -8 10 C-6.41796875 7.51953125 -6.41796875 7.51953125 -4.1875 4.8125 C-3.45917969 3.91144531 -2.73085937 3.01039063 -1.98046875 2.08203125 C-1.32691406 1.39496094 -0.67335937 0.70789063 0 0 Z " fill="#D7CA99" transform="translate(190,294)"/>
<path d="M0 0 C0.33 0.66 0.66 1.32 1 2 C0.67 2.99 0.34 3.98 0 5 C-2.0625 5.6875 -2.0625 5.6875 -4 6 C-4 6.99 -4 7.98 -4 9 C-5.65 9.33 -7.3 9.66 -9 10 C-8.06409496 8.8944811 -7.12620142 7.79064547 -6.1875 6.6875 C-5.66542969 6.07261719 -5.14335937 5.45773438 -4.60546875 4.82421875 C-3.12827531 3.14575321 -1.59960869 1.56117966 0 0 Z " fill="#D3A32C" transform="translate(251,234)"/>
<path d="M0 0 C0.66 1.32 1.32 2.64 2 4 C1.01 4.33 0.02 4.66 -1 5 C-1.33 5.99 -1.66 6.98 -2 8 C-3.65 8 -5.3 8 -7 8 C-6.02133662 6.85373678 -5.04205413 5.70800212 -4.0625 4.5625 C-3.51722656 3.92441406 -2.97195313 3.28632813 -2.41015625 2.62890625 C-1.63204305 1.73008851 -0.84063472 0.84063472 0 0 Z " fill="#EAE0BF" transform="translate(354,280)"/>
<path d="M0 0 C7.48291572 6.15034169 7.48291572 6.15034169 10 10 C6.75728494 9.4409112 5.06942576 8.5867822 3 6 C3 5.34 3 4.68 3 4 C2.01 4 1.02 4 0 4 C0 2.68 0 1.36 0 0 Z " fill="#DFBBB7" transform="translate(396,119)"/>
<path d="M0 0 C0.66 0.33 1.32 0.66 2 1 C0.92492371 2.29854721 -0.16043736 3.58858361 -1.25 4.875 C-1.85328125 5.59429687 -2.4565625 6.31359375 -3.078125 7.0546875 C-4.97087634 8.97052118 -6.53657727 9.96449045 -9 11 C-8.67 10.01 -8.34 9.02 -8 8 C-7.34 7.67 -6.68 7.34 -6 7 C-5.525625 6.195625 -5.05125 5.39125 -4.5625 4.5625 C-3 2 -3 2 0 0 Z " fill="#D7C791" transform="translate(268,364)"/>
<path d="M0 0 C0.33 1.32 0.66 2.64 1 4 C-0.6875 6.3125 -0.6875 6.3125 -3 8 C-4.32 7.67 -5.64 7.34 -7 7 C-4.69 4.69 -2.38 2.38 0 0 Z " fill="#ECDEC2" transform="translate(322,312)"/>
<path d="M0 0 C0.33 0.99 0.66 1.98 1 3 C1.66 3 2.32 3 3 3 C4.70680947 4.62553283 6.37660195 6.29115995 8 8 C7.67 8.66 7.34 9.32 7 10 C2.7257442 8.4169423 0.73468206 5.49431596 -2 2 C-1.34 1.34 -0.68 0.68 0 0 Z " fill="#CCC5AF" transform="translate(367,135)"/>
<path d="M0 0 C0.99 0.66 1.98 1.32 3 2 C0.36 4.64 -2.28 7.28 -5 10 C-5.33 8.68 -5.66 7.36 -6 6 C-5.01 6 -4.02 6 -3 6 C-2.67 5.01 -2.34 4.02 -2 3 C-1.34 3 -0.68 3 0 3 C0 2.01 0 1.02 0 0 Z " fill="#CD9E24" transform="translate(290,340)"/>
<path d="M0 0 C0.66 0 1.32 0 2 0 C2 1.32 2 2.64 2 4 C2.99 4.33 3.98 4.66 5 5 C2.03 7.475 2.03 7.475 -1 10 C-1 9.01 -1 8.02 -1 7 C-0.34 7 0.32 7 1 7 C0.67 4.69 0.34 2.38 0 0 Z " fill="#EDE3CA" transform="translate(202,274)"/>
<path d="M0 0 C0 0.66 0 1.32 0 2 C-3.63423209 4.32590854 -6.77088331 4.16265833 -11 4 C-7.2060585 0.99101192 -4.96966376 0 0 0 Z " fill="#E4E0CE" transform="translate(216,395)"/>
<path d="M0 0 C0.66 0 1.32 0 2 0 C2 1.32 2 2.64 2 4 C2.99 4.33 3.98 4.66 5 5 C4.360625 5.28875 3.72125 5.5775 3.0625 5.875 C0.84793921 6.82823451 0.84793921 6.82823451 0 9 C-1.15941038 5.52176885 -0.70820884 3.54104422 0 0 Z " fill="#E8E6D2" transform="translate(194,282)"/>
<path d="M0 0 C0.66 0.33 1.32 0.66 2 1 C1.525625 1.598125 1.05125 2.19625 0.5625 2.8125 C-1.16465744 5.00382924 -1.16465744 5.00382924 -2 8 C-3.65 8 -5.3 8 -7 8 C-6.02133662 6.85373678 -5.04205413 5.70800212 -4.0625 4.5625 C-3.51722656 3.92441406 -2.97195313 3.28632813 -2.41015625 2.62890625 C-1.63204305 1.73008851 -0.84063472 0.84063472 0 0 Z " fill="#EFE3BF" transform="translate(386,248)"/>
<path d="M0 0 C1.13199353 0.9080162 2.25532363 1.82683826 3.375 2.75 C4.00148438 3.26046875 4.62796875 3.7709375 5.2734375 4.296875 C7.08312318 6.08199481 8.00117455 7.67949644 9 10 C8.01 10.66 7.02 11.32 6 12 C5.938125 11.278125 5.87625 10.55625 5.8125 9.8125 C4.75776574 6.16149678 2.71850074 4.57909045 0 2 C0 1.34 0 0.68 0 0 Z " fill="#CBAB40" transform="translate(422,195)"/>
<path d="M0 0 C3.57410797 2.68058098 6.31941902 5.42589203 9 9 C5.12270528 8.42558597 2.78480942 6.70745361 0 4 C0 2.68 0 1.36 0 0 Z " fill="#B0908B" transform="translate(446,169)"/>
<path d="M0 0 C0 3.21518097 -0.1621112 4.41024759 -2 7 C-5.125 8.25 -5.125 8.25 -8 9 C-6.625 7 -6.625 7 -5 5 C-4.34 5 -3.68 5 -3 5 C-2.690625 4.360625 -2.38125 3.72125 -2.0625 3.0625 C-1 1 -1 1 0 0 Z " fill="#EBDEC3" transform="translate(275,359)"/>
<path d="M0 0 C1.65 0.33 3.3 0.66 5 1 C4.67 1.66 4.34 2.32 4 3 C3.34 3 2.68 3 2 3 C2 3.66 2 4.32 2 5 C0.02 5.99 0.02 5.99 -2 7 C-1.34 4.69 -0.68 2.38 0 0 Z " fill="#5F5D55" transform="translate(162,353)"/>
<path d="M0 0 C0.33 1.32 0.66 2.64 1 4 C-4.625 7 -4.625 7 -8 7 C-5.36 4.69 -2.72 2.38 0 0 Z " fill="#CDC5A3" transform="translate(399,236)"/>
<path d="M0 0 C0.33 0.66 0.66 1.32 1 2 C-0.125 4.5625 -0.125 4.5625 -2 7 C-4.6875 7.8125 -4.6875 7.8125 -7 8 C-6.02133662 6.85373678 -5.04205413 5.70800212 -4.0625 4.5625 C-3.51722656 3.92441406 -2.97195313 3.28632813 -2.41015625 2.62890625 C-1.63204305 1.73008851 -0.84063472 0.84063472 0 0 Z " fill="#E9DDB9" transform="translate(295,339)"/>
<path d="M0 0 C0.66 1.32 1.32 2.64 2 4 C0.03533587 5.06775224 -1.96855359 6.06553465 -4 7 C-4.66 6.67 -5.32 6.34 -6 6 C-4.02 4.02 -2.04 2.04 0 0 Z " fill="#EAE0C3" transform="translate(342,292)"/>
<path d="M0 0 C0.33 0.66 0.66 1.32 1 2 C0.06553465 4.03144641 -0.93224776 6.03533587 -2 8 C-3.32 7.34 -4.64 6.68 -6 6 C-4.02 4.02 -2.04 2.04 0 0 Z " fill="#EDE2C4" transform="translate(378,256)"/>
<path d="M0 0 C1.17539996 0.92652701 2.34010577 1.86663387 3.5 2.8125 C4.1496875 3.33457031 4.799375 3.85664063 5.46875 4.39453125 C7 6 7 6 7 9 C6.34 9 5.68 9 5 9 C4.87625 8.071875 4.87625 8.071875 4.75 7.125 C4.18741541 4.81562433 4.18741541 4.81562433 1.9375 3.75 C1.298125 3.5025 0.65875 3.255 0 3 C0 2.01 0 1.02 0 0 Z " fill="#F2C341" transform="translate(415,188)"/>
<path d="M0 0 C0 0.66 0 1.32 0 2 C-3.4019487 4.09350689 -6.05272412 4.17942163 -10 4 C-9.67 3.34 -9.34 2.68 -9 2 C-2.88888889 0 -2.88888889 0 0 0 Z " fill="#EBE1CD" transform="translate(226,391)"/>
<path d="M0 0 C0 0.66 0 1.32 0 2 C-1.62626404 3.38232443 -3.2925002 4.71937515 -5 6 C-5.99 5.34 -6.98 4.68 -8 4 C-5.57415142 1.34311822 -3.76063134 0 0 0 Z " fill="#EADECE" transform="translate(284,354)"/>
<path d="M0 0 C-1 1 -1 1 -3.50390625 1.09765625 C-5.01791016 1.08025391 -5.01791016 1.08025391 -6.5625 1.0625 C-7.57441406 1.05347656 -8.58632812 1.04445313 -9.62890625 1.03515625 C-10.41136719 1.02355469 -11.19382813 1.01195312 -12 1 C-12 0.34 -12 -0.32 -12 -1 C-10.56465159 -1.2226746 -9.12654475 -1.42761906 -7.6875 -1.625 C-6.48673828 -1.79902344 -6.48673828 -1.79902344 -5.26171875 -1.9765625 C-3 -2 -3 -2 0 0 Z " fill="#D38E12" transform="translate(256,334)"/>
<path d="M0 0 C0.33 1.32 0.66 2.64 1 4 C-1.375 5.5625 -1.375 5.5625 -4 7 C-4.66 6.67 -5.32 6.34 -6 6 C-4.02 4.02 -2.04 2.04 0 0 Z " fill="#ECDFBF" transform="translate(329,305)"/>
<path d="M0 0 C-0.6875 1.9375 -0.6875 1.9375 -2 4 C-4.625 4.75 -4.625 4.75 -7 5 C-2.25 0 -2.25 0 0 0 Z " fill="#E6A60C" transform="translate(312,307)"/>
<path d="M0 0 C5.875 3.75 5.875 3.75 7 6 C5.68 5.67 4.36 5.34 3 5 C3 4.34 3 3.68 3 3 C2.01 2.67 1.02 2.34 0 2 C0 1.34 0 0.68 0 0 Z M-2 2 C-1.01 2.495 -1.01 2.495 0 3 C-0.99 3.495 -0.99 3.495 -2 4 C-2 3.34 -2 2.68 -2 2 Z M-4 4 C-3.01 4.495 -3.01 4.495 -2 5 C-2.99 5.495 -2.99 5.495 -4 6 C-4 5.34 -4 4.68 -4 4 Z " fill="#F9C334" transform="translate(408,182)"/>
<path d="M0 0 C2.64 1.98 5.28 3.96 8 6 C5 7 5 7 3 7 C0 2.61538462 0 2.61538462 0 0 Z " fill="#635945" transform="translate(177,361)"/>
<path d="M0 0 C0 3.20395416 -0.74335022 5.09399739 -2 8 C-3.32 7.34 -4.64 6.68 -6 6 C-4.02 4.02 -2.04 2.04 0 0 Z " fill="#ECE0C0" transform="translate(362,272)"/>
<path d="M0 0 C0.33 0.66 0.66 1.32 1 2 C-0.8125 4.5 -0.8125 4.5 -3 7 C-3.99 7 -4.98 7 -6 7 C-4.77065985 3.31197956 -3.06140622 2.27643027 0 0 Z " fill="#D3AD43" transform="translate(297,188)"/>
<path d="M0 0 C0.99 0.33 1.98 0.66 3 1 C-1.455 4.465 -1.455 4.465 -6 8 C-6 7.01 -6 6.02 -6 5 C-3.1875 2.25 -3.1875 2.25 0 0 Z " fill="#CFAC49" transform="translate(329,156)"/>
<path d="M0 0 C0.33 0 0.66 0 1 0 C1.09978121 3.49234244 0.77842938 6.59437148 0 10 C-0.99 10 -1.98 10 -3 10 C-1.125 2.25 -1.125 2.25 0 0 Z " fill="#D6C897" transform="translate(166,342)"/>
<path d="M0 0 C0.66 1.32 1.32 2.64 2 4 C0.03533587 5.06775224 -1.96855359 6.06553465 -4 7 C-4.66 6.67 -5.32 6.34 -6 6 C-4.02 4.02 -2.04 2.04 0 0 Z " fill="#EBDEBA" transform="translate(310,324)"/>
<path d="M0 0 C0 3.10551666 -0.5393715 4.35261084 -2 7 C-3.32 6.67 -4.64 6.34 -6 6 C-4.02 4.02 -2.04 2.04 0 0 Z " fill="#D0A32E" transform="translate(258,227)"/>
<path d="M0 0 C3.36591866 1.44253657 5.51047079 3.33264727 8 6 C7.67 6.66 7.34 7.32 7 8 C4.35247996 5.42215154 2.05567935 3.08351902 0 0 Z " fill="#C15249" transform="translate(448,170)"/>
<path d="M0 0 C0.99 0.33 1.98 0.66 3 1 C-0.465 3.97 -0.465 3.97 -4 7 C-3.67 5.35 -3.34 3.7 -3 2 C-2.01 2 -1.02 2 0 2 C0 1.34 0 0.68 0 0 Z " fill="#D9BEB7" transform="translate(395,87)"/>
<path d="M0 0 C0.86625 0.3403125 0.86625 0.3403125 1.75 0.6875 C1.09 0.6875 0.43 0.6875 -0.25 0.6875 C-0.25 1.6775 -0.25 2.6675 -0.25 3.6875 C-3.22 3.1925 -3.22 3.1925 -6.25 2.6875 C-2.80384615 -0.38942308 -2.80384615 -0.38942308 0 0 Z " fill="#E6DEC7" transform="translate(232.25,388.3125)"/>
<path d="M0 0 C0.33 0.66 0.66 1.32 1 2 C-1.3125 4.5 -1.3125 4.5 -4 7 C-4.99 7 -5.98 7 -7 7 C-4.69 4.69 -2.38 2.38 0 0 Z " fill="#CF9F2D" transform="translate(241,244)"/>
</svg>
