<?xml version="1.0" encoding="UTF-8"?>
<svg version="1.1" xmlns="http://www.w3.org/2000/svg" width="512" height="512">
<path d="M0 0 C0.93563782 -0.00974854 1.87127563 -0.01949707 2.83526611 -0.02954102 C23.22559539 -0.19826879 42.98643913 -0.09161886 63.0078125 4.23828125 C63.9045166 4.42551758 64.8012207 4.61275391 65.72509766 4.80566406 C92.63181354 10.55542915 119.61949158 21.07799601 142.0078125 37.23828125 C142.96324951 37.91842285 142.96324951 37.91842285 143.93798828 38.61230469 C152.61115267 44.8201589 160.81160261 51.33664021 168.48193359 58.76367188 C169.53838772 59.78462914 170.60170667 60.7985127 171.67041016 61.80664062 C181.23707478 70.83657949 189.37204223 80.53353885 197.0078125 91.23828125 C197.41837891 91.80417969 197.82894531 92.37007813 198.25195312 92.953125 C222.47244083 126.70501417 233.05797658 170.49917434 237.0078125 211.23828125 C237.0996582 212.15174316 237.19150391 213.06520508 237.28613281 214.00634766 C239.1993543 234.19549199 239.1993543 234.19549199 234.0078125 241.23828125 C230.44268409 245.07320316 227.03264835 248.56333597 222.0078125 250.23828125 C221.98941818 250.7920343 221.97102386 251.34578735 221.95207214 251.9163208 C221.05050907 278.84835335 219.96024304 305.7360841 217.97338867 332.61230469 C217.90936356 333.48378647 217.84533844 334.35526825 217.77937317 335.25315857 C217.66049067 336.85726605 217.53898045 338.46118227 217.41410828 340.06483459 C216.31802591 349.39522503 216.31802591 349.39522503 219.8203125 357.67578125 C227.31671222 368.0717318 228.5154701 380.8097033 226.70751953 393.31542969 C224.31586538 406.23950221 219.19679986 418.52178874 209.0078125 427.23828125 C204.6453112 429.90176212 199.9542545 432.76407992 194.84765625 433.5859375 C191.98805673 434.59985071 191.29083265 436.5869396 189.8203125 439.17578125 C186.16214248 445.21019846 181.87221857 450.1531517 177.0078125 455.23828125 C176.07001953 456.28822266 176.07001953 456.28822266 175.11328125 457.359375 C162.27046033 471.22962159 143.84934123 477.70375859 125.390625 478.9921875 C122.86231454 479.16617265 122.86231454 479.16617265 120.0078125 480.23828125 C108.01296367 481.44387038 96.46430383 479.55825298 84.6953125 477.42578125 C83.59083771 477.22986893 83.59083771 477.22986893 82.46405029 477.02999878 C80.33399925 476.64777997 78.20775977 476.24925853 76.08203125 475.84375 C74.84026123 475.60809326 73.59849121 475.37243652 72.3190918 475.12963867 C68.1729725 474.01355214 65.06762976 472.71585716 62.53125 469.1796875 C56.97529975 457.67093342 54.88380965 445.77544198 54.8046875 433.05859375 C54.79762787 432.29723618 54.79056824 431.5358786 54.78329468 430.75144958 C54.52345786 394.37267929 59.38689839 359.10258627 70.0078125 324.23828125 C70.36311035 323.05903076 70.36311035 323.05903076 70.72558594 321.85595703 C77.1272522 300.88149906 85.75187138 275.72552007 104.0078125 262.23828125 C111.11827081 258.68305209 121.99757276 262.15182575 129.55395508 263.47216797 C131.80210096 263.86013842 134.05365704 264.21947776 136.30664062 264.578125 C147.8552945 266.51631838 158.20137835 269.54913273 166.30078125 278.515625 C168.21915036 280.45155355 170.21790747 281.82677516 172.5078125 283.30078125 C181.31712994 289.0000525 186.93701517 295.7309054 193.0078125 304.23828125 C194.10189784 300.95602523 194.21397846 298.35880074 194.32421875 294.90234375 C194.36619385 293.6191626 194.40816895 292.33598145 194.45141602 291.01391602 C194.49137054 289.63038037 194.53099657 288.24683519 194.5703125 286.86328125 C194.61319457 285.46085596 194.65608197 284.05843083 194.69897461 282.65600586 C195.02641644 271.51550343 195.1196317 260.38292774 195.0078125 249.23828125 C194.19594482 248.84213623 194.19594482 248.84213623 193.36767578 248.43798828 C192.65337402 248.08591309 191.93907227 247.73383789 191.203125 247.37109375 C190.49687988 247.02449707 189.79063477 246.67790039 189.06298828 246.32080078 C180.72268423 241.92772545 176.2498278 234.41765345 173.4453125 225.6171875 C171.85872106 220.09560355 171.01962804 214.53952179 170.1953125 208.86328125 C163.87842321 168.8295318 143.49517675 131.72447537 110.5703125 107.36328125 C74.12534694 81.38871872 28.00631535 72.16252131 -15.9921875 79.23828125 C-48.00023155 85.15739863 -75.28404426 97.83026199 -98.9921875 120.23828125 C-99.79140625 120.97304687 -100.590625 121.7078125 -101.4140625 122.46484375 C-128.22134813 147.99152656 -140.38352508 182.38595636 -145.90185547 218.17749023 C-147.79020405 229.84261128 -152.34530767 239.17501502 -161.9921875 246.23828125 C-167.2921875 249.23828125 -167.2921875 249.23828125 -169.9921875 249.23828125 C-169.73185522 256.58918073 -169.46465206 263.93980719 -169.19262695 271.2902832 C-169.10086646 273.79185295 -169.01069023 276.29348132 -168.92211914 278.79516602 C-168.79467679 282.38704689 -168.66157409 285.9786797 -168.52734375 289.5703125 C-168.48875748 290.69226517 -168.4501712 291.81421783 -168.41041565 292.97016907 C-168.37044968 294.01102158 -168.3304837 295.05187408 -168.28930664 296.12426758 C-168.25599747 297.04138016 -168.22268829 297.95849274 -168.18836975 298.90339661 C-168.07155223 301.39299838 -168.07155223 301.39299838 -166.9921875 304.23828125 C-166.39792969 303.40425781 -165.80367187 302.57023437 -165.19140625 301.7109375 C-158.05224037 291.93028025 -150.09154006 284.97118295 -139.9921875 278.23828125 C-138.10208033 276.52663913 -136.23933702 274.79621898 -134.41015625 273.01953125 C-126.63711946 267.29335229 -117.59048728 265.93258405 -108.28125 264.37304688 C-105.99457597 263.98868272 -103.71227062 263.58366552 -101.4296875 263.17578125 C-82.80577958 259.91761558 -82.80577958 259.91761558 -76.9296875 262.67578125 C-45.07526063 290.46368554 -36.91580013 345.03718363 -30.9921875 384.23828125 C-30.85941406 385.06424805 -30.72664062 385.89021484 -30.58984375 386.74121094 C-28.73203809 398.54036432 -28.76421207 410.44675163 -28.6796875 422.36328125 C-28.66511002 423.57115799 -28.66511002 423.57115799 -28.65023804 424.80343628 C-28.49111506 440.35845009 -28.95010436 457.89522164 -37.9921875 471.17578125 C-42.64276072 474.37305034 -47.52456924 475.1918835 -52.9921875 476.23828125 C-53.82169922 476.4074707 -54.65121094 476.57666016 -55.50585938 476.75097656 C-85.94861958 482.91947056 -85.94861958 482.91947056 -96.9921875 479.23828125 C-98.72135794 479.04798977 -100.45092991 478.86041264 -102.18261719 478.69458008 C-122.85209293 476.62420229 -141.88024286 467.50587802 -155.33203125 451.3828125 C-158.99328541 446.65333359 -162.63900697 441.83623834 -165.40625 436.5234375 C-167.34411888 433.731188 -168.34224589 433.49747629 -171.6171875 432.86328125 C-181.19242992 430.35448411 -187.76442906 423.39358441 -192.9921875 415.23828125 C-200.77342435 401.36738078 -203.26555142 385.42728069 -199.8046875 369.86328125 C-198.066227 363.73727757 -195.54331396 357.78940771 -190.9921875 353.23828125 C-190.95457284 350.64913865 -191.05175964 348.18932456 -191.2421875 345.61328125 C-191.2944751 344.77466553 -191.3467627 343.9360498 -191.40063477 343.07202148 C-191.58643964 340.12658298 -191.78804122 337.18250375 -191.9921875 334.23828125 C-192.31248239 329.5929401 -192.62326406 324.94705749 -192.9296875 320.30078125 C-193.01935791 319.00479004 -193.10902832 317.70879883 -193.20141602 316.37353516 C-193.81115219 307.16737771 -194.11819292 297.97394154 -194.3203125 288.75 C-194.41121168 285.18386462 -194.50438425 281.61779412 -194.59793091 278.05172729 C-194.65233052 275.68066374 -194.69427008 273.30928079 -194.72360229 270.93777466 C-194.76574954 267.58337778 -194.84967936 264.23226136 -194.94140625 260.87890625 C-194.94267517 259.8636235 -194.94394409 258.84834076 -194.94525146 257.80229187 C-194.96086931 252.77266166 -194.96086931 252.77266166 -197.55307007 248.75189209 C-199.65894737 247.4951066 -199.65894737 247.4951066 -202.9921875 246.23828125 C-204.8828125 244.59765625 -204.8828125 244.59765625 -206.2421875 242.98828125 C-206.70109375 242.4675 -207.16 241.94671875 -207.6328125 241.41015625 C-211.61831242 235.04251845 -212.44365025 229.32368638 -211.9296875 221.92578125 C-211.87586914 221.02843262 -211.82205078 220.13108398 -211.76660156 219.20654297 C-210.92380046 207.12159743 -209.06930538 195.16478571 -206.9921875 183.23828125 C-206.82235352 182.26133301 -206.65251953 181.28438477 -206.47753906 180.27783203 C-200.85241049 149.13448585 -189.60494935 117.04533757 -170.9921875 91.23828125 C-170.60353516 90.69848633 -170.21488281 90.15869141 -169.81445312 89.60253906 C-163.77220584 81.28836788 -157.10061894 73.65075369 -149.9921875 66.23828125 C-149.48816406 65.70702637 -148.98414063 65.17577148 -148.46484375 64.62841797 C-110.7170084 25.00966434 -54.83310276 0.47508461 0 0 Z " fill="#424242" transform="translate(242.9921875,15.76171875)"/>
<path d="M0 0 C0.93563782 -0.00974854 1.87127563 -0.01949707 2.83526611 -0.02954102 C23.22559539 -0.19826879 42.98643913 -0.09161886 63.0078125 4.23828125 C63.9045166 4.42551758 64.8012207 4.61275391 65.72509766 4.80566406 C92.63181354 10.55542915 119.61949158 21.07799601 142.0078125 37.23828125 C142.96324951 37.91842285 142.96324951 37.91842285 143.93798828 38.61230469 C152.61115267 44.8201589 160.81160261 51.33664021 168.48193359 58.76367188 C169.53838772 59.78462914 170.60170667 60.7985127 171.67041016 61.80664062 C181.23707478 70.83657949 189.37204223 80.53353885 197.0078125 91.23828125 C197.41837891 91.80417969 197.82894531 92.37007813 198.25195312 92.953125 C226.13570798 131.80987367 236.41888434 183.28271465 238.0078125 230.23828125 C237.0178125 230.23828125 236.0278125 230.23828125 235.0078125 230.23828125 C235.0078125 230.89828125 235.0078125 231.55828125 235.0078125 232.23828125 C229.56664 235.76769044 224.29893751 236.31875147 218.0078125 235.23828125 C212.50595881 232.72983732 208.43220325 229.21659721 205.0078125 224.23828125 C203.98828125 221.234375 203.98828125 221.234375 203.1953125 217.67578125 C202.86676437 216.26541996 202.53725531 214.85528233 202.20703125 213.4453125 C201.93125244 212.2399585 201.93125244 212.2399585 201.64990234 211.01025391 C200.32292193 205.28153314 198.91316874 199.57317087 197.5078125 193.86328125 C197.22317139 192.67532959 196.93853027 191.48737793 196.64526367 190.26342773 C194.93804873 183.31238064 192.83587526 176.80854298 190.0078125 170.23828125 C189.37852812 168.65664583 188.75304381 167.07348867 188.1328125 165.48828125 C182.54757938 151.36349435 182.54757938 151.36349435 175.0078125 138.23828125 C174.06297772 136.78468928 173.12540588 135.32634949 172.1953125 133.86328125 C171.77636719 133.21617187 171.35742188 132.5690625 170.92578125 131.90234375 C170.0078125 130.23828125 170.0078125 130.23828125 170.0078125 128.23828125 C169.3478125 128.23828125 168.6878125 128.23828125 168.0078125 128.23828125 C167.6778125 126.91828125 167.3478125 125.59828125 167.0078125 124.23828125 C166.3478125 124.23828125 165.6878125 124.23828125 165.0078125 124.23828125 C164.60304688 123.35269531 164.19828125 122.46710938 163.78125 121.5546875 C162.02086134 118.26268315 160.16441024 115.90178496 157.6328125 113.17578125 C156.83617187 112.31339844 156.03953125 111.45101562 155.21875 110.5625 C153.58840572 108.84862218 151.9304451 107.16091385 150.2578125 105.48828125 C148.0078125 103.23828125 148.0078125 103.23828125 145.6953125 100.36328125 C135.1402195 87.56726081 119.02432224 76.96736138 104.23828125 69.80859375 C102.01772862 68.72919574 99.8124992 67.61787642 97.62109375 66.48046875 C74.80451774 54.67614835 48.9808878 48.09654414 23.29296875 47.31005859 C21.68058618 47.25941324 20.06857926 47.19603014 18.45703125 47.12353516 C-16.57611312 45.63876133 -60.53242746 53.98513159 -89.20703125 75.93359375 C-90.9921875 77.23828125 -90.9921875 77.23828125 -92.9921875 77.23828125 C-92.9921875 77.89828125 -92.9921875 78.55828125 -92.9921875 79.23828125 C-98.7421875 82.23828125 -98.7421875 82.23828125 -100.9921875 82.23828125 C-100.9921875 82.89828125 -100.9921875 83.55828125 -100.9921875 84.23828125 C-103.109375 86.18359375 -103.109375 86.18359375 -105.8671875 88.36328125 C-107.22457031 89.44996094 -107.22457031 89.44996094 -108.609375 90.55859375 C-110.9921875 92.23828125 -110.9921875 92.23828125 -112.9921875 92.23828125 C-112.9921875 92.89828125 -112.9921875 93.55828125 -112.9921875 94.23828125 C-114.53125 95.71875 -114.53125 95.71875 -116.6171875 97.42578125 C-120.08006017 100.34834755 -122.96729658 103.39659027 -125.765625 106.953125 C-126.17039062 107.37722656 -126.57515625 107.80132812 -126.9921875 108.23828125 C-127.6521875 108.23828125 -128.3121875 108.23828125 -128.9921875 108.23828125 C-129.33830078 109.03492187 -129.33830078 109.03492187 -129.69140625 109.84765625 C-131.40143261 112.99040739 -133.58896093 115.69501483 -135.8046875 118.48828125 C-141.1545709 125.34392337 -145.57624619 132.39086537 -149.73828125 140.0234375 C-150.93409389 142.13566731 -152.22098819 144.14872145 -153.5546875 146.17578125 C-155.85937039 149.81588787 -157.4425832 153.53591326 -158.96484375 157.55859375 C-160.04097094 160.36552626 -161.23072089 163.10677858 -162.4296875 165.86328125 C-168.02895681 179.29465732 -172.48545662 194.02892873 -174.66015625 208.44921875 C-175.95320678 216.94005287 -177.69906521 223.93231585 -183.9921875 230.23828125 C-186.46875 231.875 -186.46875 231.875 -188.9921875 233.23828125 C-189.65734375 233.62242187 -190.3225 234.0065625 -191.0078125 234.40234375 C-195.51936969 236.30288162 -200.85262956 236.04105177 -205.38671875 234.33984375 C-207.29050079 233.37251666 -209.14642272 232.31218076 -210.9921875 231.23828125 C-211.3221875 231.23828125 -211.6521875 231.23828125 -211.9921875 231.23828125 C-211.644253 215.00713679 -209.77693667 199.22790019 -206.9921875 183.23828125 C-206.82235352 182.26133301 -206.65251953 181.28438477 -206.47753906 180.27783203 C-200.85241049 149.13448585 -189.60494935 117.04533757 -170.9921875 91.23828125 C-170.60353516 90.69848633 -170.21488281 90.15869141 -169.81445312 89.60253906 C-163.77220584 81.28836788 -157.10061894 73.65075369 -149.9921875 66.23828125 C-149.48816406 65.70702637 -148.98414063 65.17577148 -148.46484375 64.62841797 C-110.7170084 25.00966434 -54.83310276 0.47508461 0 0 Z " fill="#606060" transform="translate(242.9921875,15.76171875)"/>
<path d="M0 0 C31.85442687 27.78790429 40.01388737 82.36140238 45.9375 121.5625 C46.07027344 122.3884668 46.20304687 123.21443359 46.33984375 124.06542969 C48.19764941 135.86458307 48.16547543 147.77097038 48.25 159.6875 C48.25971832 160.49275116 48.26943665 161.29800232 48.27944946 162.12765503 C48.43857244 177.68266884 47.97958314 195.21944039 38.9375 208.5 C34.28692678 211.69726909 29.40511826 212.51610225 23.9375 213.5625 C23.10798828 213.73168945 22.27847656 213.90087891 21.42382812 214.07519531 C-13.46579893 221.14474004 -13.46579893 221.14474004 -25.03125 214.03515625 C-25.7015625 213.54917969 -26.371875 213.06320312 -27.0625 212.5625 C-27.6915625 212.12808594 -28.320625 211.69367188 -28.96875 211.24609375 C-46.50094371 197.75091833 -58.69904154 165.90126191 -62.60083008 144.65185547 C-63.07875616 142.26229075 -63.07875616 142.26229075 -64.41796875 138.90625 C-66.67015359 132.26050323 -67.65759285 125.327617 -68.79736328 118.42431641 C-69.18680599 116.06670142 -69.58661484 113.71102889 -69.98828125 111.35546875 C-70.2453981 109.83083131 -70.50192818 108.30609478 -70.7578125 106.78125 C-70.87448273 106.09035278 -70.99115295 105.39945557 -71.11135864 104.68762207 C-72.43057543 96.6671114 -73.21880157 88.76745935 -73.265625 80.63671875 C-73.27272995 79.81511765 -73.2798349 78.99351654 -73.28715515 78.14701843 C-73.62214622 28.05772292 -73.62214622 28.05772292 -61.14453125 13.29296875 C-52.80190945 5.38329739 -42.31723971 3.53429918 -31.3515625 1.69726562 C-29.06488847 1.31290147 -26.78258312 0.90788427 -24.5 0.5 C-5.87609208 -2.75816567 -5.87609208 -2.75816567 0 0 Z " fill="#757575" transform="translate(166.0625,278.4375)"/>
<path d="M0 0 C2.24814588 0.38797045 4.49970196 0.74730979 6.75268555 1.10595703 C17.17783438 2.85661012 28.89957009 5.48981875 36.15307617 13.85595703 C54.82118326 41.26948365 48.17573329 88.06203769 42.45385742 118.76611328 C40.61550431 128.29599941 38.7408364 137.76588419 35.19287109 146.82226562 C34.4530161 148.76832623 33.81422332 150.72242379 33.19995117 152.71142578 C26.76385418 173.41445218 17.68652563 201.01786907 -1.71411133 212.91845703 C-3.54614258 213.76611328 -3.54614258 213.76611328 -6.54614258 213.76611328 C-6.54614258 214.42611328 -6.54614258 215.08611328 -6.54614258 215.76611328 C-18.52022922 219.75747549 -32.79395825 216.13966284 -44.85864258 213.95361328 C-45.59495911 213.82300507 -46.33127563 213.69239685 -47.08990479 213.55783081 C-49.21995582 213.175612 -51.34619531 212.77709056 -53.47192383 212.37158203 C-54.71369385 212.13592529 -55.95546387 211.90026855 -57.23486328 211.6574707 C-61.38098258 210.54138418 -64.48632532 209.24368919 -67.02270508 205.70751953 C-72.57865532 194.19876545 -74.67014543 182.30327401 -74.74926758 169.58642578 C-74.75632721 168.82506821 -74.76338684 168.06371063 -74.7706604 167.27928162 C-75.03049722 130.90051132 -70.16705669 95.6304183 -59.54614258 60.76611328 C-59.30927734 59.97994629 -59.07241211 59.1937793 -58.82836914 58.38378906 C-52.42670288 37.40933109 -43.8020837 12.2533521 -25.54614258 -1.23388672 C-18.43568427 -4.78911588 -7.55638231 -1.32034222 0 0 Z " fill="#757575" transform="translate(372.546142578125,279.23388671875)"/>
<path d="M0 0 C9.50690503 9.74724814 8.45822442 26.65284318 8.33618164 39.26708984 C8.31259466 41.86457582 8.31564544 44.46102748 8.32226562 47.05859375 C8.30473062 57.53582285 7.56447295 67.63816948 6 78 C5.79564331 79.44705322 5.79564331 79.44705322 5.5871582 80.92333984 C5.23971436 83.36811035 4.87469416 85.80927326 4.5 88.25 C4.37036865 89.09715576 4.2407373 89.94431152 4.10717773 90.81713867 C3.85238294 92.47576238 3.59650453 94.13422013 3.33935547 95.79248047 C3.05170566 97.66365285 2.77644462 99.53672321 2.50390625 101.41015625 C1.28106239 109.4506252 -0.81825817 117.17641017 -3 125 C-3.47932759 126.81245745 -3.95850877 128.62495363 -4.4375 130.4375 C-8.13057867 143.77580007 -12.63623393 156.3740199 -18.16552734 169.06396484 C-19.15468984 171.35889129 -20.09043509 173.67244671 -21 176 C-21.66 176 -22.32 176 -23 176 C-23.24878906 176.88171875 -23.49757813 177.7634375 -23.75390625 178.671875 C-25.05880216 182.15705155 -26.58178247 184.3897992 -28.9375 187.25 C-29.62714844 188.10078125 -30.31679688 188.9515625 -31.02734375 189.828125 C-34.42038717 193.56383222 -36.91535525 194.267871 -41.8671875 194.65625 C-45.29156587 193.60259512 -47.05584814 190.86495018 -49 188 C-50.12652964 185.36703583 -51.01311908 183.00430012 -51.78125 180.27734375 C-52.0972113 179.17023293 -52.0972113 179.17023293 -52.41955566 178.04075623 C-54.63976951 169.57109079 -54.68185467 161.2624672 -54.5 152.5625 C-54.48036422 150.88208318 -54.46099966 149.20166317 -54.44189453 147.52124023 C-53.95369028 115.87657244 -48.21606357 84.25273041 -39 54 C-38.76313477 53.21383301 -38.52626953 52.42766602 -38.28222656 51.61767578 C-34.73848187 40.00692927 -30.2319575 28.94941028 -25 18 C-24.20916016 16.33517578 -24.20916016 16.33517578 -23.40234375 14.63671875 C-20.40590822 8.73174313 -17.4189636 4.85580102 -12 1 C-11.34 1 -10.68 1 -10 1 C-10 0.34 -10 -0.32 -10 -1 C-6.12785748 -2.48928558 -3.64940874 -1.86194323 0 0 Z " fill="#5A5A5A" transform="translate(352,286)"/>
<path d="M0 0 C6.41262507 1.13163972 10.90675251 5.8824779 15.1875 10.5625 C16.80786843 12.9726338 18.16611299 15.48459674 19.5 18.0625 C19.88534912 18.80532227 20.27069824 19.54814453 20.66772461 20.31347656 C34.53021696 47.74877181 41.20041315 78.41347701 46.1875 108.5625 C46.36684082 109.64499023 46.54618164 110.72748047 46.73095703 111.84277344 C49.90851507 131.99360329 49.50224192 152.22855775 49.1875 172.5625 C48.5275 172.5625 47.8675 172.5625 47.1875 172.5625 C47.27 173.47 47.3525 174.3775 47.4375 175.3125 C47.4375 181.70052372 45.32869064 188.93126367 41.29296875 193.890625 C38.653109 195.98684016 36.49026876 196.18516229 33.15625 196.0234375 C29.79921414 195.23746482 28.22389427 193.21598344 26.1875 190.5625 C25.8575 189.5725 25.5275 188.5825 25.1875 187.5625 C24.5275 187.5625 23.8675 187.5625 23.1875 187.5625 C19.08275062 182.15353222 15.76296596 176.20859613 13.20703125 169.92578125 C12.31276418 167.85286332 11.31799054 165.91263545 10.265625 163.91796875 C7.93477643 159.29548617 6.52208514 154.53326115 5.125 149.5625 C3.12328127 142.50547355 3.12328127 142.50547355 0.66015625 135.6015625 C-1.17971317 130.83307988 -2.22952356 125.92300065 -3.3125 120.9375 C-3.63613525 119.47401123 -3.63613525 119.47401123 -3.96630859 117.98095703 C-4.39375086 116.0438387 -4.81879518 114.10618939 -5.24121094 112.16796875 C-5.71319442 110.01540134 -6.20202055 107.86653442 -6.6953125 105.71875 C-8.19708304 99.07934338 -9.38749659 92.41084703 -10.4375 85.6875 C-10.5607666 84.92163574 -10.6840332 84.15577148 -10.81103516 83.36669922 C-12.75036521 70.4083265 -13.01832208 57.25330776 -13.05273438 44.17089844 C-13.06252722 41.93127458 -13.09376144 39.69253932 -13.125 37.453125 C-13.21538207 25.24451626 -12.71031119 12.29066639 -5 2.1875 C-2.8125 0.5625 -2.8125 0.5625 0 0 Z " fill="#565656" transform="translate(164.8125,284.4375)"/>
<path d="M0 0 C18.70725234 8.16316466 27.71873021 25.60973011 35.05859375 43.59375 C45.17124075 71.67861421 44.35627678 108.42047068 33 136 C32.39478516 137.51400391 32.39478516 137.51400391 31.77734375 139.05859375 C30.55385361 142.05558336 29.28311004 145.02815158 28 148 C27.68289063 148.78117188 27.36578125 149.56234375 27.0390625 150.3671875 C19.18923543 169.22019097 4.19201475 184.19341602 -14.3828125 192.515625 C-24.48254835 196.59301256 -33.12228903 198.36597906 -44 198 C-42.33772406 196.89181604 -40.66376327 195.79889841 -38.94921875 194.7734375 C-33.22514535 191.2342004 -29.56425767 187.68255035 -26 182 C-25.11248047 180.60587891 -25.11248047 180.60587891 -24.20703125 179.18359375 C-15.00795155 163.92524 -8.08361464 147.04966139 -3 130 C-2.64421875 128.8346875 -2.2884375 127.669375 -1.921875 126.46875 C7.86621206 93.45221754 18.37581434 38.54924168 2.3125 5.875 C1.87550781 5.15054687 1.43851562 4.42609375 0.98828125 3.6796875 C0 2 0 2 0 0 Z " fill="#424242" transform="translate(410,296)"/>
<path d="M0 0 C0 3.16560192 -0.53024111 4.39838349 -1.890625 7.18359375 C-13.77208907 33.2463291 -8.12614573 72.86442859 -3 100 C-2.82388184 100.97952637 -2.64776367 101.95905273 -2.46630859 102.96826172 C-0.9957913 111.13456221 0.57002103 119.06429744 3.28393555 126.91723633 C4.23066213 129.67090985 5.04909797 132.45801261 5.875 135.25 C12.15718884 155.65530509 21.82107581 184.9474998 41.4609375 196.0546875 C42.22277344 196.52261719 42.22277344 196.52261719 43 197 C43 197.33 43 197.66 43 198 C26.76793774 199.13909209 10.14589538 191.83499617 -2.18359375 181.6171875 C-4.56135768 179.50021058 -6.80707168 177.3083456 -9 175 C-9.76183594 174.32130859 -9.76183594 174.32130859 -10.5390625 173.62890625 C-24.50387071 160.84377362 -33.46640266 139.45906637 -36 121 C-36.33 120.67 -36.66 120.34 -37 120 C-41.64442376 98.62839381 -41.85024225 75.32206605 -37 54 C-36.73316406 52.7934375 -36.46632813 51.586875 -36.19140625 50.34375 C-31.27935106 30.95750552 -20.49816103 13.51708686 -4 2 C-2.68484981 1.29814375 -1.35763433 0.61567138 0 0 Z " fill="#424242" transform="translate(101,296)"/>
<path d="M0 0 C6.19757707 -0.27786408 11.11488114 1.45921772 16.31640625 4.66015625 C18.81622937 7.05998644 18.94268253 9.54281393 19.50390625 12.91015625 C19.49825199 15.97476581 19.11814208 16.90765683 16.9765625 19.16796875 C14.67060768 20.95442969 12.33627034 22.58981996 9.87890625 24.16015625 C8.88890625 24.82015625 7.89890625 25.48015625 6.87890625 26.16015625 C5.88890625 26.16015625 4.89890625 26.16015625 3.87890625 26.16015625 C3.87890625 26.82015625 3.87890625 27.48015625 3.87890625 28.16015625 C2.68652344 28.64226563 1.49414062 29.124375 0.265625 29.62109375 C-1.30085206 30.2589407 -2.86725443 30.89697111 -4.43359375 31.53515625 C-5.21927734 31.85226563 -6.00496094 32.169375 -6.81445312 32.49609375 C-7.57177734 32.80546875 -8.32910156 33.11484375 -9.109375 33.43359375 C-9.80587158 33.71638184 -10.50236816 33.99916992 -11.2199707 34.29052734 C-13.37764951 35.21685197 -13.37764951 35.21685197 -16.12109375 37.16015625 C-17.42046875 37.56234375 -17.42046875 37.56234375 -18.74609375 37.97265625 C-23.1955072 39.53819061 -27.05110243 41.79733454 -31.12109375 44.16015625 C-32.13429688 44.73507813 -33.1475 45.31 -34.19140625 45.90234375 C-39.13725924 48.73375345 -43.70184112 51.54985156 -48.12109375 55.16015625 C-48.98734375 55.67578125 -49.85359375 56.19140625 -50.74609375 56.72265625 C-52.93746828 58.04901452 -54.36624376 59.32900844 -56.12109375 61.16015625 C-59.78776042 64.16015625 -59.78776042 64.16015625 -62.12109375 64.16015625 C-62.12109375 64.82015625 -62.12109375 65.48015625 -62.12109375 66.16015625 C-63.34375 67.359375 -63.34375 67.359375 -65.18359375 68.84765625 C-74.17875096 76.52330918 -84.01022436 84.9876106 -89.9453125 95.328125 C-91.12109375 97.16015625 -91.12109375 97.16015625 -93.07421875 99.09375 C-98.00640739 104.07300151 -101.06423995 110.91907974 -104.12109375 117.16015625 C-111.24417221 131.38432836 -111.24417221 131.38432836 -117.12109375 136.16015625 C-120.62506567 136.9159149 -122.10666753 136.66736936 -125.26953125 135.0859375 C-127.55673135 132.70705638 -127.61168177 130.99927233 -127.62597656 127.76586914 C-127.60374023 127.07098389 -127.58150391 126.37609863 -127.55859375 125.66015625 C-127.54538086 124.94400146 -127.53216797 124.22784668 -127.51855469 123.48999023 C-127.19754851 113.9464767 -124.2864222 105.67131072 -120.12109375 97.16015625 C-119.38632813 95.65001953 -119.38632813 95.65001953 -118.63671875 94.109375 C-114.61196241 85.95027737 -114.61196241 85.95027737 -112.5 82.55078125 C-111.05223664 80.32392768 -111.05223664 80.32392768 -110.70703125 78.22265625 C-109.80457533 75.04601141 -107.76126755 72.71349686 -105.74609375 70.16015625 C-105.29983643 69.58910156 -104.8535791 69.01804687 -104.39379883 68.4296875 C-99.60789273 62.38749147 -94.45402872 56.7211909 -89.12109375 51.16015625 C-88.61707031 50.62890137 -88.11304688 50.09764648 -87.59375 49.55029297 C-71.80357464 32.97749982 -53.36428186 19.85876398 -33.18359375 9.09765625 C-32.3443335 8.64455078 -31.50507324 8.19144531 -30.64038086 7.72460938 C-20.74469891 2.59733319 -10.99031721 0.82983979 0 0 Z " fill="#757575" transform="translate(182.12109375,30.83984375)"/>
<path d="M0 0 C0.72469482 0.15847412 1.44938965 0.31694824 2.19604492 0.48022461 C4.78951662 0.96098223 7.2319784 1.19757322 9.86328125 1.31640625 C11.19262695 1.37924805 11.19262695 1.37924805 12.54882812 1.44335938 C13.9168457 1.50233398 13.9168457 1.50233398 15.3125 1.5625 C16.70952148 1.62727539 16.70952148 1.62727539 18.13476562 1.69335938 C20.42304454 1.79897225 22.71142372 1.90107752 25 2 C25.29421709 29.19873517 23.99260069 56.24798898 22.01635742 83.36328125 C21.94991028 84.28249863 21.88346313 85.201716 21.81500244 86.14878845 C21.68979528 87.87127363 21.56223781 89.59359032 21.43182373 91.31568909 C20.27980335 100.91253482 20.27980335 100.91253482 23.8125 109.4375 C31.30889972 119.83345055 32.5076576 132.57142205 30.69970703 145.07714844 C28.30659519 158.00909801 23.18435941 170.27054908 13 179 C7.80851745 182.22966267 3.19113288 185 -3 185 C-2.35783477 180.8375314 -0.94456895 177.44162066 0.8125 173.625 C4.05231247 166.28136043 6.30058028 158.85105385 8 151 C8.15098145 150.319375 8.30196289 149.63875 8.45751953 148.9375 C13.14960463 126.90950178 12.81711001 103.11746724 6.75 81.4375 C6.47990112 80.46453979 6.47990112 80.46453979 6.2043457 79.47192383 C5.21526166 76.18728815 4.13699588 73.25127341 2.48803711 70.22680664 C-2.78008202 60.40561023 -2.57045141 52.35403471 -1.9375 41.5625 C-1.86238981 39.87626711 -1.79022561 38.18990052 -1.72094727 36.50341797 C-1.54617501 32.40676222 -1.33666642 28.31283556 -1.11572266 24.21844482 C-0.94902946 21.0228764 -0.81710048 17.82616805 -0.6875 14.62890625 C-0.48767166 9.75074372 -0.25746761 4.87545048 0 0 Z " fill="#606060" transform="translate(439,264)"/>
<path d="M0 0 C0.28673993 7.27735115 0.57134753 14.55478348 0.85449219 21.83227539 C0.95100927 24.30657833 1.04800952 26.78086248 1.14550781 29.25512695 C1.28578523 32.81717136 1.42430928 36.37928035 1.5625 39.94140625 C1.60624756 41.04271378 1.64999512 42.1440213 1.69506836 43.27870178 C2.3084538 59.2186239 2.3084538 59.2186239 -0.6875 64.3125 C-13.41745451 88.35796963 -12.94151025 117.79039537 -9 144 C-8.75056641 145.93166016 -8.75056641 145.93166016 -8.49609375 147.90234375 C-8.33244123 150.8630222 -8.33244123 150.8630222 -7 152 C-6.7525 153.216875 -6.505 154.43375 -6.25 155.6875 C-5.08496413 161.17981195 -3.17180073 166.33794299 -1.2421875 171.6015625 C0.25894346 175.70843021 1.63887826 179.84499679 3 184 C-5.64029431 183.44849185 -11.71511052 179.67314207 -17.6875 173.5 C-28.75355873 160.46406694 -32.30987727 143.74130815 -31 127 C-29.72197566 118.62844521 -27.12325534 110.12325534 -21 104 C-20.96238796 101.41103779 -21.05945571 98.95086651 -21.25 96.375 C-21.3015625 95.55088623 -21.353125 94.72677246 -21.40625 93.87768555 C-21.59346174 90.9176659 -21.79640137 87.95893669 -22 85 C-22.3402354 79.93794402 -22.67407689 74.87549704 -23 69.8125 C-23.04360657 69.13616516 -23.08721313 68.45983032 -23.13214111 67.76300049 C-24.55021811 45.5372823 -25.24092096 23.27180457 -25 1 C-21.39588419 0.83222143 -17.7916996 0.66596812 -14.1875 0.5 C-13.16333984 0.45230469 -12.13917969 0.40460938 -11.08398438 0.35546875 C-10.10107422 0.31035156 -9.11816406 0.26523437 -8.10546875 0.21875 C-7.19949951 0.17685547 -6.29353027 0.13496094 -5.36010742 0.09179688 C-3.57449311 0.02234503 -1.78696447 0 0 0 Z " fill="#606060" transform="translate(73,265)"/>
<path d="M0 0 C0.66 0 1.32 0 2 0 C5.53893925 11.21310961 2.69557457 25.73670763 1.375 37.25 C1.28863281 38.02259155 1.20226562 38.79518311 1.11328125 39.59118652 C-0.59094982 54.64291211 -3.43754733 69.27199079 -7 84 C-7.35557624 85.53743509 -7.70990615 87.07515944 -8.0625 88.61328125 C-11.49305871 103.2784799 -15.58184867 117.82094392 -23 131 C-24.32 131 -25.64 131 -27 131 C-27.25 123.375 -27.25 123.375 -25 120 C-23.515 119.505 -23.515 119.505 -22 119 C-22 118.236875 -22 117.47375 -22 116.6875 C-22 111 -22 111 -21 110 C-21.66 109.67 -22.32 109.34 -23 109 C-23.22257174 105.10499463 -22.59422156 102.54271457 -21 99 C-20.67 98.113125 -20.34 97.22625 -20 96.3125 C-19 94 -19 94 -17 92 C-16.5526126 89.64610872 -16.5526126 89.64610872 -16.40234375 86.9140625 C-16.32306641 85.90085937 -16.24378906 84.88765625 -16.16210938 83.84375 C-16.05092773 82.25046875 -16.05092773 82.25046875 -15.9375 80.625 C-15.78282115 78.53363968 -15.62537751 76.44248155 -15.46484375 74.3515625 C-15.399021 73.42166504 -15.33319824 72.49176758 -15.26538086 71.53369141 C-15 69 -15 69 -14.40844727 66.79052734 C-13.78022914 64.91042845 -13.78022914 64.91042845 -15 63 C-14.39351421 61.31050386 -13.72159424 59.64363134 -13 58 C-11.72334639 54.17003917 -11.62939106 50.50918011 -11.37890625 46.49609375 C-11 44 -11 44 -9 42 C-8.56903756 39.74458242 -8.56903756 39.74458242 -8.4375 37.125 C-8.36273438 36.14789063 -8.28796875 35.17078125 -8.2109375 34.1640625 C-8.06754689 32.01320342 -7.92702634 29.86215149 -7.7890625 27.7109375 C-7.71429688 26.65132813 -7.63953125 25.59171875 -7.5625 24.5 C-7.47162109 23.03046875 -7.47162109 23.03046875 -7.37890625 21.53125 C-7 19 -7 19 -5 16 C-4.34 16 -3.68 16 -3 16 C-2.87625 14.845 -2.7525 13.69 -2.625 12.5 C-2.09721115 8.21649625 -1.11601963 4.16647328 0 0 Z " fill="#252525" transform="translate(335,316)"/>
<path d="M0 0 C0.66 0 1.32 0 2 0 C3.14982602 4.09003859 3.11094256 8.03177051 3.0625 12.25 C3.05798828 12.99507813 3.05347656 13.74015625 3.04882812 14.5078125 C3.03709246 16.3385764 3.0191585 18.16929873 3 20 C2.67 20 2.34 20 2 20 C1.67 18.02 1.34 16.04 1 14 C-0.60591713 15.60591713 -0.18421495 17.37194678 -0.24609375 19.59375 C-0.27896484 20.5425 -0.31183594 21.49125 -0.34570312 22.46875 C-0.40595204 24.45824598 -0.46333848 26.44783112 -0.51757812 28.4375 C-1.07454268 44.07454268 -1.07454268 44.07454268 -5 48 C-4.979375 48.845625 -4.95875 49.69125 -4.9375 50.5625 C-5.0330068 55.81537422 -6.93996489 60.33558743 -8.8671875 65.1796875 C-10.50663491 69.27905746 -10.50663491 69.27905746 -11 73.625 C-11 76.94627098 -12.40575847 79.14365058 -14 82 C-14.66 82 -15.32 82 -16 82 C-15.85848172 79.9163691 -15.71162064 77.83310062 -15.5625 75.75 C-15.48128906 74.58984375 -15.40007812 73.4296875 -15.31640625 72.234375 C-15 69 -15 69 -14.40234375 66.703125 C-13.78387993 64.8981806 -13.78387993 64.8981806 -15 63 C-14.39351421 61.31050386 -13.72159424 59.64363134 -13 58 C-11.72334639 54.17003917 -11.62939106 50.50918011 -11.37890625 46.49609375 C-11 44 -11 44 -9 42 C-8.56903756 39.74458242 -8.56903756 39.74458242 -8.4375 37.125 C-8.32535156 35.65933594 -8.32535156 35.65933594 -8.2109375 34.1640625 C-8.06754689 32.01320342 -7.92702634 29.86215149 -7.7890625 27.7109375 C-7.71429688 26.65132813 -7.63953125 25.59171875 -7.5625 24.5 C-7.50191406 23.5203125 -7.44132812 22.540625 -7.37890625 21.53125 C-7 19 -7 19 -5 16 C-4.34 16 -3.68 16 -3 16 C-2.87625 14.845 -2.7525 13.69 -2.625 12.5 C-2.09721115 8.21649625 -1.11601963 4.16647328 0 0 Z " fill="#383838" transform="translate(335,316)"/>
<path d="M0 0 C0.33 0 0.66 0 1 0 C2.48685649 14.48680443 2.48685649 14.48680443 0 21 C-0.717973 23.30952531 -1.42546786 25.62232244 -2.125 27.9375 C-2.74931391 29.9585454 -3.37408521 31.97944982 -4 34 C-3.01 34 -2.02 34 -1 34 C-2.2976183 39.29860806 -4.15015702 43.34525646 -7 48 C-8.32 48 -9.64 48 -11 48 C-11.25 40.375 -11.25 40.375 -9 37 C-7.515 36.505 -7.515 36.505 -6 36 C-6 35.236875 -6 34.47375 -6 33.6875 C-6 28 -6 28 -5 27 C-5.66 26.67 -6.32 26.34 -7 26 C-7.22257174 22.10499463 -6.59422156 19.54271457 -5 16 C-4.67 15.113125 -4.34 14.22625 -4 13.3125 C-3 11 -3 11 -1 9 C-0.53993654 6.79749008 -0.53993654 6.79749008 -0.375 4.375 C-0.30023438 3.55773437 -0.22546875 2.74046875 -0.1484375 1.8984375 C-0.09945313 1.27195312 -0.05046875 0.64546875 0 0 Z " fill="#333333" transform="translate(319,399)"/>
<path d="M0 0 C1.55932272 3.11864545 0.65549131 5.66295335 0 9 C-0.66 9.66 -1.32 10.32 -2 11 C-1.979375 11.845625 -1.95875 12.69125 -1.9375 13.5625 C-2.0330068 18.81537422 -3.93996489 23.33558743 -5.8671875 28.1796875 C-7.50663491 32.27905746 -7.50663491 32.27905746 -8 36.625 C-8 39.94627098 -9.40575847 42.14365058 -11 45 C-11.66 45 -12.32 45 -13 45 C-12.91212085 42.95756745 -12.80393311 40.91600387 -12.6875 38.875 C-12.62949219 37.73804688 -12.57148438 36.60109375 -12.51171875 35.4296875 C-11.95849197 31.72180115 -10.70610612 29.31336982 -9 26 C-8.14057714 22.4628383 -7.49683311 18.92013868 -6.84375 15.33984375 C-6.00635677 12.02516221 -4.84907368 9.84209473 -3 7 C-2.31039038 5.00779443 -1.63920943 3.00894394 -1 1 C-0.67 0.67 -0.34 0.34 0 0 Z " fill="#303030" transform="translate(332,353)"/>
<path d="M0 0 C0.66 0 1.32 0 2 0 C3.14982602 4.09003859 3.11094256 8.03177051 3.0625 12.25 C3.05798828 12.99507813 3.05347656 13.74015625 3.04882812 14.5078125 C3.03709246 16.3385764 3.0191585 18.16929873 3 20 C2.67 20 2.34 20 2 20 C1.67 18.02 1.34 16.04 1 14 C-1.23810254 16.23810254 -0.902506 21.08254526 -1.3046875 24.1171875 C-2.02243846 27.09303135 -2.6310278 28.14883593 -5 30 C-5.04254356 28.00045254 -5.04080783 25.99958364 -5 24 C-4.67 23.67 -4.34 23.34 -4 23 C-3.83847465 21.21125631 -3.7218165 19.41841044 -3.625 17.625 C-3.17502345 11.47286156 -1.83801191 5.87239024 0 0 Z " fill="#3A3A3A" transform="translate(335,316)"/>
<path d="M0 0 C0.66 0.33 1.32 0.66 2 1 C2.05834353 4.22909006 2.09371115 7.45804338 2.125 10.6875 C2.14175781 11.59951172 2.15851563 12.51152344 2.17578125 13.45117188 C2.23908887 22.1559698 2.23908887 22.1559698 0 26 C-0.66 26.33 -1.32 26.66 -2 27 C-2.05827558 23.4375692 -2.09368885 19.87526181 -2.125 16.3125 C-2.14175781 15.30509766 -2.15851563 14.29769531 -2.17578125 13.25976562 C-2.18544922 11.79506836 -2.18544922 11.79506836 -2.1953125 10.30078125 C-2.20578613 9.40528564 -2.21625977 8.50979004 -2.22705078 7.5871582 C-1.97703456 4.73831743 -1.18016512 2.59105457 0 0 Z " fill="#353535" transform="translate(176,315)"/>
<path d="M0 0 C0.33 0 0.66 0 1 0 C1.33 2.97 1.66 5.94 2 9 C2.33 9 2.66 9 3 9 C3.33 7.35 3.66 5.7 4 4 C6 6 6 6 6.1953125 8.6796875 C6.17210937 9.73414063 6.14890625 10.78859375 6.125 11.875 C6.10695312 12.92429687 6.08890625 13.97359375 6.0703125 15.0546875 C6.03550781 16.51261719 6.03550781 16.51261719 6 18 C6 19.32 6 20.64 6 22 C3.1831095 19.1831095 2.14718088 15.77966296 0.75 12.125 C0.45609375 11.40441406 0.1621875 10.68382812 -0.140625 9.94140625 C-2.19283351 4.58395808 -2.19283351 4.58395808 -1.171875 1.4921875 C-0.78515625 0.99976563 -0.3984375 0.50734375 0 0 Z " fill="#2E2E2E" transform="translate(192,419)"/>
<path d="M0 0 C0.33 0 0.66 0 1 0 C1.05416188 1.60379341 1.09286638 3.20811406 1.125 4.8125 C1.14820313 5.70582031 1.17140625 6.59914063 1.1953125 7.51953125 C1 10 1 10 -1 13 C-1.22653559 14.97409583 -1.45108037 16.94855519 -1.6484375 18.92578125 C-2.15990592 21.94344495 -3.48666502 24.36811308 -5 27 C-5.66 26.67 -6.32 26.34 -7 26 C-7.22257174 22.10499463 -6.59422156 19.54271457 -5 16 C-4.67 15.113125 -4.34 14.22625 -4 13.3125 C-3 11 -3 11 -1 9 C-0.53993654 6.79749008 -0.53993654 6.79749008 -0.375 4.375 C-0.26285156 3.14910156 -0.26285156 3.14910156 -0.1484375 1.8984375 C-0.09945313 1.27195312 -0.05046875 0.64546875 0 0 Z " fill="#404040" transform="translate(319,399)"/>
<path d="M0 0 C0.66 0 1.32 0 2 0 C2.0747163 3.8852478 2.01966345 7.26123403 1 11 C0.64110788 12.58226891 0.28699368 14.16562863 -0.0625 15.75 C-0.23910156 16.54921875 -0.41570312 17.3484375 -0.59765625 18.171875 C-0.73042969 18.77515625 -0.86320312 19.3784375 -1 20 C-1.33 20 -1.66 20 -2 20 C-3.12898169 13.10066745 -4.0261795 6.03926925 0 0 Z " fill="#474747" transform="translate(330,332)"/>
<path d="M0 0 C0.72153427 2.24477329 1.09679526 3.62491837 0.5 5.9375 C-0.18644947 8.05572717 -0.18644947 8.05572717 0.625 10.375 C1.14128604 13.98900227 -0.20532156 15.91315308 -2 19 C-2.66 19 -3.32 19 -4 19 C-3.40546697 5.18223235 -3.40546697 5.18223235 0 0 Z " fill="#3F3F3F" transform="translate(323,379)"/>
<path d="M0 0 C0.66 0.33 1.32 0.66 2 1 C1.38 14.02 1.38 14.02 -2 20 C-2.99 20.66 -3.98 21.32 -5 22 C-4.69201674 20.51988629 -4.378482 19.04092675 -4.0625 17.5625 C-3.80146484 16.32693359 -3.80146484 16.32693359 -3.53515625 15.06640625 C-3 13 -3 13 -2 12 C-1.79162581 10.17093765 -1.63250341 8.33611866 -1.5 6.5 C-1.11111111 1.11111111 -1.11111111 1.11111111 0 0 Z " fill="#484748" transform="translate(325,359)"/>
<path d="M0 0 C0.99 0 1.98 0 3 0 C3.0270043 1.45823212 3.04639787 2.91660675 3.0625 4.375 C3.07410156 5.18710937 3.08570313 5.99921875 3.09765625 6.8359375 C3 9 3 9 2 11 C0.68 11 -0.64 11 -2 11 C-2.25 3.375 -2.25 3.375 0 0 Z " fill="#474747" transform="translate(310,436)"/>
<path d="M0 0 C0.33 0 0.66 0 1 0 C3 14 3 14 1 18 C1.66 18 2.32 18 3 18 C2.88637738 19.4800841 2.75877092 20.95910074 2.625 22.4375 C2.52058594 23.67306641 2.52058594 23.67306641 2.4140625 24.93359375 C2.27742187 25.61550781 2.14078125 26.29742187 2 27 C1.34 27.33 0.68 27.66 0 28 C-0.75238592 25.74284225 -1.07190772 24.31160011 -0.53125 21.96875 C0.23179947 17.70465005 0.10439618 13.50925221 0.0625 9.1875 C0.05798828 8.30384766 0.05347656 7.42019531 0.04882812 6.50976562 C0.03709866 4.33981441 0.01916495 2.16989828 0 0 Z " fill="#3D3D3D" transform="translate(181,332)"/>
<path d="M0 0 C0.66 0 1.32 0 2 0 C2.33 2.64 2.66 5.28 3 8 C2.01 8.33 1.02 8.66 0 9 C-1.22520264 12.00847418 -1.22520264 12.00847418 -2 15 C-3.31534494 11.34142468 -2.65468309 8.91973519 -1.5625 5.25 C-1.27503906 4.26515625 -0.98757813 3.2803125 -0.69140625 2.265625 C-0.46324219 1.51796875 -0.23507812 0.7703125 0 0 Z " fill="#3E3E3E" transform="translate(335,316)"/>
<path d="M0 0 C1.97007169 3.22442445 2.16624654 5.02426131 1.3125 8.6875 C1.14363281 9.47511719 0.97476562 10.26273437 0.80078125 11.07421875 C0.53652344 11.70972656 0.27226562 12.34523438 0 13 C-0.99 13.33 -1.98 13.66 -3 14 C-2.69249629 11.85344499 -2.3788634 9.70776715 -2.0625 7.5625 C-1.88847656 6.36753906 -1.71445312 5.17257812 -1.53515625 3.94140625 C-1 1 -1 1 0 0 Z " fill="#373737" transform="translate(325,373)"/>
<path d="M0 0 C0.66 0.33 1.32 0.66 2 1 C2 4.96 2 8.92 2 13 C1.67 13 1.34 13 1 13 C0.67 11.02 0.34 9.04 0 7 C-0.99 7.495 -0.99 7.495 -2 8 C-2.125 5.125 -2.125 5.125 -2 2 C-1.34 1.34 -0.68 0.68 0 0 Z " fill="#323232" transform="translate(336,323)"/>
<path d="M0 0 C0.33 0 0.66 0 1 0 C1.36923077 7.50769231 1.36923077 7.50769231 -0.5 10 C-0.995 10.33 -1.49 10.66 -2 11 C-2.66 10.67 -3.32 10.34 -4 10 C-3.67 9.01 -3.34 8.02 -3 7 C-2.34 7 -1.68 7 -1 7 C-1.020625 6.030625 -1.04125 5.06125 -1.0625 4.0625 C-1 1 -1 1 0 0 Z " fill="#3A3A3A" transform="translate(316,420)"/>
<path d="M0 0 C0.33 0 0.66 0 1 0 C1.08096803 1.45742463 1.13917774 2.91612807 1.1875 4.375 C1.22230469 5.18710937 1.25710938 5.99921875 1.29296875 6.8359375 C1.19628906 7.55007813 1.09960938 8.26421875 1 9 C0.01 9.66 -0.98 10.32 -2 11 C-2.25 3.375 -2.25 3.375 0 0 Z " fill="#2A2A2A" transform="translate(336,328)"/>
<path d="M0 0 C0.33 0 0.66 0 1 0 C1.29296875 6.0546875 1.29296875 6.0546875 1 8 C0.01 8.66 -0.98 9.32 -2 10 C-2.6875 8.375 -2.6875 8.375 -3 6 C-1.5625 2.75 -1.5625 2.75 0 0 Z " fill="#323232" transform="translate(333,340)"/>
<path d="M0 0 C0.66 0.33 1.32 0.66 2 1 C0.515 4.96 0.515 4.96 -1 9 C-1.33 9 -1.66 9 -2 9 C-2 6.36 -2 3.72 -2 1 C-1.34 0.67 -0.68 0.34 0 0 Z " fill="#4C4C4C" transform="translate(334,315)"/>
<path d="M0 0 C0.33 0 0.66 0 1 0 C1 2.97 1 5.94 1 9 C0.01 9 -0.98 9 -2 9 C-2.20140476 5.37471432 -1.85776765 3.13498292 0 0 Z " fill="#494949" transform="translate(314,416)"/>
<path d="M0 0 C0.99 0 1.98 0 3 0 C2.4140625 6.15234375 2.4140625 6.15234375 2 8 C1.01 8.495 1.01 8.495 0 9 C0 6.03 0 3.06 0 0 Z " fill="#282828" transform="translate(175,332)"/>
<path d="M0 0 C0.66 0.33 1.32 0.66 2 1 C2 5.62 2 10.24 2 15 C1.67 15 1.34 15 1 15 C0.63807496 12.87630763 0.28568253 10.7509887 -0.0625 8.625 C-0.25972656 7.44164062 -0.45695313 6.25828125 -0.66015625 5.0390625 C-1 2 -1 2 0 0 Z " fill="#3F3F3F" transform="translate(176,315)"/>
<path d="M0 0 C1.5 1 1.5 1 3 3 C3.27345479 5.71846235 3.13491285 8.25677199 3 11 C0.39665076 8.28817788 0.00543309 7.10866187 -0.1875 3.25 C-0.125625 2.1775 -0.06375 1.105 0 0 Z " fill="#454545" transform="translate(191,390)"/>
</svg>
