<?xml version="1.0" encoding="UTF-8"?>
<svg version="1.1" xmlns="http://www.w3.org/2000/svg" width="900" height="859">
<path d="M0 0 C3.58856745 2.75325007 6.79378886 5.81512804 10 9 C10.64066406 9.61488281 11.28132813 10.22976562 11.94140625 10.86328125 C15.58874719 14.412707 18.92968926 18.17731789 22.25 22.03125 C23.93798286 23.93023071 25.68769734 25.72005988 27.5 27.5 C29.91332717 29.87042357 32.17271853 32.30736308 34.375 34.875 C36.96634205 37.8846753 39.67254783 40.71088616 42.5 43.5 C45.24500542 46.20803565 47.8727091 48.94169249 50.375 51.875 C53.26214857 55.2455781 56.34248137 58.38502836 59.5 61.5 C62.55317342 64.51230779 65.54072432 67.53548926 68.3125 70.8125 C71.66888309 74.75401525 75.32318187 78.36137762 79 82 C83.18845164 86.14507609 87.22670725 90.30916368 91.03125 94.8125 C94.48520386 98.65022651 98.20682835 102.22757618 101.87792969 105.85620117 C104.96099833 108.91658806 107.95019024 111.98605936 110.75 115.3125 C118.79196105 124.72502083 129.89338441 135.08121676 142.75 136.25 C151.4934211 136.59973684 157.02395817 134.912767 163.5 129.0625 C169.66858956 122.50046965 173.85244768 114.23668532 178 106.3125 C181.04091201 100.65096463 184.77786762 95.82885613 189 91 C189.53109375 90.38511719 190.0621875 89.77023438 190.609375 89.13671875 C204.95307156 73.69239201 226.27903057 64.93388142 247.0390625 63.83984375 C270.74547565 63.22444025 292.64639649 71.71792924 310 88 C326.65293006 105.49098336 334.82861462 127.67086334 334.25 151.69140625 C333.25525887 173.89900196 323.38943725 192.56665566 308 208 C307.29230469 208.73089844 306.58460938 209.46179688 305.85546875 210.21484375 C299.69439149 216.16387629 292.37535201 219.89422642 284.91552734 223.94921875 C275.64598004 229.03411954 268.4630026 234.07938265 263.0625 243.3125 C260.87383395 250.90845865 261.13685923 257.76064174 264.75390625 264.83203125 C265.16511719 265.54746094 265.57632813 266.26289063 266 267 C266.40089844 267.70511719 266.80179688 268.41023438 267.21484375 269.13671875 C273.32087898 278.99486838 281.85741451 287.15209896 290.43896484 294.84619141 C294.16841334 298.19702793 297.72997588 301.68047641 301.25 305.25 C304.36637814 308.40651594 307.48750845 311.50644333 310.875 314.375 C315.46695776 318.27528212 319.62583432 322.60090542 323.86010742 326.87963867 C327.45421652 330.49694493 331.11709373 333.93629984 335.01171875 337.23046875 C338.12129568 339.99793112 341.007829 342.98744763 343.92993164 345.94946289 C347.17412846 349.22069938 350.53643993 352.269861 354.0390625 355.2578125 C357.08954804 357.96800484 359.90886392 360.90073833 362.7734375 363.8046875 C365.44633174 366.44006743 368.25368303 368.87766489 371.1015625 371.3203125 C373.59096719 373.5228722 375.8945103 375.88352636 378.22265625 378.25390625 C380.06593574 380.06477643 381.97822799 381.75321354 383.9375 383.4375 C400.13066474 397.52398117 400.13066474 397.52398117 401.203125 407.98046875 C401.21859375 408.70878906 401.2340625 409.43710937 401.25 410.1875 C401.27578125 410.90292969 401.3015625 411.61835938 401.328125 412.35546875 C400.37713382 420.02000478 396.75327096 425.12071594 391.875 430.8125 C391.29314941 431.50899658 390.71129883 432.20549316 390.11181641 432.9230957 C388.947073 434.31702433 387.77837826 435.70766222 386.60546875 437.09472656 C384.49534724 439.59889144 382.43515796 442.14215991 380.375 444.6875 C372.41250741 454.40493176 364.22250676 463.93297591 356.03515625 473.4609375 C354.01428894 475.81374412 352.00188441 478.17339211 349.99609375 480.5390625 C344.17246685 487.39557698 338.22442897 494.09889432 332.08203125 500.671875 C329.60715555 503.32328906 327.19120657 506.02344466 324.77734375 508.73046875 C289.26228685 548.23777242 289.26228685 548.23777242 265.125 550.23828125 C253.42251571 550.51621525 242.66819971 548.24722754 234 540 C221.31969457 527.90453046 218.43307037 510.63640839 216.0625 494 C213.75042894 478.0462572 210.53047153 464.92395239 197.6875 454.1875 C193.14392928 450.83428257 188.35890564 448.72151373 183 447 C182.40445313 446.80792969 181.80890625 446.61585938 181.1953125 446.41796875 C160.74305288 442.5240332 141.72711872 451.00761356 124.875 461.75 C99.90035091 479.08973598 79.90605912 503.46846231 72.41796875 533.3203125 C70.33206926 546.69346252 71.88783164 559.12358068 79.2109375 570.61328125 C89.44315824 584.26368927 104.44747585 588.03082982 120.51367188 590.36523438 C122.20465462 590.59078566 123.89581826 590.8149848 125.5871582 591.0378418 C141.89092924 593.20383581 157.66360643 597.73537495 168.5 610.9296875 C175.3169677 620.33852313 177.0090879 630.56792827 176 642 C172.98190394 658.31940564 164.34445856 669.52946077 153 681 C152.21737793 681.79631836 151.43475586 682.59263672 150.62841797 683.41308594 C134.27477262 700.02463601 134.27477262 700.02463601 126.76904297 706.47607422 C124.35711835 708.55380448 122.02570886 710.71497502 119.6875 712.875 C115.17096163 716.99906676 110.50866984 720.87936865 105.75 724.71875 C102.91900422 727.06718968 100.20616402 729.50909902 97.5 732 C93.10621452 736.03954818 88.58161176 739.84679619 83.9375 743.59375 C80.6364498 746.29780176 77.41272576 749.08152898 74.1875 751.875 C46.81284802 775.47644013 46.81284802 775.47644013 34.4296875 775.2734375 C26.35934643 774.36519976 20.61919517 769.47425561 15 764 C14.3296875 763.35675781 13.659375 762.71351563 12.96875 762.05078125 C9.01053761 758.17630028 5.32412375 754.13214395 1.71484375 749.93359375 C0.03995701 748.04505403 -1.69947587 746.26844352 -3.5 744.5 C-5.91332717 742.12957643 -8.17271853 739.69263692 -10.375 737.125 C-12.96634205 734.1153247 -15.67254783 731.28911384 -18.5 728.5 C-21.24500542 725.79196435 -23.8727091 723.05830751 -26.375 720.125 C-29.26214857 716.7544219 -32.34248137 713.61497164 -35.5 710.5 C-38.55317342 707.48769221 -41.54072432 704.46451074 -44.3125 701.1875 C-47.66888309 697.24598475 -51.32318187 693.63862238 -55 690 C-59.18845164 685.85492391 -63.22670725 681.69083632 -67.03125 677.1875 C-70.48451264 673.35054151 -74.20534062 669.77387002 -77.87573242 666.14599609 C-80.98016285 663.06442598 -83.98904505 659.97082718 -86.8125 656.625 C-94.87003593 647.20109887 -105.97640327 637.40864155 -118.640625 635.62890625 C-126.85861786 635.41976571 -132.62118584 637.45282109 -139.015625 642.6328125 C-144.72921301 648.36962648 -148.15780395 655.54917874 -151.93115234 662.61889648 C-155.37199131 669.01694871 -159.03197302 674.66397103 -164 680 C-165.10021484 681.23556641 -165.10021484 681.23556641 -166.22265625 682.49609375 C-180.60091837 697.85628596 -200.862035 707.10163893 -221.875 708.203125 C-244.60532628 708.63391462 -266.03712197 702.07070172 -282.765625 686.16796875 C-283.87164062 685.09482422 -283.87164062 685.09482422 -285 684 C-285.61359375 683.45988281 -286.2271875 682.91976562 -286.859375 682.36328125 C-302.13980365 668.44967994 -308.62925988 647.5821478 -310.28125 627.59765625 C-310.95694898 604.82096971 -301.90760083 583.86356264 -287 567 C-286.45859375 566.36320313 -285.9171875 565.72640625 -285.359375 565.0703125 C-278.5586671 557.61701141 -269.03334505 552.54053009 -260.1875 547.875 C-251.01293472 542.97740118 -241.35849571 536.28824251 -238 526 C-236.75588859 515.77224689 -239.03104481 507.6751998 -245.1875 499.5 C-246.44164094 497.9860159 -247.71320899 496.48633316 -249 495 C-249.65871094 494.22011719 -250.31742187 493.44023438 -250.99609375 492.63671875 C-255.65400994 487.27797848 -260.65756968 482.44325559 -265.90942383 477.68359375 C-269.99950052 473.9660985 -273.92985527 470.12051724 -277.8125 466.1875 C-281.69546342 462.25836511 -285.62730094 458.51076192 -289.84375 454.9375 C-293.45008499 451.69702509 -296.8103425 448.20886361 -300.21826172 444.76220703 C-303.68034982 441.27597185 -307.22838017 437.98352567 -310.9765625 434.8046875 C-314.09638096 432.02214671 -316.99733693 429.02315975 -319.93188477 426.04858398 C-323.15398526 422.79966524 -326.49358303 419.77541079 -329.97265625 416.80859375 C-333.23569483 413.89763641 -336.26300441 410.75691439 -339.3125 407.625 C-342.07445207 404.92727938 -344.94327161 402.40692584 -347.85888672 399.87841797 C-351.49959381 396.68439285 -355.03121011 393.37647975 -358.5625 390.0625 C-359.27857422 389.39798828 -359.99464844 388.73347656 -360.73242188 388.04882812 C-369.2700106 380.03949785 -376.10539458 373.49875149 -377.375 361.4375 C-375.9115923 348.02292939 -365.42067635 338.16120969 -356.94140625 328.40625 C-354.40352546 325.48250692 -351.9375726 322.50825657 -349.5 319.5 C-344.62888492 313.50545658 -339.59493198 307.65753321 -334.55273438 301.80712891 C-333.01354018 300.01575856 -331.48212881 298.21804113 -329.953125 296.41796875 C-324.24553304 289.70657064 -318.4275861 283.12774316 -312.4453125 276.66015625 C-310.44839207 274.48778754 -308.49171266 272.29460837 -306.5625 270.0625 C-266.61923713 224.15614338 -266.61923713 224.15614338 -239.546875 221.78515625 C-227.91034159 221.32774535 -217.66870501 225.34609793 -208.84375 232.828125 C-197.49143855 244.26776192 -194.55764505 260.4152189 -192.30078125 275.7421875 C-189.88855325 292.01707246 -186.73047408 307.17100984 -173.5078125 318.2421875 C-161.65497884 326.55024847 -147.82517837 327.85976155 -133.77392578 325.64990234 C-104.91644984 319.30963805 -78.51998468 296.08117626 -62.62426758 271.97851562 C-57.99562958 264.67855528 -54.28873802 256.9839408 -51 249 C-50.61714844 248.07058594 -50.23429687 247.14117187 -49.83984375 246.18359375 C-46.14708038 235.20835751 -45.99134984 219.93104005 -50.7421875 209.31640625 C-56.97836992 197.83175975 -64.43532269 190.28273443 -77 186 C-85.31068741 183.65023966 -93.78887992 182.13863454 -102.32836914 180.91137695 C-118.35569042 178.60236978 -133.6010686 174.20324794 -144.3125 161.2890625 C-151.4424843 151.61737083 -153.21901743 140.69935166 -151.5703125 128.93359375 C-146.76186774 104.26805305 -125.12315322 85.36451682 -106.86450195 69.62158203 C-104.07234028 67.19320206 -101.38589686 64.65639788 -98.6875 62.125 C-93.83996873 57.61012862 -88.84690555 53.35968939 -83.6796875 49.2109375 C-80.86746685 46.8906505 -78.18202737 44.46928866 -75.5 42 C-71.11105254 37.96489979 -66.59137234 34.16169696 -61.953125 30.41796875 C-58.56640694 27.64498135 -55.25070635 24.79746579 -51.9375 21.9375 C-46.38966576 17.16138229 -40.77760238 12.4976967 -35 8 C-33.49759766 6.80310547 -33.49759766 6.80310547 -31.96484375 5.58203125 C-30.92457031 4.77121094 -29.88429688 3.96039063 -28.8125 3.125 C-27.87019531 2.38507812 -26.92789062 1.64515625 -25.95703125 0.8828125 C-17.83415233 -4.28921873 -8.4512582 -4.37038964 0 0 Z " fill="#78B159" transform="translate(438,44)"/>
</svg>
